<?xml version="1.0" encoding="UTF-8" standalone="no"?>
<!DOCTYPE svg PUBLIC "-//W3C//DTD SVG 1.1//EN"
 "http://www.w3.org/Graphics/SVG/1.1/DTD/svg11.dtd">
<!-- Generated by graphviz version 2.43.0 (0)
 -->
<!-- Title: snakemake_dag Pages: 1 -->
<svg width="945pt" height="785pt"
 viewBox="0.00 0.00 945.00 785.00" xmlns="http://www.w3.org/2000/svg" xmlns:xlink="http://www.w3.org/1999/xlink">
<g id="graph0" class="graph" transform="scale(1 1) rotate(0) translate(4 781)">
<title>snakemake_dag</title>
<polygon fill="white" stroke="transparent" points="-4,4 -4,-781 941,-781 941,4 -4,4"/>
<!-- 0 -->
<g id="node1" class="node">
<title>0</title>
<path fill="none" stroke="#d8ac56" stroke-width="2" d="M492.5,-36C492.5,-36 462.5,-36 462.5,-36 456.5,-36 450.5,-30 450.5,-24 450.5,-24 450.5,-12 450.5,-12 450.5,-6 456.5,0 462.5,0 462.5,0 492.5,0 492.5,0 498.5,0 504.5,-6 504.5,-12 504.5,-12 504.5,-24 504.5,-24 504.5,-30 498.5,-36 492.5,-36"/>
<text text-anchor="middle" x="477.5" y="-15.5" font-family="sans" font-size="10.00">all</text>
</g>
<!-- 1 -->
<g id="node2" class="node">
<title>1</title>
<path fill="none" stroke="#56d8d0" stroke-width="2" d="M111,-113C111,-113 12,-113 12,-113 6,-113 0,-107 0,-101 0,-101 0,-84 0,-84 0,-78 6,-72 12,-72 12,-72 111,-72 111,-72 117,-72 123,-78 123,-84 123,-84 123,-101 123,-101 123,-107 117,-113 111,-113"/>
<text text-anchor="middle" x="61.5" y="-101" font-family="sans" font-size="10.00">seqkit_stats</text>
<text text-anchor="middle" x="61.5" y="-90" font-family="sans" font-size="10.00">path_res: results</text>
<text text-anchor="middle" x="61.5" y="-79" font-family="sans" font-size="10.00">sample: P10.C1_RB02</text>
</g>
<!-- 1&#45;&gt;0 -->
<g id="edge1" class="edge">
<title>1&#45;&gt;0</title>
<path fill="none" stroke="grey" stroke-width="2" d="M123.24,-73.87C126.02,-73.21 128.79,-72.58 131.5,-72 242.93,-48.03 376.81,-30.74 440.43,-23.2"/>
<polygon fill="grey" stroke="grey" stroke-width="2" points="440.86,-26.67 450.38,-22.03 440.04,-19.72 440.86,-26.67"/>
</g>
<!-- 2 -->
<g id="node3" class="node">
<title>2</title>
<path fill="none" stroke="#56d8d0" stroke-width="2" d="M258,-113C258,-113 153,-113 153,-113 147,-113 141,-107 141,-101 141,-101 141,-84 141,-84 141,-78 147,-72 153,-72 153,-72 258,-72 258,-72 264,-72 270,-78 270,-84 270,-84 270,-101 270,-101 270,-107 264,-113 258,-113"/>
<text text-anchor="middle" x="205.5" y="-101" font-family="sans" font-size="10.00">seqkit_stats</text>
<text text-anchor="middle" x="205.5" y="-90" font-family="sans" font-size="10.00">path_res: results</text>
<text text-anchor="middle" x="205.5" y="-79" font-family="sans" font-size="10.00">sample: P40.C10_RB10</text>
</g>
<!-- 2&#45;&gt;0 -->
<g id="edge2" class="edge">
<title>2&#45;&gt;0</title>
<path fill="none" stroke="grey" stroke-width="2" d="M270.31,-74.23C323.4,-60.07 396.66,-40.55 440.34,-28.9"/>
<polygon fill="grey" stroke="grey" stroke-width="2" points="441.49,-32.22 450.25,-26.26 439.69,-25.46 441.49,-32.22"/>
</g>
<!-- 3 -->
<g id="node4" class="node">
<title>3</title>
<path fill="none" stroke="#d8cb56" stroke-width="2" d="M664.5,-545C664.5,-545 584.5,-545 584.5,-545 578.5,-545 572.5,-539 572.5,-533 572.5,-533 572.5,-521 572.5,-521 572.5,-515 578.5,-509 584.5,-509 584.5,-509 664.5,-509 664.5,-509 670.5,-509 676.5,-515 676.5,-521 676.5,-521 676.5,-533 676.5,-533 676.5,-539 670.5,-545 664.5,-545"/>
<text text-anchor="middle" x="624.5" y="-524.5" font-family="sans" font-size="10.00">samtools_flagstat</text>
</g>
<!-- 3&#45;&gt;0 -->
<g id="edge3" class="edge">
<title>3&#45;&gt;0</title>
<path fill="none" stroke="grey" stroke-width="2" d="M625.85,-508.74C628.27,-468.85 630.36,-367.96 597.5,-293 589.02,-273.66 577.08,-275.28 566.5,-257 541.01,-212.96 546.24,-196.69 528.5,-149 515.14,-113.09 498.84,-71.98 488.32,-45.77"/>
<polygon fill="grey" stroke="grey" stroke-width="2" points="491.44,-44.14 484.46,-36.17 484.95,-46.75 491.44,-44.14"/>
</g>
<!-- 4 -->
<g id="node5" class="node">
<title>4</title>
<path fill="none" stroke="#d8bc56" stroke-width="2" d="M704.5,-689C704.5,-689 662.5,-689 662.5,-689 656.5,-689 650.5,-683 650.5,-677 650.5,-677 650.5,-665 650.5,-665 650.5,-659 656.5,-653 662.5,-653 662.5,-653 704.5,-653 704.5,-653 710.5,-653 716.5,-659 716.5,-665 716.5,-665 716.5,-677 716.5,-677 716.5,-683 710.5,-689 704.5,-689"/>
<text text-anchor="middle" x="683.5" y="-668.5" font-family="sans" font-size="10.00">minimap2</text>
</g>
<!-- 4&#45;&gt;3 -->
<g id="edge12" class="edge">
<title>4&#45;&gt;3</title>
<path fill="none" stroke="grey" stroke-width="2" d="M676.38,-652.87C666.24,-628.46 647.53,-583.43 635.57,-554.64"/>
<polygon fill="grey" stroke="grey" stroke-width="2" points="638.71,-553.08 631.64,-545.19 632.25,-555.77 638.71,-553.08"/>
</g>
<!-- 11 -->
<g id="node12" class="node">
<title>11</title>
<path fill="none" stroke="#567bd8" stroke-width="2" d="M763.5,-617C763.5,-617 697.5,-617 697.5,-617 691.5,-617 685.5,-611 685.5,-605 685.5,-605 685.5,-593 685.5,-593 685.5,-587 691.5,-581 697.5,-581 697.5,-581 763.5,-581 763.5,-581 769.5,-581 775.5,-587 775.5,-593 775.5,-593 775.5,-605 775.5,-605 775.5,-611 769.5,-617 763.5,-617"/>
<text text-anchor="middle" x="730.5" y="-596.5" font-family="sans" font-size="10.00">samtools_view</text>
</g>
<!-- 4&#45;&gt;11 -->
<g id="edge19" class="edge">
<title>4&#45;&gt;11</title>
<path fill="none" stroke="grey" stroke-width="2" d="M695.12,-652.7C700.64,-644.47 707.35,-634.48 713.43,-625.42"/>
<polygon fill="grey" stroke="grey" stroke-width="2" points="716.35,-627.36 719.02,-617.1 710.54,-623.46 716.35,-627.36"/>
</g>
<!-- 5 -->
<g id="node6" class="node">
<title>5</title>
<path fill="none" stroke="#d86656" stroke-width="2" d="M733,-777C733,-777 634,-777 634,-777 628,-777 622,-771 622,-765 622,-765 622,-737 622,-737 622,-731 628,-725 634,-725 634,-725 733,-725 733,-725 739,-725 745,-731 745,-737 745,-737 745,-765 745,-765 745,-771 739,-777 733,-777"/>
<text text-anchor="middle" x="683.5" y="-765" font-family="sans" font-size="10.00">seqkit_seq</text>
<text text-anchor="middle" x="683.5" y="-754" font-family="sans" font-size="10.00">path_res: results</text>
<text text-anchor="middle" x="683.5" y="-743" font-family="sans" font-size="10.00">sample: P10.C1_RB02</text>
<text text-anchor="middle" x="683.5" y="-732" font-family="sans" font-size="10.00">trim: 1000</text>
</g>
<!-- 5&#45;&gt;4 -->
<g id="edge13" class="edge">
<title>5&#45;&gt;4</title>
<path fill="none" stroke="grey" stroke-width="2" d="M683.5,-724.89C683.5,-716.84 683.5,-707.88 683.5,-699.66"/>
<polygon fill="grey" stroke="grey" stroke-width="2" points="687,-699.41 683.5,-689.41 680,-699.41 687,-699.41"/>
</g>
<!-- 6 -->
<g id="node7" class="node">
<title>6</title>
<path fill="none" stroke="#d8cb56" stroke-width="2" d="M329.5,-473C329.5,-473 249.5,-473 249.5,-473 243.5,-473 237.5,-467 237.5,-461 237.5,-461 237.5,-449 237.5,-449 237.5,-443 243.5,-437 249.5,-437 249.5,-437 329.5,-437 329.5,-437 335.5,-437 341.5,-443 341.5,-449 341.5,-449 341.5,-461 341.5,-461 341.5,-467 335.5,-473 329.5,-473"/>
<text text-anchor="middle" x="289.5" y="-452.5" font-family="sans" font-size="10.00">samtools_flagstat</text>
</g>
<!-- 6&#45;&gt;0 -->
<g id="edge4" class="edge">
<title>6&#45;&gt;0</title>
<path fill="none" stroke="grey" stroke-width="2" d="M291.28,-436.97C293.9,-410.34 298.5,-357.21 298.5,-312 298.5,-312 298.5,-312 298.5,-166 298.5,-93.09 388.29,-49.72 440.68,-30.62"/>
<polygon fill="grey" stroke="grey" stroke-width="2" points="442.04,-33.85 450.31,-27.23 439.72,-27.25 442.04,-33.85"/>
</g>
<!-- 7 -->
<g id="node8" class="node">
<title>7</title>
<path fill="none" stroke="#d8bc56" stroke-width="2" d="M367.5,-689C367.5,-689 325.5,-689 325.5,-689 319.5,-689 313.5,-683 313.5,-677 313.5,-677 313.5,-665 313.5,-665 313.5,-659 319.5,-653 325.5,-653 325.5,-653 367.5,-653 367.5,-653 373.5,-653 379.5,-659 379.5,-665 379.5,-665 379.5,-677 379.5,-677 379.5,-683 373.5,-689 367.5,-689"/>
<text text-anchor="middle" x="346.5" y="-668.5" font-family="sans" font-size="10.00">minimap2</text>
</g>
<!-- 7&#45;&gt;6 -->
<g id="edge14" class="edge">
<title>7&#45;&gt;6</title>
<path fill="none" stroke="grey" stroke-width="2" d="M341.93,-652.85C332.05,-615.75 308.63,-527.81 296.72,-483.1"/>
<polygon fill="grey" stroke="grey" stroke-width="2" points="300.05,-481.99 294.09,-473.23 293.28,-483.8 300.05,-481.99"/>
</g>
<!-- 15 -->
<g id="node16" class="node">
<title>15</title>
<path fill="none" stroke="#567bd8" stroke-width="2" d="M457.5,-617C457.5,-617 391.5,-617 391.5,-617 385.5,-617 379.5,-611 379.5,-605 379.5,-605 379.5,-593 379.5,-593 379.5,-587 385.5,-581 391.5,-581 391.5,-581 457.5,-581 457.5,-581 463.5,-581 469.5,-587 469.5,-593 469.5,-593 469.5,-605 469.5,-605 469.5,-611 463.5,-617 457.5,-617"/>
<text text-anchor="middle" x="424.5" y="-596.5" font-family="sans" font-size="10.00">samtools_view</text>
</g>
<!-- 7&#45;&gt;15 -->
<g id="edge24" class="edge">
<title>7&#45;&gt;15</title>
<path fill="none" stroke="grey" stroke-width="2" d="M365.78,-652.7C375.42,-644.05 387.23,-633.45 397.73,-624.03"/>
<polygon fill="grey" stroke="grey" stroke-width="2" points="400.34,-626.39 405.44,-617.1 395.66,-621.18 400.34,-626.39"/>
</g>
<!-- 8 -->
<g id="node9" class="node">
<title>8</title>
<path fill="none" stroke="#d86656" stroke-width="2" d="M399,-777C399,-777 294,-777 294,-777 288,-777 282,-771 282,-765 282,-765 282,-737 282,-737 282,-731 288,-725 294,-725 294,-725 399,-725 399,-725 405,-725 411,-731 411,-737 411,-737 411,-765 411,-765 411,-771 405,-777 399,-777"/>
<text text-anchor="middle" x="346.5" y="-765" font-family="sans" font-size="10.00">seqkit_seq</text>
<text text-anchor="middle" x="346.5" y="-754" font-family="sans" font-size="10.00">path_res: results</text>
<text text-anchor="middle" x="346.5" y="-743" font-family="sans" font-size="10.00">sample: P40.C10_RB10</text>
<text text-anchor="middle" x="346.5" y="-732" font-family="sans" font-size="10.00">trim: 1000</text>
</g>
<!-- 8&#45;&gt;7 -->
<g id="edge15" class="edge">
<title>8&#45;&gt;7</title>
<path fill="none" stroke="grey" stroke-width="2" d="M346.5,-724.89C346.5,-716.84 346.5,-707.88 346.5,-699.66"/>
<polygon fill="grey" stroke="grey" stroke-width="2" points="350,-699.41 346.5,-689.41 343,-699.41 350,-699.41"/>
</g>
<!-- 9 -->
<g id="node10" class="node">
<title>9</title>
<path fill="none" stroke="#56d8b1" stroke-width="2" d="M925,-401C925,-401 864,-401 864,-401 858,-401 852,-395 852,-389 852,-389 852,-377 852,-377 852,-371 858,-365 864,-365 864,-365 925,-365 925,-365 931,-365 937,-371 937,-377 937,-377 937,-389 937,-389 937,-395 931,-401 925,-401"/>
<text text-anchor="middle" x="894.5" y="-380.5" font-family="sans" font-size="10.00">bamCoverage</text>
</g>
<!-- 9&#45;&gt;0 -->
<g id="edge5" class="edge">
<title>9&#45;&gt;0</title>
<path fill="none" stroke="grey" stroke-width="2" d="M894.5,-364.95C894.5,-338.29 894.5,-285.11 894.5,-240 894.5,-240 894.5,-240 894.5,-166 894.5,-107.85 855.04,-98.92 803.5,-72 753.79,-46.03 589.68,-28.8 515.04,-22.12"/>
<polygon fill="grey" stroke="grey" stroke-width="2" points="514.97,-18.6 504.71,-21.21 514.36,-25.57 514.97,-18.6"/>
</g>
<!-- 10 -->
<g id="node11" class="node">
<title>10</title>
<path fill="none" stroke="#56a9d8" stroke-width="2" d="M775.5,-545C775.5,-545 713.5,-545 713.5,-545 707.5,-545 701.5,-539 701.5,-533 701.5,-533 701.5,-521 701.5,-521 701.5,-515 707.5,-509 713.5,-509 713.5,-509 775.5,-509 775.5,-509 781.5,-509 787.5,-515 787.5,-521 787.5,-521 787.5,-533 787.5,-533 787.5,-539 781.5,-545 775.5,-545"/>
<text text-anchor="middle" x="744.5" y="-524.5" font-family="sans" font-size="10.00">samtools_sort</text>
</g>
<!-- 10&#45;&gt;9 -->
<g id="edge16" class="edge">
<title>10&#45;&gt;9</title>
<path fill="none" stroke="grey" stroke-width="2" d="M787.53,-519.35C816.57,-512.6 853.5,-499.21 875.5,-473 889.83,-455.93 894.14,-430.64 895.12,-411.38"/>
<polygon fill="grey" stroke="grey" stroke-width="2" points="898.62,-411.19 895.36,-401.11 891.62,-411.03 898.62,-411.19"/>
</g>
<!-- 12 -->
<g id="node13" class="node">
<title>12</title>
<path fill="none" stroke="#61d856" stroke-width="2" d="M854.5,-473C854.5,-473 784.5,-473 784.5,-473 778.5,-473 772.5,-467 772.5,-461 772.5,-461 772.5,-449 772.5,-449 772.5,-443 778.5,-437 784.5,-437 784.5,-437 854.5,-437 854.5,-437 860.5,-437 866.5,-443 866.5,-449 866.5,-449 866.5,-461 866.5,-461 866.5,-467 860.5,-473 854.5,-473"/>
<text text-anchor="middle" x="819.5" y="-452.5" font-family="sans" font-size="10.00">samtools_index</text>
</g>
<!-- 10&#45;&gt;12 -->
<g id="edge20" class="edge">
<title>10&#45;&gt;12</title>
<path fill="none" stroke="grey" stroke-width="2" d="M763.04,-508.7C772.3,-500.05 783.66,-489.45 793.76,-480.03"/>
<polygon fill="grey" stroke="grey" stroke-width="2" points="796.25,-482.49 801.17,-473.1 791.48,-477.37 796.25,-482.49"/>
</g>
<!-- 17 -->
<g id="node18" class="node">
<title>17</title>
<path fill="none" stroke="#56b9d8" stroke-width="2" d="M821.5,-401C821.5,-401 763.5,-401 763.5,-401 757.5,-401 751.5,-395 751.5,-389 751.5,-389 751.5,-377 751.5,-377 751.5,-371 757.5,-365 763.5,-365 763.5,-365 821.5,-365 821.5,-365 827.5,-365 833.5,-371 833.5,-377 833.5,-377 833.5,-389 833.5,-389 833.5,-395 827.5,-401 821.5,-401"/>
<text text-anchor="middle" x="792.5" y="-380.5" font-family="sans" font-size="10.00">plotCoverage</text>
</g>
<!-- 10&#45;&gt;17 -->
<g id="edge26" class="edge">
<title>10&#45;&gt;17</title>
<path fill="none" stroke="grey" stroke-width="2" d="M746.65,-508.86C749.28,-490.62 754.54,-461.14 763.5,-437 766.9,-427.86 771.65,-418.36 776.33,-409.98"/>
<polygon fill="grey" stroke="grey" stroke-width="2" points="779.51,-411.47 781.5,-401.06 773.46,-407.95 779.51,-411.47"/>
</g>
<!-- 20 -->
<g id="node21" class="node">
<title>20</title>
<path fill="none" stroke="#56d873" stroke-width="2" d="M721.5,-401C721.5,-401 691.5,-401 691.5,-401 685.5,-401 679.5,-395 679.5,-389 679.5,-389 679.5,-377 679.5,-377 679.5,-371 685.5,-365 691.5,-365 691.5,-365 721.5,-365 721.5,-365 727.5,-365 733.5,-371 733.5,-377 733.5,-377 733.5,-389 733.5,-389 733.5,-395 727.5,-401 721.5,-401"/>
<text text-anchor="middle" x="706.5" y="-380.5" font-family="sans" font-size="10.00">sniffles</text>
</g>
<!-- 10&#45;&gt;20 -->
<g id="edge31" class="edge">
<title>10&#45;&gt;20</title>
<path fill="none" stroke="grey" stroke-width="2" d="M739.92,-508.87C733.41,-484.56 721.44,-439.82 713.73,-411.01"/>
<polygon fill="grey" stroke="grey" stroke-width="2" points="717.07,-409.94 711.1,-401.19 710.3,-411.75 717.07,-409.94"/>
</g>
<!-- 11&#45;&gt;10 -->
<g id="edge18" class="edge">
<title>11&#45;&gt;10</title>
<path fill="none" stroke="grey" stroke-width="2" d="M733.96,-580.7C735.5,-572.98 737.36,-563.71 739.08,-555.11"/>
<polygon fill="grey" stroke="grey" stroke-width="2" points="742.55,-555.6 741.08,-545.1 735.69,-554.22 742.55,-555.6"/>
</g>
<!-- 12&#45;&gt;9 -->
<g id="edge17" class="edge">
<title>12&#45;&gt;9</title>
<path fill="none" stroke="grey" stroke-width="2" d="M838.04,-436.7C847.3,-428.05 858.66,-417.45 868.76,-408.03"/>
<polygon fill="grey" stroke="grey" stroke-width="2" points="871.25,-410.49 876.17,-401.1 866.48,-405.37 871.25,-410.49"/>
</g>
<!-- 12&#45;&gt;17 -->
<g id="edge27" class="edge">
<title>12&#45;&gt;17</title>
<path fill="none" stroke="grey" stroke-width="2" d="M812.83,-436.7C809.79,-428.81 806.12,-419.3 802.74,-410.55"/>
<polygon fill="grey" stroke="grey" stroke-width="2" points="805.96,-409.17 799.1,-401.1 799.43,-411.69 805.96,-409.17"/>
</g>
<!-- 12&#45;&gt;20 -->
<g id="edge32" class="edge">
<title>12&#45;&gt;20</title>
<path fill="none" stroke="grey" stroke-width="2" d="M791.86,-436.88C776.97,-427.66 758.43,-416.17 742.44,-406.26"/>
<polygon fill="grey" stroke="grey" stroke-width="2" points="744.2,-403.24 733.86,-400.95 740.52,-409.19 744.2,-403.24"/>
</g>
<!-- 13 -->
<g id="node14" class="node">
<title>13</title>
<path fill="none" stroke="#56d8b1" stroke-width="2" d="M400,-401C400,-401 339,-401 339,-401 333,-401 327,-395 327,-389 327,-389 327,-377 327,-377 327,-371 333,-365 339,-365 339,-365 400,-365 400,-365 406,-365 412,-371 412,-377 412,-377 412,-389 412,-389 412,-395 406,-401 400,-401"/>
<text text-anchor="middle" x="369.5" y="-380.5" font-family="sans" font-size="10.00">bamCoverage</text>
</g>
<!-- 13&#45;&gt;0 -->
<g id="edge6" class="edge">
<title>13&#45;&gt;0</title>
<path fill="none" stroke="grey" stroke-width="2" d="M369.5,-364.95C369.5,-338.29 369.5,-285.11 369.5,-240 369.5,-240 369.5,-240 369.5,-166 369.5,-114.4 413.25,-68.93 445.06,-42.7"/>
<polygon fill="grey" stroke="grey" stroke-width="2" points="447.64,-45.11 453.26,-36.13 443.27,-39.65 447.64,-45.11"/>
</g>
<!-- 14 -->
<g id="node15" class="node">
<title>14</title>
<path fill="none" stroke="#56a9d8" stroke-width="2" d="M475.5,-545C475.5,-545 413.5,-545 413.5,-545 407.5,-545 401.5,-539 401.5,-533 401.5,-533 401.5,-521 401.5,-521 401.5,-515 407.5,-509 413.5,-509 413.5,-509 475.5,-509 475.5,-509 481.5,-509 487.5,-515 487.5,-521 487.5,-521 487.5,-533 487.5,-533 487.5,-539 481.5,-545 475.5,-545"/>
<text text-anchor="middle" x="444.5" y="-524.5" font-family="sans" font-size="10.00">samtools_sort</text>
</g>
<!-- 14&#45;&gt;13 -->
<g id="edge21" class="edge">
<title>14&#45;&gt;13</title>
<path fill="none" stroke="grey" stroke-width="2" d="M420.54,-508.88C409.16,-499.53 396.36,-487.01 388.5,-473 377.83,-454 373.14,-429.64 371.09,-411.21"/>
<polygon fill="grey" stroke="grey" stroke-width="2" points="374.56,-410.76 370.16,-401.13 367.59,-411.41 374.56,-410.76"/>
</g>
<!-- 16 -->
<g id="node17" class="node">
<title>16</title>
<path fill="none" stroke="#61d856" stroke-width="2" d="M479.5,-473C479.5,-473 409.5,-473 409.5,-473 403.5,-473 397.5,-467 397.5,-461 397.5,-461 397.5,-449 397.5,-449 397.5,-443 403.5,-437 409.5,-437 409.5,-437 479.5,-437 479.5,-437 485.5,-437 491.5,-443 491.5,-449 491.5,-449 491.5,-461 491.5,-461 491.5,-467 485.5,-473 479.5,-473"/>
<text text-anchor="middle" x="444.5" y="-452.5" font-family="sans" font-size="10.00">samtools_index</text>
</g>
<!-- 14&#45;&gt;16 -->
<g id="edge25" class="edge">
<title>14&#45;&gt;16</title>
<path fill="none" stroke="grey" stroke-width="2" d="M444.5,-508.7C444.5,-500.98 444.5,-491.71 444.5,-483.11"/>
<polygon fill="grey" stroke="grey" stroke-width="2" points="448,-483.1 444.5,-473.1 441,-483.1 448,-483.1"/>
</g>
<!-- 18 -->
<g id="node19" class="node">
<title>18</title>
<path fill="none" stroke="#56b9d8" stroke-width="2" d="M500.5,-401C500.5,-401 442.5,-401 442.5,-401 436.5,-401 430.5,-395 430.5,-389 430.5,-389 430.5,-377 430.5,-377 430.5,-371 436.5,-365 442.5,-365 442.5,-365 500.5,-365 500.5,-365 506.5,-365 512.5,-371 512.5,-377 512.5,-377 512.5,-389 512.5,-389 512.5,-395 506.5,-401 500.5,-401"/>
<text text-anchor="middle" x="471.5" y="-380.5" font-family="sans" font-size="10.00">plotCoverage</text>
</g>
<!-- 14&#45;&gt;18 -->
<g id="edge28" class="edge">
<title>14&#45;&gt;18</title>
<path fill="none" stroke="grey" stroke-width="2" d="M470.62,-508.82C482.08,-499.69 494.31,-487.39 500.5,-473 509.42,-452.28 500.14,-427.86 489.78,-409.85"/>
<polygon fill="grey" stroke="grey" stroke-width="2" points="492.58,-407.74 484.35,-401.07 486.63,-411.42 492.58,-407.74"/>
</g>
<!-- 22 -->
<g id="node23" class="node">
<title>22</title>
<path fill="none" stroke="#56d873" stroke-width="2" d="M572.5,-401C572.5,-401 542.5,-401 542.5,-401 536.5,-401 530.5,-395 530.5,-389 530.5,-389 530.5,-377 530.5,-377 530.5,-371 536.5,-365 542.5,-365 542.5,-365 572.5,-365 572.5,-365 578.5,-365 584.5,-371 584.5,-377 584.5,-377 584.5,-389 584.5,-389 584.5,-395 578.5,-401 572.5,-401"/>
<text text-anchor="middle" x="557.5" y="-380.5" font-family="sans" font-size="10.00">sniffles</text>
</g>
<!-- 14&#45;&gt;22 -->
<g id="edge34" class="edge">
<title>14&#45;&gt;22</title>
<path fill="none" stroke="grey" stroke-width="2" d="M474.62,-508.78C488.73,-499.57 504.93,-487.2 516.5,-473 531.56,-454.53 542.41,-429.63 549.15,-410.86"/>
<polygon fill="grey" stroke="grey" stroke-width="2" points="552.55,-411.74 552.48,-401.15 545.93,-409.48 552.55,-411.74"/>
</g>
<!-- 15&#45;&gt;14 -->
<g id="edge23" class="edge">
<title>15&#45;&gt;14</title>
<path fill="none" stroke="grey" stroke-width="2" d="M429.44,-580.7C431.67,-572.9 434.35,-563.51 436.83,-554.83"/>
<polygon fill="grey" stroke="grey" stroke-width="2" points="440.23,-555.68 439.61,-545.1 433.5,-553.76 440.23,-555.68"/>
</g>
<!-- 16&#45;&gt;13 -->
<g id="edge22" class="edge">
<title>16&#45;&gt;13</title>
<path fill="none" stroke="grey" stroke-width="2" d="M425.96,-436.7C416.7,-428.05 405.34,-417.45 395.24,-408.03"/>
<polygon fill="grey" stroke="grey" stroke-width="2" points="397.52,-405.37 387.83,-401.1 392.75,-410.49 397.52,-405.37"/>
</g>
<!-- 16&#45;&gt;18 -->
<g id="edge29" class="edge">
<title>16&#45;&gt;18</title>
<path fill="none" stroke="grey" stroke-width="2" d="M451.17,-436.7C454.21,-428.81 457.88,-419.3 461.26,-410.55"/>
<polygon fill="grey" stroke="grey" stroke-width="2" points="464.57,-411.69 464.9,-401.1 458.04,-409.17 464.57,-411.69"/>
</g>
<!-- 16&#45;&gt;22 -->
<g id="edge35" class="edge">
<title>16&#45;&gt;22</title>
<path fill="none" stroke="grey" stroke-width="2" d="M472.14,-436.88C487.03,-427.66 505.57,-416.17 521.56,-406.26"/>
<polygon fill="grey" stroke="grey" stroke-width="2" points="523.48,-409.19 530.14,-400.95 519.8,-403.24 523.48,-409.19"/>
</g>
<!-- 17&#45;&gt;0 -->
<g id="edge7" class="edge">
<title>17&#45;&gt;0</title>
<path fill="none" stroke="grey" stroke-width="2" d="M806.07,-364.76C824.86,-339.1 856.5,-288.67 856.5,-240 856.5,-240 856.5,-240 856.5,-166 856.5,-101.35 803.74,-100.06 745.5,-72 668.99,-35.14 568.39,-23.91 514.84,-20.5"/>
<polygon fill="grey" stroke="grey" stroke-width="2" points="514.96,-17 504.77,-19.91 514.55,-23.99 514.96,-17"/>
</g>
<!-- 18&#45;&gt;0 -->
<g id="edge8" class="edge">
<title>18&#45;&gt;0</title>
<path fill="none" stroke="grey" stroke-width="2" d="M457.93,-364.76C439.14,-339.1 407.5,-288.67 407.5,-240 407.5,-240 407.5,-240 407.5,-166 407.5,-119.63 436.24,-72.33 456.89,-44.33"/>
<polygon fill="grey" stroke="grey" stroke-width="2" points="459.74,-46.37 463,-36.28 454.16,-42.13 459.74,-46.37"/>
</g>
<!-- 19 -->
<g id="node20" class="node">
<title>19</title>
<path fill="none" stroke="#56d85b" stroke-width="2" d="M816.5,-257C816.5,-257 756.5,-257 756.5,-257 750.5,-257 744.5,-251 744.5,-245 744.5,-245 744.5,-233 744.5,-233 744.5,-227 750.5,-221 756.5,-221 756.5,-221 816.5,-221 816.5,-221 822.5,-221 828.5,-227 828.5,-233 828.5,-233 828.5,-245 828.5,-245 828.5,-251 822.5,-257 816.5,-257"/>
<text text-anchor="middle" x="786.5" y="-236.5" font-family="sans" font-size="10.00">bcftools_stats</text>
</g>
<!-- 19&#45;&gt;0 -->
<g id="edge9" class="edge">
<title>19&#45;&gt;0</title>
<path fill="none" stroke="grey" stroke-width="2" d="M784.69,-220.9C779.97,-185.96 763.85,-106.75 712.5,-72 651.83,-30.95 564.18,-21.26 514.86,-19.24"/>
<polygon fill="grey" stroke="grey" stroke-width="2" points="514.76,-15.73 504.65,-18.9 514.53,-22.73 514.76,-15.73"/>
</g>
<!-- 20&#45;&gt;19 -->
<g id="edge30" class="edge">
<title>20&#45;&gt;19</title>
<path fill="none" stroke="grey" stroke-width="2" d="M724.84,-364.69C734.38,-354.92 745.66,-342.08 753.5,-329 765.17,-309.54 773.84,-285.25 779.35,-266.97"/>
<polygon fill="grey" stroke="grey" stroke-width="2" points="782.75,-267.82 782.16,-257.24 776.03,-265.88 782.75,-267.82"/>
</g>
<!-- 25 -->
<g id="node26" class="node">
<title>25</title>
<path fill="none" stroke="#c6d856" stroke-width="2" d="M733,-329C733,-329 674,-329 674,-329 668,-329 662,-323 662,-317 662,-317 662,-305 662,-305 662,-299 668,-293 674,-293 674,-293 733,-293 733,-293 739,-293 745,-299 745,-305 745,-305 745,-317 745,-317 745,-323 739,-329 733,-329"/>
<text text-anchor="middle" x="703.5" y="-308.5" font-family="sans" font-size="10.00">bcftools_filter</text>
</g>
<!-- 20&#45;&gt;25 -->
<g id="edge41" class="edge">
<title>20&#45;&gt;25</title>
<path fill="none" stroke="grey" stroke-width="2" d="M705.76,-364.7C705.43,-356.98 705.03,-347.71 704.66,-339.11"/>
<polygon fill="grey" stroke="grey" stroke-width="2" points="708.16,-338.95 704.23,-329.1 701.16,-339.25 708.16,-338.95"/>
</g>
<!-- 21 -->
<g id="node22" class="node">
<title>21</title>
<path fill="none" stroke="#56d85b" stroke-width="2" d="M507.5,-185C507.5,-185 447.5,-185 447.5,-185 441.5,-185 435.5,-179 435.5,-173 435.5,-173 435.5,-161 435.5,-161 435.5,-155 441.5,-149 447.5,-149 447.5,-149 507.5,-149 507.5,-149 513.5,-149 519.5,-155 519.5,-161 519.5,-161 519.5,-173 519.5,-173 519.5,-179 513.5,-185 507.5,-185"/>
<text text-anchor="middle" x="477.5" y="-164.5" font-family="sans" font-size="10.00">bcftools_stats</text>
</g>
<!-- 21&#45;&gt;0 -->
<g id="edge10" class="edge">
<title>21&#45;&gt;0</title>
<path fill="none" stroke="grey" stroke-width="2" d="M477.5,-148.85C477.5,-123.62 477.5,-76.26 477.5,-46.24"/>
<polygon fill="grey" stroke="grey" stroke-width="2" points="481,-46.04 477.5,-36.04 474,-46.04 481,-46.04"/>
</g>
<!-- 22&#45;&gt;21 -->
<g id="edge33" class="edge">
<title>22&#45;&gt;21</title>
<path fill="none" stroke="grey" stroke-width="2" d="M530.49,-365.39C518.03,-356.25 504.3,-343.76 496.5,-329 474.04,-286.53 473.08,-229.11 474.94,-195.57"/>
<polygon fill="grey" stroke="grey" stroke-width="2" points="478.46,-195.37 475.65,-185.16 471.48,-194.9 478.46,-195.37"/>
</g>
<!-- 27 -->
<g id="node28" class="node">
<title>27</title>
<path fill="none" stroke="#c6d856" stroke-width="2" d="M577,-329C577,-329 518,-329 518,-329 512,-329 506,-323 506,-317 506,-317 506,-305 506,-305 506,-299 512,-293 518,-293 518,-293 577,-293 577,-293 583,-293 589,-299 589,-305 589,-305 589,-317 589,-317 589,-323 583,-329 577,-329"/>
<text text-anchor="middle" x="547.5" y="-308.5" font-family="sans" font-size="10.00">bcftools_filter</text>
</g>
<!-- 22&#45;&gt;27 -->
<g id="edge43" class="edge">
<title>22&#45;&gt;27</title>
<path fill="none" stroke="grey" stroke-width="2" d="M555.03,-364.7C553.93,-356.98 552.6,-347.71 551.37,-339.11"/>
<polygon fill="grey" stroke="grey" stroke-width="2" points="554.82,-338.51 549.94,-329.1 547.89,-339.5 554.82,-338.51"/>
</g>
<!-- 23 -->
<g id="node24" class="node">
<title>23</title>
<path fill="none" stroke="#70d856" stroke-width="2" d="M691.5,-110.5C691.5,-110.5 623.5,-110.5 623.5,-110.5 617.5,-110.5 611.5,-104.5 611.5,-98.5 611.5,-98.5 611.5,-86.5 611.5,-86.5 611.5,-80.5 617.5,-74.5 623.5,-74.5 623.5,-74.5 691.5,-74.5 691.5,-74.5 697.5,-74.5 703.5,-80.5 703.5,-86.5 703.5,-86.5 703.5,-98.5 703.5,-98.5 703.5,-104.5 697.5,-110.5 691.5,-110.5"/>
<text text-anchor="middle" x="657.5" y="-95.5" font-family="sans" font-size="10.00">bcftools_merge</text>
<text text-anchor="middle" x="657.5" y="-84.5" font-family="sans" font-size="10.00">group: C10</text>
</g>
<!-- 23&#45;&gt;0 -->
<g id="edge11" class="edge">
<title>23&#45;&gt;0</title>
<path fill="none" stroke="grey" stroke-width="2" d="M614.84,-74.32C584.21,-61.98 543.34,-45.52 514.17,-33.77"/>
<polygon fill="grey" stroke="grey" stroke-width="2" points="515.34,-30.47 504.75,-29.98 512.72,-36.96 515.34,-30.47"/>
</g>
<!-- 24 -->
<g id="node25" class="node">
<title>24</title>
<path fill="none" stroke="#9fd856" stroke-width="2" d="M714.5,-257C714.5,-257 684.5,-257 684.5,-257 678.5,-257 672.5,-251 672.5,-245 672.5,-245 672.5,-233 672.5,-233 672.5,-227 678.5,-221 684.5,-221 684.5,-221 714.5,-221 714.5,-221 720.5,-221 726.5,-227 726.5,-233 726.5,-233 726.5,-245 726.5,-245 726.5,-251 720.5,-257 714.5,-257"/>
<text text-anchor="middle" x="699.5" y="-236.5" font-family="sans" font-size="10.00">bgzip</text>
</g>
<!-- 24&#45;&gt;23 -->
<g id="edge36" class="edge">
<title>24&#45;&gt;23</title>
<path fill="none" stroke="grey" stroke-width="2" d="M721.65,-220.87C731.91,-211.52 743.02,-199 748.5,-185 754.33,-170.1 756.33,-162.95 748.5,-149 740.4,-134.57 726.85,-123.45 712.65,-115.08"/>
<polygon fill="grey" stroke="grey" stroke-width="2" points="714.22,-111.95 703.77,-110.23 710.86,-118.1 714.22,-111.95"/>
</g>
<!-- 28 -->
<g id="node29" class="node">
<title>28</title>
<path fill="none" stroke="#569ad8" stroke-width="2" d="M727.5,-185C727.5,-185 697.5,-185 697.5,-185 691.5,-185 685.5,-179 685.5,-173 685.5,-173 685.5,-161 685.5,-161 685.5,-155 691.5,-149 697.5,-149 697.5,-149 727.5,-149 727.5,-149 733.5,-149 739.5,-155 739.5,-161 739.5,-161 739.5,-173 739.5,-173 739.5,-179 733.5,-185 727.5,-185"/>
<text text-anchor="middle" x="712.5" y="-164.5" font-family="sans" font-size="10.00">tabix</text>
</g>
<!-- 24&#45;&gt;28 -->
<g id="edge44" class="edge">
<title>24&#45;&gt;28</title>
<path fill="none" stroke="grey" stroke-width="2" d="M702.71,-220.7C704.15,-212.98 705.87,-203.71 707.46,-195.11"/>
<polygon fill="grey" stroke="grey" stroke-width="2" points="710.94,-195.58 709.32,-185.1 704.06,-194.3 710.94,-195.58"/>
</g>
<!-- 25&#45;&gt;24 -->
<g id="edge40" class="edge">
<title>25&#45;&gt;24</title>
<path fill="none" stroke="grey" stroke-width="2" d="M702.51,-292.7C702.07,-284.98 701.54,-275.71 701.05,-267.11"/>
<polygon fill="grey" stroke="grey" stroke-width="2" points="704.54,-266.89 700.48,-257.1 697.55,-267.29 704.54,-266.89"/>
</g>
<!-- 26 -->
<g id="node27" class="node">
<title>26</title>
<path fill="none" stroke="#9fd856" stroke-width="2" d="M617.5,-257C617.5,-257 587.5,-257 587.5,-257 581.5,-257 575.5,-251 575.5,-245 575.5,-245 575.5,-233 575.5,-233 575.5,-227 581.5,-221 587.5,-221 587.5,-221 617.5,-221 617.5,-221 623.5,-221 629.5,-227 629.5,-233 629.5,-233 629.5,-245 629.5,-245 629.5,-251 623.5,-257 617.5,-257"/>
<text text-anchor="middle" x="602.5" y="-236.5" font-family="sans" font-size="10.00">bgzip</text>
</g>
<!-- 26&#45;&gt;23 -->
<g id="edge37" class="edge">
<title>26&#45;&gt;23</title>
<path fill="none" stroke="grey" stroke-width="2" d="M616.69,-220.86C624.23,-210.95 633.03,-197.91 638.5,-185 647.23,-164.39 652.07,-139.43 654.67,-120.79"/>
<polygon fill="grey" stroke="grey" stroke-width="2" points="658.18,-120.98 655.96,-110.62 651.23,-120.1 658.18,-120.98"/>
</g>
<!-- 29 -->
<g id="node30" class="node">
<title>29</title>
<path fill="none" stroke="#569ad8" stroke-width="2" d="M617.5,-185C617.5,-185 587.5,-185 587.5,-185 581.5,-185 575.5,-179 575.5,-173 575.5,-173 575.5,-161 575.5,-161 575.5,-155 581.5,-149 587.5,-149 587.5,-149 617.5,-149 617.5,-149 623.5,-149 629.5,-155 629.5,-161 629.5,-161 629.5,-173 629.5,-173 629.5,-179 623.5,-185 617.5,-185"/>
<text text-anchor="middle" x="602.5" y="-164.5" font-family="sans" font-size="10.00">tabix</text>
</g>
<!-- 26&#45;&gt;29 -->
<g id="edge45" class="edge">
<title>26&#45;&gt;29</title>
<path fill="none" stroke="grey" stroke-width="2" d="M602.5,-220.7C602.5,-212.98 602.5,-203.71 602.5,-195.11"/>
<polygon fill="grey" stroke="grey" stroke-width="2" points="606,-195.1 602.5,-185.1 599,-195.1 606,-195.1"/>
</g>
<!-- 27&#45;&gt;26 -->
<g id="edge42" class="edge">
<title>27&#45;&gt;26</title>
<path fill="none" stroke="grey" stroke-width="2" d="M561.1,-292.7C567.62,-284.39 575.57,-274.28 582.75,-265.14"/>
<polygon fill="grey" stroke="grey" stroke-width="2" points="585.63,-267.13 589.06,-257.1 580.13,-262.81 585.63,-267.13"/>
</g>
<!-- 28&#45;&gt;23 -->
<g id="edge38" class="edge">
<title>28&#45;&gt;23</title>
<path fill="none" stroke="grey" stroke-width="2" d="M699.47,-148.82C692.62,-139.79 684.09,-128.55 676.52,-118.57"/>
<polygon fill="grey" stroke="grey" stroke-width="2" points="679.27,-116.41 670.44,-110.56 673.7,-120.64 679.27,-116.41"/>
</g>
<!-- 29&#45;&gt;23 -->
<g id="edge39" class="edge">
<title>29&#45;&gt;23</title>
<path fill="none" stroke="grey" stroke-width="2" d="M615.53,-148.82C622.38,-139.79 630.91,-128.55 638.48,-118.57"/>
<polygon fill="grey" stroke="grey" stroke-width="2" points="641.3,-120.64 644.56,-110.56 635.73,-116.41 641.3,-120.64"/>
</g>
</g>
</svg>
