<svg class="thumb" width="1000" height="1000" viewBox="0,0,600,600" xmlns="http://www.w3.org/2000/svg" xmlns:inkscape="http://www.inkscape.org/namespaces/inkscape" xmlns:sodipodi="http://sodipodi.sourceforge.net/DTD/sodipodi-0.dtd" xmlns:xlink="http://www.w3.org/1999/xlink" xmlns:ns1="http://www.inkscape.org/namespaces/inkscape" xmlns:sketch="http://www.bohemiancoding.com/sketch/ns">
  <defs></defs>
  <g transform="matrix(0.9602,0,0,0.9602,-27.746,-13.986)">
    <g transform="matrix(2.1662,0,0,2.1662,216.7726,203.0247)">
      <svg width="99.04204807009214" height="108.14071935658097" viewBox="0.35900000000000176,-4.078719356580972,99.04204807009214,108.14071935658097">
        <defs>
          <linearGradient x1="0" y1="0.5" x2="1" y2="0.5" id="linearGradientSkkfo5qhd4">
            <stop offset="0%" stop-color="#3a3a3a"></stop>
            <stop offset="100%" stop-color="#1761a0"></stop>
          </linearGradient>
        </defs>
        <g></g>
        <g>
          <path d="M94.078,41.762c1.787-13.531-3.702-29.744-19.914-37.02C61.345-1.011,38.719-1.001,26.785,9.878   c-10.408,9.49-12.754,22.959-12.754,22.959s-1.074,5.004-1.074,6.665c0,1.588,1.788,2.213,1.583,3.029   c-0.204,0.816-2.207,3.151-3.738,5.703c-1.53,2.551-5.443,8.222-5.443,9.752s0.916,2.097,2.753,2.709   c1.836,0.612,3.265,1.122,3.571,1.836s-0.875,2.754-0.938,4.209c-0.054,1.241,0.4,1.379,1.33,1.74   c1.153,0.449,2.923,0.507,2.923,0.507s-3.943,0.745-3.551,2.359c0.406,1.675,2.781,2.015,2.992,3.327   c0.105,0.662-2.008,4.053-1.73,7.354c0.363,4.308,4.444,6.236,10.914,5.198c6.167-0.99,9.067-1.91,9.86,1.491   c0.499,2.141,0.446,5.753,1.364,9.836c0.038,0.163,0.077,0.338,0.114,0.51h47.327c-2.024-3.689-4.685-9.61-4.685-17.144   c0-5.169,0.514-12.842,4.221-16.923C86.471,59.879,92.643,52.634,94.078,41.762z M74.537,52.486c0,0-0.619,6.769-5.588,7.639   c-4.255,0.744-7.08-3.354-7.08-3.354l-1.398,6.613h-2.979c0,0-2.701-9.966-4.564-11.644c-1.864-1.677-4.752-2.142-4.752-2.142   s-3.912-0.28-6.428-2.794c-2.515-2.516-0.186-5.59-0.186-5.59s-3.167,0.187-9.595-1.21c-6.427-1.398-4.471-5.497-4.471-5.497   s-1.677,0.28-3.074-1.49c-0.993-1.258-1.717-4.335,0.093-7.918c1.622-3.209,4.469-4.323,4.469-4.323s-1.054-1.338,1.169-3.207   c1.161-0.976,3.211-0.947,3.211-0.947s0.501-2.151,3.587-3.546c3.496-1.579,5.822-0.273,5.822-0.273s0.934-2.046,3.635-2.978   c2.702-0.931,5.4,0.649,5.4,0.649s1.828-1.653,5.182-1.653c3.353,0,4.601,1.747,4.601,1.747s2.02-1.038,4.471-0.187   c2.316,0.805,2.986,3.05,2.986,3.05s1.673-1.187,4-0.255c2.329,0.932,3.262,3.447,3.262,3.447s1.605-0.235,3.202,1.183   c1.185,1.054,0.802,3.009,0.802,3.009s1.976,0.656,3.158,3.021c1.101,2.201-0.456,4.059-0.456,4.059s3.26,2.422,3.726,8.756   c0.568,7.728-4.377,9.222-4.377,9.222s0.978,2.452-0.746,5.123C79.273,54.631,74.537,52.486,74.537,52.486z" style="" stroke="none" fill="url('#linearGradientSkkfo5qhd4')"></path>
        </g>
      </svg>
    </g>
    <g transform="matrix(9.121,0,0,9.121,45.1277,0.2041)">
      <svg width="64.94859522934354" height="71.657" viewBox="17.28740477065645,14.172,64.94859522934354,71.657">
        <defs>
          <linearGradient x1="0" y1="0.5" x2="1" y2="0.5" id="linearGradientSkkfo5qhda">
            <stop offset="0%" stop-color="#1761a0"></stop>
            <stop offset="50%" stop-color="#419a1c"></stop>
            <stop offset="100%" stop-color="#650d88"></stop>
          </linearGradient>
        </defs>
        <g></g>
        <g>
          <path d="M73.356,47.583c0.332,0.139,0.697,0.217,1.08,0.217c1.546,0,2.8-1.254,2.8-2.8c0-1.067-0.604-1.983-1.481-2.456   c1.207-3.603,1.134-6.882-0.496-9.383c-1.864-2.859-5.441-4.37-10.343-4.37c-1.346,0-2.754,0.115-4.209,0.334   c-2.804-6.114-6.818-9.953-11.271-9.953c-1.979,0-3.869,0.766-5.606,2.144c-0.477-0.376-1.072-0.611-1.727-0.611   c-1.546,0-2.8,1.254-2.8,2.8c0,0.783,0.323,1.488,0.84,1.997c-0.71,1.092-1.372,2.304-1.978,3.624   c-1.455-0.219-2.864-0.334-4.209-0.334c-4.902,0-8.479,1.511-10.343,4.37c-2.71,4.158-1.128,10.462,3.516,16.839   c-4.645,6.376-6.227,12.681-3.516,16.838c1.865,2.859,5.442,4.371,10.345,4.371c1.345,0,2.754-0.115,4.208-0.334   c2.804,6.114,6.817,9.953,11.27,9.953c4.453,0,8.467-3.839,11.271-9.953c1.454,0.219,2.862,0.334,4.207,0.334   c0.001,0,0.001,0,0.002,0c4.901,0,8.478-1.511,10.343-4.371c2.71-4.157,1.129-10.462-3.516-16.838   C72.331,49.191,72.869,48.385,73.356,47.583z M64.916,29.791c4.548,0,7.835,1.354,9.505,3.916c1.477,2.265,1.546,5.242,0.448,8.537   c-0.142-0.022-0.285-0.043-0.433-0.043c-1.546,0-2.8,1.254-2.8,2.8c0,0.824,0.362,1.558,0.929,2.07   c-0.432,0.706-0.909,1.417-1.423,2.129c-1.88-2.447-4.202-4.892-6.901-7.218c-0.596-4.441-1.673-8.486-3.113-11.897   C62.442,29.894,63.712,29.791,64.916,29.791z M57.265,62.006c-2.554,1.666-5.196,3.109-7.83,4.306   c-1.606-0.729-3.215-1.549-4.805-2.458c0.17-0.361,0.272-0.761,0.272-1.187c0-1.546-1.254-2.8-2.8-2.8   c-0.867,0-1.632,0.402-2.146,1.021c-1.553-1.084-3.022-2.213-4.393-3.373c-0.3-2.402-0.461-4.92-0.461-7.515   c0-2.595,0.161-5.113,0.461-7.515c1.848-1.564,3.869-3.074,6.042-4.491c2.554-1.666,5.196-3.109,7.829-4.305   c2.633,1.196,5.275,2.64,7.829,4.305c2.174,1.417,4.196,2.928,6.044,4.492c0.301,2.401,0.461,4.919,0.461,7.514   s-0.161,5.113-0.461,7.514C61.46,59.078,59.439,60.588,57.265,62.006z M63.106,58.971c-0.612,4.032-1.627,7.693-2.944,10.786   c-3.007-0.53-6.231-1.512-9.495-2.9c2.391-1.138,4.79-2.478,7.145-4.013C59.694,61.616,61.461,60.316,63.106,58.971z    M42.103,65.467c0.757,0,1.441-0.303,1.945-0.792c1.382,0.796,2.771,1.521,4.157,2.181c-3.264,1.388-6.488,2.371-9.495,2.9   c-1.316-3.092-2.332-6.753-2.944-10.785c1.171,0.958,2.405,1.891,3.698,2.792c-0.098,0.285-0.162,0.585-0.162,0.903   C39.302,64.213,40.556,65.467,42.103,65.467z M34.454,56.55c-2.388-2.131-4.451-4.346-6.133-6.55   c1.682-2.205,3.745-4.418,6.133-6.55c-0.228,2.112-0.352,4.302-0.352,6.55C34.103,52.248,34.226,54.438,34.454,56.55z    M35.766,41.028c0.612-4.031,1.627-7.692,2.944-10.785c3.006,0.53,6.23,1.513,9.495,2.9c-2.391,1.138-4.79,2.478-7.144,4.013   C39.178,38.384,37.411,39.684,35.766,41.028z M50.666,33.144c3.265-1.387,6.489-2.37,9.496-2.9   c1.317,3.093,2.332,6.754,2.944,10.786c-1.645-1.345-3.413-2.646-5.296-3.874C55.456,35.621,53.057,34.282,50.666,33.144z    M64.418,43.451c2.388,2.131,4.45,4.345,6.132,6.549c-1.682,2.204-3.744,4.418-6.132,6.549c0.228-2.112,0.352-4.302,0.352-6.549   C64.77,47.753,64.646,45.563,64.418,43.451z M40.915,26.032c0.361,0.17,0.761,0.273,1.188,0.273c1.546,0,2.8-1.254,2.8-2.8   c0-0.547-0.163-1.053-0.434-1.484c1.548-1.194,3.221-1.849,4.967-1.849c4.041,0,7.693,3.502,10.301,9.118   c-3.28,0.592-6.77,1.708-10.301,3.287c-3.531-1.578-7.021-2.694-10.3-3.286C39.685,28.106,40.279,27.014,40.915,26.032z    M24.45,33.707c1.67-2.562,4.958-3.916,9.505-3.916c1.204,0,2.474,0.103,3.79,0.293c-1.44,3.411-2.518,7.456-3.113,11.896   c-2.7,2.326-5.022,4.771-6.902,7.219C23.448,43.269,21.981,37.494,24.45,33.707z M33.958,70.209c-4.549,0-7.836-1.354-9.507-3.917   c-2.469-3.787-1.002-9.562,3.279-15.492c1.88,2.448,4.203,4.893,6.902,7.219c0.596,4.44,1.674,8.485,3.113,11.896   C36.43,70.106,35.161,70.209,33.958,70.209z M49.436,79.828c-4.04,0-7.692-3.502-10.3-9.118c3.279-0.592,6.77-1.708,10.3-3.286   c3.531,1.578,7.021,2.694,10.301,3.286C57.128,76.326,53.476,79.828,49.436,79.828z M74.421,66.292   c-1.671,2.562-4.958,3.917-9.505,3.917c0,0-0.001,0-0.001,0c-1.204,0-2.473-0.103-3.787-0.293c1.44-3.411,2.518-7.456,3.113-11.896   c2.699-2.326,5.021-4.771,6.901-7.219C75.423,56.73,76.89,62.505,74.421,66.292z" style="" stroke="none" fill="url('#linearGradientSkkfo5qhda')"></path>
        </g>
      </svg>
    </g>
    <g transform="matrix(0.5,0,0,0.5,301.0479,520.25)">
      <svg width="153.80859375" height="185" style="overflow: visible;">
        <defs>
          <linearGradient x1="0" y1="0.5" x2="1" y2="0.5" id="linearGradientSkkfo5qhdy">
            <stop offset="0%" stop-color="#000000"></stop>
            <stop offset="100%" stop-color="#419a1c"></stop>
          </linearGradient>
        </defs>
        <g transform="matrix(1,0,0,1,0,93.75)">
          <path d="M 7.13 0L 7.13-83.4L 19.92-83.4Q 22.75-83.4  25.78-83.2Q 28.81-83.01  31.69-82.37Q 34.57-81.74  37.16-80.49Q 39.75-79.25  41.67-77.15Q 43.6-75.05  44.75-71.95Q 45.9-68.85  45.9-64.5L 45.9-64.5L 45.9-60.45Q 45.9-57.13  44.95-54.35Q 43.99-51.56  42.43-49.44Q 40.87-47.31  38.87-45.92Q 36.87-44.53  34.77-44.04L 34.77-44.04L 34.77-43.65Q 40.97-42.53  44.12-37.77Q 47.27-33.01  47.27-25.59L 47.27-25.59L 47.27-21.34Q 47.27-16.8  46.26-13.45Q 45.26-10.11  43.46-7.74Q 41.65-5.37  39.16-3.86Q 36.67-2.34  33.69-1.49Q 30.71-0.63  27.34-0.32Q 23.97 0  20.41 0L 20.41 0L 7.13 0ZM 19.53-47.71L 21.97-47.71Q 24.51-47.71  26.61-48.32Q 28.71-48.93  30.2-50.22Q 31.69-51.51  32.5-53.59Q 33.3-55.66  33.3-58.59L 33.3-58.59L 33.3-62.01Q 33.3-64.94  32.71-67.19Q 32.13-69.43  30.79-71Q 29.44-72.56  27.27-73.36Q 25.1-74.17  21.97-74.17L 21.97-74.17L 19.53-74.17L 19.53-47.71ZM 19.53-8.79L 23.14-8.79Q 25.68-8.79  27.76-9.45Q 29.83-10.11  31.32-11.5Q 32.81-12.89  33.62-15.04Q 34.42-17.19  34.42-20.12L 34.42-20.12L 34.42-26.61Q 34.42-29.54  33.84-31.81Q 33.25-34.08  31.91-35.62Q 30.57-37.16  28.42-37.96Q 26.27-38.77  23.14-38.77L 23.14-38.77L 19.53-38.77L 19.53-8.79ZM 58.25304687500002 0L 58.25304687500002-83.4L 70.90304687500002-83.4L 70.90304687500002 0L 58.25304687500002 0ZM 85.15734375000001 0L 85.15734375000001-83.4L 97.80734375000002-83.4L 97.80734375000002-9.96L 115.03734375000002-9.96L 115.03734375000002 0L 85.15734375000001 0ZM 123.04796875 0L 123.04796875-83.4L 135.69796875-83.4L 135.69796875-9.96L 152.92796875-9.96L 152.92796875 0L 123.04796875 0Z" data-textpath="BILL" data-text-anchor="middle" data-font-size="100" data-letterspacing="0" data-side="left" data-offset="0.5" data-dx="0" data-dy="0" data-xmlspace="preserve" data-href="" data-font="Fjalla One" data-font-src="/Content/clientfonts/fjallaone.woff" data-font-scale="contain" transform="translate(0,0)" data-x="0" data-y="0" fill="url('#linearGradientSkkfo5qhdy')"></path>
        </g>
      </svg>
    </g>
    <g transform="matrix(0.3341,0,0,0.2533,101.9845,143.7994)">
      <svg width="361" height="529" style="overflow: visible;">
        <defs>
          <linearGradient x1="0" y1="0.5" x2="1" y2="0.5" id="linearGradientSkkfo5qhd11">
            <stop offset="0%" stop-color="#000000"></stop>
            <stop offset="100%" stop-color="#000000"></stop>
          </linearGradient>
        </defs>
        <g>
          <path d="M 111.84022949583816 454.1342228371952L 30.167002071613652 469.8419541218493L 27.757110870553333 457.31159002502227Q 27.224517360601126 454.54234027948524  26.850551952463462 451.53891725341714Q 26.466766509767133 448.53738285681686  26.543392029669782 445.60004928200794Q 26.627948954663175 442.65100704317246  27.35836683721255 439.8832480730214Q 28.08878471976191 437.1154891028702  29.778555084678267 434.8353189088166Q 31.47814548415326 432.55326008529505  34.29534377396332 430.84036960546536Q 37.11443069324128 429.13729916019423  41.37632569169186 428.3176339711189L 41.37632569169186 428.3176339711189L 45.34361965338317 427.554627666081Q 48.59405109229364 426.9294913122009  51.49362046448941 427.33924423265927Q 54.40300987124383 427.7471085236497  56.779483394670756 428.8786444675997Q 59.154068288629745 430.00036037699107  60.886958951305445 431.70373642214713Q 62.6296696485398 433.4052238378352  63.5055749007076 435.36506821666353L 63.5055749007076 435.36506821666353L 63.88855624849464 435.2914116674148Q 63.82122710789068 429.0111038097676  67.89271387032008 425.0305139610941Q 71.95249196872291 421.04199270732994  79.2193175421179 419.6444069010724L 79.2193175421179 419.6444069010724L 83.38301219498206 418.84362800667617Q 87.83148785004683 417.98807885771043  91.29042230486614 418.3411687007587Q 94.75917679424408 418.69236991433905  97.41665825430837 420.01425958046644Q 100.07413971437266 421.33614924659395  102.02723367023857 423.4961548020405Q 103.97843899663658 425.6463403229285  105.37406488609207 428.40235708207223Q 106.7795108101062 431.1564852117482  107.71851138264375 434.3974693099465Q 108.66733198973994 437.6365647786768  109.33968408031788 441.1324970815533L 109.33968408031788 441.1324970815533L 111.84022949583816 454.1342228371952ZM 62.79009044856713 450.97105046702967L 62.33115348786363 448.5847820692797Q 61.853330232480985 446.1003133259433  60.85769593614155 444.15331246617137Q 59.86395026927005 442.2161316409581  58.31576002048581 440.99657969308157Q 56.76945840116949 439.78684777976366  54.583732260629475 439.3823712803723Q 52.39989474955736 438.98771481553945  49.53244465843393 439.5391946201708L 49.53244465843393 439.5391946201708L 46.18381287393704 440.18321726873006Q 43.31636278281361 440.7346970733614  41.228104180284845 441.7371321131343Q 39.13795694828818 442.72974711834866  37.85910790584073 444.34025794620146Q 36.58025886339328 445.9507687740543  36.20260006377171 448.2229865961542Q 35.81700985905941 450.50691308228073  36.40626225304908 453.5707638645769L 36.40626225304908 453.5707638645769L 36.865199213752575 455.9570322623269L 62.79009044856713 450.97105046702967ZM 100.90164457065626 443.6412795020492L 100.22173796220665 440.1060670609382Q 99.74391470682399 437.62159831760175  98.7048461260951 435.7135007088453Q 97.66577754536621 433.8054031000889  96.01938695099555 432.60473744689153Q 94.37488498609281 431.41389182825276  92.1204186036423 431.0226357351368Q 89.86784085065969 430.6411996765794  87.00039075953627 431.19267948121075L 87.00039075953627 431.19267948121075L 80.63700836553633 432.41651137642003Q 77.7695582744129 432.9679911810514  75.66165960276685 433.97420347976015Q 73.54205226709425 434.9724843733783  72.29266332832273 436.5773293128273Q 71.03345435499256 438.18406288174435  70.65201829643516 440.436640634727Q 70.27058223787776 442.68921838770956  70.85983463186744 445.75306917000586L 70.85983463186744 445.75306917000586L 71.53974124031706 449.2882816111169L 100.90164457065626 443.6412795020492ZM 26.004123937815663 410.41915001500075L 26.004123937815663 410.41915001500075Q 26.542573008629248 413.77624289398693  24.832010878714307 416.05590892209307Q 23.129738877646915 418.32411747387613  19.229586856471748 418.9496686002625L 19.229586856471748 418.9496686002625Q 17.06722409030121 419.29649314881596  15.525133947061661 419.0273129301457Q 13.97317000123683 418.75971638521315  12.93407876348374 417.9642357760059Q 11.894987525730642 417.1687551667986  11.263324515086865 415.8825585096018Q 10.643118980766033 414.60465198125246  10.365976076670805 412.8767365288331L 10.365976076670805 412.8767365288331Q 9.787935162415025 409.27279858521547  11.313690630526402 407.1037964525452Q 12.839446098637787 404.9347943198749  16.877831356006496 404.2870717611609L 16.877831356006496 404.2870717611609Q 20.629876338402866 403.68527574083987  23.027187844112525 405.24530700481887Q 25.4244993498222 406.8053382687979  26.004123937815663 410.41915001500075ZM 102.68733079584348 404.58136053875904L 36.48348446171819 415.19989294995065L 34.53239841688775 403.0353681649183L 100.73624475101303 392.4168357537267L 102.68733079584348 404.58136053875904ZM 97.36011717139021 362.8527319834642L 97.36011717139021 362.8527319834642Q 97.62324261792709 364.9865700746475  97.55626693692437 367.2215676715487Q 97.49051509520785 369.46649009678106  96.68189319602888 371.651880364941Q 95.87327129684991 373.8372706331009  94.11104438072455 375.88835724660197Q 92.35004130388542 377.94936868843416  89.28098941087731 379.69811694876876Q 86.21193751786922 381.44686520910346  81.57325386826662 382.80477315845405Q 76.92464539033296 384.1639049470909  70.35440903515462 384.9740865545672L 70.35440903515462 384.9740865545672L 59.91348963085309 386.2615654836685Q 53.4425015589856 387.0595086982826  48.72954924213359 386.8346076998871Q 44.01659692528158 386.6097067014917  40.7003126835433 385.618112617202Q 37.39395327013611 384.625294693626  35.30167527594179 383.01928323818424Q 33.21932211007854 381.4120479434562  31.973504544722914 379.4799924075434Q 30.727686979367284 377.5479368716306  30.151996497421905 375.4123384849957Q 29.566381187145453 373.27796393764703  29.309374937039685 371.1937499881192L 29.309374937039685 371.1937499881192Q 29.06583091908231 369.2187091502333  29.091749333433114 367.0593045480807Q 29.11644390849773 364.8899751175971  29.80963938556235 362.74904540586505Q 30.501611023340757 360.59819086580194  32.14473999949307 358.5617903237354Q 33.7767203080281 356.51668879262405  36.752777228197786 354.74918060087214Q 39.71890932003637 352.98289624840646  44.28567149274894 351.6137055173972Q 48.8524336654615 350.2445147863879  55.37304587898441 349.4404523753427L 55.37304587898441 349.4404523753427L 65.81396528328594 348.1529734462414Q 72.2948781834845 347.3538063923411  77.08097581651276 347.59991500072624Q 81.8658496102548 347.8360987807804  85.28505365316258 348.8452289572012Q 88.69310902845307 349.8456581445771  90.92433461928258 351.4345358500118Q 93.1555602101121 353.02341355544655  94.5168041975821 354.9110085349315Q 95.87927202433829 356.8085283427475  96.50594460126666 358.8673098953475Q 97.12269234986394 360.9273152872337  97.36011717139021 362.8527319834642ZM 87.93044053161451 363.9248320111053L 87.93044053161451 363.9248320111053Q 87.72728321010231 362.27731050814515  86.73423029500015 361.2511302570162Q 85.74987836894286 360.21380133827  83.72886809434598 359.75771201590646Q 81.71655880879402 359.29047402592573  78.5113757140189 359.3632842516345Q 75.30741645852999 359.44601930567444  70.61297265792673 360.0248952880556L 70.61297265792673 360.0248952880556L 54.23700591163632 362.0442301103152Q 49.542562111033064 362.62310609269633  46.39463123462751 363.3236281818359Q 43.24792419750816 364.03407509930656  41.36970077727478 364.9810580894848Q 39.50017834608629 365.91689241204574  38.76753497086585 367.16594552730766Q 38.0435925846903 368.4038499749523  38.24674990620249 370.0513714779125L 38.24674990620249 370.0513714779125Q 38.46092178129064 371.78821643585235  39.47001872115497 372.8627969893505Q 40.4890404893504 373.93615370356247  42.539691134899165 374.46919397400217Q 44.60026660877902 375.0010104051556  47.82774703878875 374.94560215753654Q 51.05522746879848 374.8901939099175  55.74967126940173 374.3113179275364L 55.74967126940173 374.3113179275364L 72.12563801569215 372.29198310527676Q 76.8200818162954 371.7131071228956  79.94449151818013 370.9852582273352Q 83.06890122006487 370.2574093317748  84.89885845197037 369.2458479004238Q 86.73874051220699 368.23306262978673  87.43671404528928 366.94798171905904Q 88.14461240670266 365.6616769690452  87.93044053161451 363.9248320111053ZM 16.586187360259018 333.19923268787875L 16.586187360259018 333.19923268787875Q 16.8522739905517 336.5888046232682  14.963517831855008 338.7231663950831Q 13.083948394643881 340.84677622994025  9.146063352059127 341.1559062857214L 9.146063352059127 341.1559062857214Q 6.962780252499481 341.32729737993935  5.447406533139024 340.9346875345819Q 3.9220634845568156 340.5428602969606  2.950476119666085 339.66620871714986Q 1.9788887547753369 338.78955713733905  1.4529596676092993 337.45662855888014Q 0.9377825174011534 336.1328867019067  0.8008261635740368 334.38825408810334L 0.8008261635740368 334.38825408810334Q 0.5151743398774755 330.7494489221706  2.210804776028734 328.71049393885255Q 3.906435212180007 326.6715389555345  7.983890863869018 326.35145239144714L 7.983890863869018 326.35145239144714Q 11.772235968127777 326.05406145170826  14.03599444847703 327.80225982221623Q 16.2997529288263 329.55045819272425  16.586187360259018 333.19923268787875ZM 93.49043025129178 333.5617590414532L 26.64607781956835 338.8091439123721L 25.68190508862545 326.5269303111964L 92.52625752034888 321.27954544027745L 93.49043025129178 333.5617590414532ZM 91.44928191535827 308.45072910496003L 24.408545816832195 309.5652708797631L 24.250631620551378 300.06658343851035L 31.391025113134035 298.82772074592367L 31.4410182049301 298.8268896185748Q 29.127065682083906 297.40515697070674  27.5593525758438 295.75098780870337Q 26.001638087962903 294.09665242123026  25.04184599599759 292.31236008526037Q 24.092052522391484 290.52790152382073  23.671022243535305 288.6646426839688Q 23.249825739209353 286.79138522575767  23.219074027302035 284.94164082930314L 23.219074027302035 284.94164082930314Q 23.121167225607927 279.05245461572645  27.17757344638825 275.7945766910622Q 31.243978285527785 272.5365325409282  39.47284119516044 272.39972897930807L 39.47284119516044 272.39972897930807L 90.83574370643986 271.54582874110326L 91.04053348519561 283.8641265596542L 40.11757018172159 284.71071287718917Q 35.68818224859004 284.78435076029695  33.981027936334726 286.1729198634201Q 32.2740398495492 287.5714875849024  32.31775714809852 290.2011242133755L 32.31775714809852 290.2011242133755Q 32.348508860005836 292.05086860983005  33.598593335327884 293.85033764389505Q 34.83884541776049 295.659971521789  37.01198615622885 297.0340382344377L 37.01198615622885 297.0340382344377L 91.24449213660252 296.1324312864091L 91.44928191535827 308.45072910496003ZM 91.57062129216916 257.1315839619079L 33.42443935266193 253.0394419973956L 33.01726104773533 258.8251317426202L 24.2788744670168 258.210152095869L 24.686052771943395 252.4244623506444L 19.877945087118803 252.0860831386192Q 14.431416464890134 251.70277390674002  11.088506788234508 250.34474044112798Q 7.7455971115788955 248.98670697551597  5.958659189582665 246.88607543644687Q 4.181696594733381 244.786145928938  3.6894127121993776 242.09494608890432Q 3.1978308612255795 239.3937709217237  3.4133545502125884 236.33134548761342L 3.4133545502125884 236.33134548761342Q 3.474431295951579 235.46349202582974  3.6514080390449877 234.37322635526863Q 3.81770742343123 233.29223398029427  4.114388092287896 232.21039268845578Q 4.4103667295843465 231.13852672376422  4.773364530668481 230.11147628858197Q 5.146337658899569 229.08512788495992  5.633545345716065 228.2873630888534L 5.633545345716065 228.2873630888534L 14.282153982112153 228.89602445156262Q 13.609545173479642 230.90375884399353  13.431931188744421 233.42751661216911L 13.431931188744421 233.42751661216911Q 13.346283338397793 234.64450652409565  13.65879965706462 235.75919641396052Q 13.960638617024287 236.8831595994121  14.810124767897616 237.77499662458789Q 15.649635591624008 238.66613161820348  17.0922864944805 239.24884799216886Q 18.54421069292371 239.84224172484136  20.72880733810334 239.99598663652915L 20.72880733810334 239.99598663652915L 25.536915022927932 240.33436584855437L 26.18980437393092 231.05731160190115L 34.92819095464945 231.67229124865236L 34.27530160364647 240.94934549530558L 92.4214835431537 245.04148745981783L 91.57062129216916 257.1315839619079ZM 97.57107514929686 212.3780819435483L 97.57107514929686 212.3780819435483Q 97.15911424146034 214.488245020283  96.40195654266567 216.59214906257102Q 95.6428827466253 218.70586781684386  94.19607643437982 220.5324907924047Q 92.74927012213435 222.35911376796554  90.4375980264451 223.7621719000512Q 88.12400983351009 225.17504474412164  84.66382450103902 225.88519787194122Q 81.20363916856792 226.59535099976085  76.3725659666437 226.44692014835286Q 71.53167805273468 226.29657319969914  65.03433871878873 225.0281168230118L 65.03433871878873 225.0281168230118L 54.70926171076586 223.01238252048145Q 48.310069496668035 221.76308711625163  43.899516203390256 220.08692493819228Q 39.4889629101125 218.4107627601329  36.644036728086334 216.43911496734083Q 33.808925258044965 214.46938327179447  32.31823739536418 212.2934352724029Q 30.8373642446682 210.1194033702571  30.252525176057453 207.89614826482574Q 29.667686107446713 205.6728931593944  29.783055332737042 203.46407222010214Q 29.88860984604257 201.2533351835641  30.290990267650336 199.19224566675348L 30.290990267650336 199.19224566675348Q 30.672293619554843 197.23911798177576  31.366965077705174 195.19433643715266Q 32.06355263310127 193.13974018054475  33.38683410979173 191.31956817398935Q 34.71203168372794 189.4895814554491  36.90592723559944 188.06353015641446Q 39.09192417273188 186.62574804814926  42.46952538907689 185.86890590916343Q 45.83731189343711 185.11014767293187  50.60351430595915 185.22553641964998Q 55.369716718481186 185.34092516636804  61.81798249250308 186.59980105682664L 61.81798249250308 186.59980105682664L 72.14305950052595 188.61553535935698Q 78.55206642660858 189.86674686083256  83.02557441204277 191.58576585556662Q 87.50099849472272 193.29497013831585  90.43832350485977 195.3152230395199Q 93.36774990025776 197.32374513149338  94.99584373072594 199.5265184923255Q 96.62393756119407 201.72929185315758  97.33230146535982 203.94609598958348Q 98.03874927227983 206.17271483799425  97.99568099961863 208.3243293768673Q 97.94279801497262 210.47402781849462  97.57107514929686 212.3780819435483ZM 88.27415835092145 210.47137324946704L 88.27415835092145 210.47137324946704Q 88.59223049371616 208.8421310599881  87.96660034903792 207.55846953058486Q 87.35270101359026 206.26690938644256  85.57295898375439 205.20624058458418Q 83.80494776314907 204.13767316798672  80.7353697518579 203.21236736307807Q 77.66387564332096 202.29687627015423  73.0215168745046 201.39056227291385L 73.0215168745046 201.39056227291385L 56.827242099563776 198.22900181742426Q 52.18488333074741 197.32268782018392  48.97496176900428 197.01187667582695Q 45.763124110015376 196.7108802434548  43.68376823257415 197.02833753971774Q 41.61614316436348 197.33789622124164  40.53209732643857 198.29797154186898Q 39.459782297744226 199.25014824775724  39.14171015494952 200.87939043723614L 39.14171015494952 200.87939043723614Q 38.80639313694304 202.59696503457835  39.43225750737733 203.93161622115142Q 40.06793658979645 205.26818350497024  41.85197926563593 206.4112021971986Q 43.64583665346022 207.55613698667275  46.73121189422954 208.5049044100425Q 49.816587134998834 209.45367183341233  54.4589459038152 210.35998583065268L 54.4589459038152 210.35998583065268L 70.65322067875601 213.52154628614227Q 75.29557944757238 214.42786028338264  78.49161987708317 214.70539509729363Q 81.68766030659393 214.98292991120468  83.74117001681617 214.58910524206505Q 85.80449443902324 214.19719667017117  86.86676052997669 213.1921142098673Q 87.93884133291498 212.18894784680924  88.27415835092145 210.47137324946704ZM 103.67318250387073 183.63578239815786L 41.79105754458959 157.82289587758612L 45.259724323864035 149.50734112914282L 51.96600144242197 151.14537263345107Q 49.244244748263846 147.79968279459789  48.51473305135238 144.61324078444466Q 47.78137155779358 141.43602802484463  48.8516150257606 138.87029637105195L 48.8516150257606 138.87029637105195Q 50.89585704551058 133.96956432729678  54.878591277640375 132.88959764437482Q 58.86132550977016 131.80963096145285  64.88802612101708 134.32354817218118L 64.88802612101708 134.32354817218118Q 65.6540539169336 134.64308129391233  66.65999092023134 135.1927091183503Q 67.67515717408227 135.74618673943561  68.73488871643846 136.42660503587933Q 69.79462025879464 137.10702333232305  70.81585383467721 137.87973413429887Q 71.84093720720713 138.6432156857215  72.65680713153017 139.3627685097623L 72.65680713153017 139.3627685097623L 69.35753140473972 147.2722362338643L 63.598479059535926 144.86996312590952Q 61.715711946680834 144.0846046098474  60.3973561608255 143.81639196677892Q 59.08437982887603 143.561258370911  58.16741948158193 143.65551186681586Q 57.259688384841034 143.7536151593681  56.741064161591204 144.16571819873872Q 56.22781939224722 144.59090028530989  55.96603322022651 145.21848932292826L 55.96603322022651 145.21848932292826Q 55.403962909711446 146.5659599036971  55.803366927993444 148.0761176537948Q 56.20277094627545 149.58627540389253  57.45221041859019 151.00676862986083L 57.45221041859019 151.00676862986083L 108.41613197342247 172.26534571660164L 103.67318250387073 183.63578239815786ZM 117.16508894315994 146.2980346753141L 71.64495693572287 97.06775860432805L 78.64953312837324 90.59106868112224L 84.30341595208562 95.11496180715099L 84.33736086782568 95.15167342241645Q 83.8546628926819 92.47908990364813  84.02064279164794 90.22818993404948Q 84.20075399681511 87.9778433043559  84.86896974444716 86.09335724321971Q 85.55131679828031 84.20942452198862  86.66690318948916 82.64674509109129Q 87.77514725764492 81.09085464334197  89.13347702246705 79.83489276095929L 89.13347702246705 79.83489276095929Q 92.03369462843864 77.15324441749357  95.32071329700257 76.70168238132122Q 98.61507428861962 76.24333136200087  102.2301554353512 78.07616749830603L 102.2301554353512 78.07616749830603Q 101.80855830853952 75.46966488701553  102.01416542658352 73.29108146813766Q 102.22711486768058 71.10570906611177  102.92137986809453 69.27885490959018Q 103.60885588536047 67.4446584300155  104.6792816584406 65.95097551040845Q 105.75649641466876 64.46463491385451  107.11482617949089 63.20867303147183L 107.11482617949089 63.20867303147183Q 111.41008516555007 59.23711788988336  116.54255829332058 60.0891270404878Q 121.68182040423909 60.948478514145364  127.26915353505501 66.99121038684058L 127.26915353505501 66.99121038684058L 162.14415996640537 104.70872391057742L 153.09841796499526 113.07275114893125L 118.52212679215754 75.6782998395305Q 117.03533948274236 74.07033109090321  115.76056404358702 73.19246573691872Q 114.48578860443169 72.3146003829342  113.34779288100296 72.10020417620962Q 112.22392846377531 71.88636130939007  111.15316260487779 72.30440493799775Q 110.0891857291283 72.72979088965849  108.98049494811131 73.75492734500867L 108.98049494811131 73.75492734500867Q 107.73230002908556 74.90905448017114  107.3185966973605 76.98041865706509Q 106.91223568868857 79.04499385081104  107.36375544761766 81.61020922330837L 107.36375544761766 81.61020922330837Q 107.69183999834269 81.90611550505238  107.99055525685532 82.22917771938846Q 108.28927051536796 82.55223993372452  108.58798577388059 82.8753021480606L 108.58798577388059 82.8753021480606L 144.15546848632843 121.34173262321289L 135.10972648491833 129.70575986156672L 100.5334353120806 92.31130855216597Q 99.04664800266542 90.7033398035387  97.77187256351009 89.82547444955419Q 96.49709712435475 88.94760909556969  95.3664437239791 88.72642390569708Q 94.24257930675147 88.51258103887753  93.17181344785396 88.9306246674852Q 92.10783657210446 89.35601061914595  90.99914579108747 90.38114707449613L 90.99914579108747 90.38114707449613Q 89.78032016427409 91.50811827706653  89.36038118930612 93.5580088247063Q 88.92631090813701 95.60734603244096  89.38738634973953 98.10924719698585L 89.38738634973953 98.10924719698585L 126.21083094457006 137.9340074369603L 117.16508894315994 146.2980346753141ZM 185.1244027206672 100.20105746605893L 185.1244027206672 100.20105746605893Q 182.1189983104374 101.00083514202362  179.4711690670773 100.42230225790468Q 176.8136761439415 99.8463410061843  174.66626801525885 98.1929692001868Q 172.51176783919908 96.55183270636357  170.93429513307962 93.92929960620103Q 169.35425079456155 91.2971028262628  168.46446598464587 87.95346962388501L 168.46446598464587 87.95346962388501Q 167.39981017162532 83.9527061967624  167.5600115087918 80.58835848411884Q 167.72021284595823 77.22401077147526  168.97014028269973 74.22159817443253Q 170.20783240726698 71.21209353001274  172.48701246565457 68.42214043695753Q 174.76362089164354 65.62252366412666  177.99552744953797 62.79634603329045L 177.99552744953797 62.79634603329045Q 179.54414639496497 61.42187182041316  181.53215134527503 59.909775157648944Q 183.52981997536074 58.39510686248613  185.09441133187443 57.275082805993314L 185.09441133187443 57.275082805993314L 182.81594502671456 48.713062524759955Q 182.3144767089875 46.82864496850657  181.7374872693878 45.243721252174964Q 181.16049782978803 43.65879753584334  180.30044934492474 42.604512657983335Q 179.44040086006146 41.55022778012331  178.1754828248871 41.152129344694785Q 176.91313642211134 40.76369458904195  175.0383825456336 41.2625912743704L 175.0383825456336 41.2625912743704Q 173.7627768152467 41.60204675098564  172.68791887819785 42.384785797643666Q 171.6156325735476 43.17718852407737  170.9984639854963 44.55214413569642Q 170.381295397445 45.927099747315516  170.34159764773517 47.9555287178905Q 170.29932826562674 49.97429400868984  171.03995839642363 52.75743378407947L 171.03995839642363 52.75743378407947L 171.79087505681494 55.57922827857173L 162.70701606769606 57.99656273325601Q 161.79320400183303 56.27361540141933  161.17428512778972 54.803329909634506Q 160.5624583011234 53.320809105675416  160.16385527934037 51.82293874044837L 160.16385527934037 51.82293874044837Q 159.19949312986523 48.19905882457646  159.7054776901283 45.08417846976741Q 160.21403388278992 41.97896179473402  161.94487559323997 39.50049715440395Q 163.67828893608862 37.031696193849555  166.53283058399057 35.23726258393442Q 169.3777085521169 33.445400606417884  173.09822526574538 32.455322132956766L 173.09822526574538 32.455322132956766Q 177.93972883335024 31.166934301258017  181.4212864029392 31.37872875264373Q 184.90027234012956 31.580859524253803  187.3768684310034 33.188022180200136Q 189.8438008421016 34.79775646854507  191.46810554809096 37.790703882399974Q 193.1046455662546 40.79074334363194  194.2438787188345 45.07175348424861L 194.2438787188345 45.07175348424861L 207.15347335980803 93.5834259580538L 198.30154268530492 95.93904123517166L 195.97245023585182 90.6087290152449Q 194.79000809129266 93.903623637956  192.02523287797084 96.502011218707Q 189.27012134442464 99.09782716705939  185.1244027206672 100.20105746605893ZM 187.96029273190499 89.62611406932339L 187.96029273190499 89.62611406932339Q 189.45816309713206 89.22751104754033  190.6897491594185 88.06157975832053Q 191.9142431743279 86.90788378127502  192.6087212005845 85.51235511046715L 192.6087212005845 85.51235511046715L 187.21086479592248 65.22829126136017Q 186.36411784145338 65.85719474767367  185.33368073812312 66.69020097578988Q 184.2910083226186 67.516115156529  183.1547331253276 68.72911914498958L 183.1547331253276 68.72911914498958Q 182.0925728840245 69.87066004298447  181.17583022292777 71.32533625896014Q 180.24685224965683 72.77292042755874  179.69451708826566 74.58593611129977Q 179.1421819268744 76.39895179504083  179.0721672050765 78.50788468603844Q 179.01181616305428 80.61424594463745  179.64958099790715 83.01083852900075L 179.64958099790715 83.01083852900075Q 180.63965947136828 86.7313552426292  182.70063709876516 88.60433981794463Q 184.7519510463864 90.47989602565869  187.96029273190499 89.62611406932339ZM 220.76368696282023 76.01586361131601L 219.13799470911465 34.457648723086734L 213.9319764458861 34.66130000084115L 213.5895608617923 25.907994821209307L 219.86476137869735 25.662518808868093L 221.6731087405572 8.188478640124789L 230.42641392018902 7.846063056030998L 231.106163578567 25.222772767651755L 241.80797847284293 24.804134536413795L 242.15039405693673 33.557439716045636L 231.4485791626608 33.9760779472836L 233.11609615095315 76.60347508918936Q 233.2017000469766 78.79180138409733  233.67375770201443 80.11436010503195Q 234.13582299954123 81.43730971133652  234.8945815005916 82.15820189265337Q 235.653730887012 82.88908643148119  236.63237081445783 83.09098713085798Q 237.62139398478465 83.30248930237579  238.69057623846112 83.26066456778898L 238.69057623846112 83.26066456778898Q 240.48920059044025 83.19030520119438  241.86093932818991 82.69630840428474Q 243.23267806593955 82.20231160737512  244.46122605346733 81.37365616490125L 244.46122605346733 81.37365616490125L 244.7278098757869 88.18844398740002Q 243.7098336055765 89.53926755592718  242.5032247599206 90.4171030152161Q 241.2966159142647 91.29493847450499  239.9975598766818 91.85614557640179Q 238.7084961966099 92.41696179292865  237.35696239714397 92.65997699595347Q 235.99582712553703 92.91337544185929  234.68682829159667 92.96458142532536L 234.68682829159667 92.96458142532536Q 232.10880005375986 93.06542985077765  229.69404640347403 92.47937114345282Q 227.2792927531882 91.89331243612799  225.35526573724985 90.03710122995037Q 223.43162960668147 88.19088238128373  222.2091707268232 84.8260949753611Q 220.97671948945393 81.46169845480843  220.76368696282023 76.01586361131601L 220.76368696282023 76.01586361131601ZM 265.12140530811746 16.598296366697305L 265.12140530811746 16.598296366697305Q 261.73084248077174 16.345148753986134  259.90897136545215 14.153417557154711Q 258.09632794194033 11.972403155735211  258.3904259037665 8.033366929848263L 258.3904259037665 8.033366929848263Q 258.5534827484246 5.849445579293224  259.17226083923606 4.411525666943536Q 259.79178348184956 2.9636335109839855  260.8061562869726 2.1368640072970706Q 261.82052909209574 1.310094503610145  263.2179976423317 0.9932638688834032Q 264.6047493971558 0.6856609259644237  266.34989202887783 0.8159574913304652L 266.34989202887783 0.8159574913304652Q 269.98976094646963 1.0877188990939324  271.7467451489523 3.074048809311808Q 273.50372935143497 5.060378719529703  273.19920766437946 9.139026355954403L 273.19920766437946 9.139026355954403Q 272.9162779795846 12.928478927693753  270.8437622244519 14.8996406269783Q 268.77124646931907 16.87080232626286  265.12140530811746 16.598296366697305ZM 253.0528688738087 92.5505473427794L 258.0450887068334 25.68665393879973L 270.3308928341567 26.603941758976674L 265.338673001132 93.46783516295633L 253.0528688738087 92.5505473427794ZM 293.4341542804931 98.08938669076144L 293.4341542804931 98.08938669076144Q 285.0836987330939 96.67136266031966  281.8518705761251 89.0629142794851Q 278.6315754528964 81.44628120972854  281.0189453081621 67.38754495165153L 281.0189453081621 67.38754495165153L 283.13844757798415 54.906226506542495Q 284.20656957494026 48.61627297733273  285.877007435911 44.27465607200406Q 287.55562998580376 39.94457220041548  289.58135504384217 37.154332427701476Q 291.61693896321174 34.36576682739651  293.8604856790526 32.92098375238492Q 296.1057065673024 31.466341816042274  298.32525496434886 30.87965202307819Q 300.5529880503174 30.304495263854157  302.6093984168952 30.379837179356347Q 304.675667644804 30.45685326726755  306.35167407108247 30.74146257680132L 306.35167407108247 30.74146257680132Q 309.7135457849704 31.31235536827788  312.34306916351443 32.67176950741661Q 314.9824514033896 34.03285781896439  316.6872855640727 36.17856061398701Q 318.4036527584958 38.31607872008763  319.04242529786524 41.24434947992995Q 319.6828720096437 44.16276137844123  319.05505735626036 47.8598343775849L 319.05505735626036 47.8598343775849Q 318.6633010125492 50.166807929050556  318.1651450985504 51.78626483966843Q 317.66698918455154 53.40572175028631  317.0213226968331 54.87841139397821L 317.0213226968331 54.87841139397821L 307.3300620084111 53.2326999159094L 307.7050766280321 51.024314977754244Q 308.5522078669973 46.03573114424306  307.8462836438427 43.0250549758112Q 307.15021828201907 40.01605297978837  304.4587491386425 39.55900391212531L 304.4587491386425 39.55900391212531Q 302.97006107765395 39.306203878362965  301.7486765399448 39.808816861725965Q 300.5256178298267 40.32128870642002  299.5015939204642 41.87173220202182Q 298.4660369773616 43.430360386545644  297.6306304880545 46.19958338183214Q 296.7853651374163 48.967132204709614  296.05877431190066 53.24587802238522L 296.05877431190066 53.24587802238522L 292.8711500451224 72.01714999670402Q 292.13786252997073 76.33533125970382  291.91965744033234 79.41222686060678Q 291.691593489363 82.48744828910071  292.0898492639974 84.50256425052089Q 292.4881050386317 86.51768021194107  293.54355894902585 87.58950904297416Q 294.58915399808893 88.65966370159822  296.3637490376779 88.96101473522222L 296.3637490376779 88.96101473522222Q 297.2806231414655 89.11671276926128  298.22688904182195 88.80067345869588Q 299.16162190843835 88.49281883705252  299.991443204053 87.54841605362567Q 300.8212644996676 86.6040132701988  301.52348050304664 84.91777702204186Q 302.2355553677566 83.23321494629391  302.67586271132944 80.64033441622783L 302.67586271132944 80.64033441622783L 303.0257647448151 78.57983239803842L 313.48601661705897 80.35612932401095L 313.05408013553125 82.8997155474218Q 311.4569196573241 92.3050692572433  306.57639986661843 95.89870621338267Q 301.6958800759128 99.49234316952203  293.4341542804931 98.08938669076144ZM 320.7569789907132 88.32410369357031L 320.7569789907132 88.32410369357031Q 321.30154162698875 86.19256632932529  322.2037407621445 84.31753653742214Q 323.11810398821166 82.43529322402824  323.7954768800066 81.35948377739687L 323.7954768800066 81.35948377739687L 332.1956718563722 83.50555562126455Q 331.2921929370969 87.04196988467106  331.03206992159255 89.51452645971743Q 330.78163571228936 91.98955831947411  331.2147262530705 93.60709737108488Q 331.65750560005284 95.22711170740598  332.848306725256 96.18157107281388Q 334.03663256574885 97.14571924442288  335.9647049997705 97.63830090178121L 335.9647049997705 97.63830090178121Q 338.65819312368006 98.32643005125665  340.27481592603516 97.12933744209651Q 341.88174992218904 95.92976954822603  342.38918328780943 93.9435642769977L 342.38918328780943 93.9435642769977Q 342.6540387518162 92.90686201347853  342.61316598888715 91.89526455537055Q 342.5747685106685 90.87397829106143  342.2966261621324 89.78112110279264Q 342.03064790450765 88.68105039303306  341.52740006127584 87.49971995311269Q 341.02662750275425 86.30870070699117  340.37663394499674 84.89377725504278L 340.37663394499674 84.89377725504278L 334.2854607263789 72.37650883015094Q 333.1223181865481 69.8190101630866  332.10493240501455 67.21617974764781Q 331.08507133877055 64.62303813841012  330.4802029850252 61.98110053985914Q 329.8753346312799 59.33916294130816  329.7899852388155 56.60288527242914Q 329.7143246525523 53.86908288826048  330.43710778797254 51.03995147753526L 330.43710778797254 51.03995147753526Q 331.40246882500645 47.2613170591009  333.4111755678242 44.812317830567245Q 335.4101935044408 42.36084331732326  338.079856607059 41.081859768359585Q 340.73983090347593 39.80040093468557  343.8476078232686 39.63450151695397Q 346.952909458351 39.47829090542347  350.1695931171207 40.30008542925747L 350.1695931171207 40.30008542925747Q 353.70600738052724 41.20356434853279  356.3173137367423 42.77896242965105Q 358.93109537766765 44.34467170456821  360.52040576468 46.567236100425994Q 362.12188024260377 48.782586974793  362.56345251243926 51.57890847464103Q 363.0025494975644 54.38491878069018  362.1461009877856 57.737245726275546L 362.1461009877856 57.737245726275546Q 361.5693596502756 59.99473757113505  360.6203424382636 62.01262417134453Q 359.6785387477424 64.04267486246549  358.9170061757958 65.44790371993473L 358.9170061757958 65.44790371993473L 350.66214329244684 63.3389611467222Q 351.4330185005649 60.11958987060183  351.8143577599033 57.657359099677365Q 352.1860082130406 55.192653044042586  351.96218250246454 53.44279532088761Q 351.726192700977 51.70015111922339  350.8149533340971 50.62101126904258Q 349.91587805812867 49.53465789737101  348.1234489109226 49.07673022595748L 348.1234489109226 49.07673022595748Q 346.5635511125433 48.6782093875922  345.4006093287965 48.90748303984227Q 344.2376675450499 49.13675669209233  343.3927577048179 49.77755881590211Q 342.557536670787 50.42083622442224  342.0434598629019 51.342261769756576Q 341.5293830550168 52.263687315090905  341.26452759101005 53.30038957861008L 341.26452759101005 53.30038957861008Q 340.6853109687897 55.56757022967069  341.2754003212458 57.78256335745189Q 341.8679649584122 59.98786767903198  343.08117748339794 62.712976001506135L 343.08117748339794 62.712976001506135L 349.75848422955755 76.32953851256926Q 350.46844891131144 77.87331639512303  351.3716923448343 80.0341382988897Q 352.27493577835713 82.19496020265638  352.94352453665067 84.70868036852282Q 353.6048997734534 87.2102364434778  353.7941384167794 90.02466155988648Q 353.98337706010534 92.83908667629518  353.26059392468505 95.6682180870204L 353.26059392468505 95.6682180870204Q 352.3793925678028 99.1174330946169  350.57888899198895 101.64026619918033Q 348.7759101314646 104.17278810994488  346.1466282078003 105.61690602960799Q 343.51013276264524 107.04885985835966  340.1518605031326 107.34686561499522Q 336.7838994374188 107.64239608692044  332.8211777011633 106.63000464039001L 332.8211777011633 106.63000464039001Q 329.5657388175891 105.79830897771465  326.873809729134 104.33648895365913Q 324.18435592538935 102.86498012340252  322.4810428160338 100.64425401433431Q 320.78741851287924 98.42600318997644  320.26465921985573 95.3818739677591Q 319.73221112063106 92.3352694608314  320.7569789907132 88.32410369357031Z" data-textpath="Bioinformatics" data-text-anchor="middle" data-font-size="100" data-letterspacing="0" data-side="left" data-offset="0.5" data-dx="0" data-dy="0" data-xmlspace="preserve" data-href="" data-font="Fjalla One" data-font-src="/Content/clientfonts/fjallaone.woff" data-font-scale="contain" transform="translate(0,0)" data-x="0" data-y="0" fill="url('#linearGradientSkkfo5qhd11')"></path>
        </g>
      </svg>
    </g>
    <g transform="matrix(0.3144,0,0,0.3144,296.3812,69.9578)">
      <svg width="334" height="232" style="overflow: visible;">
        <defs>
          <linearGradient x1="0" y1="0.5" x2="1" y2="0.5" id="linearGradientSkkfo5qhd14">
            <stop offset="0%" stop-color="#000000"></stop>
            <stop offset="100%" stop-color="#000000"></stop>
          </linearGradient>
        </defs>
        <g>
          <path d="M 54.90645367150497 65.68984403748101L 17.469508920708844-8.835555443003765L 45.09037340442328-22.71056698073888L 49.56126033149678-13.810411359328459L 33.24430835891103-5.613785326360386L 44.443969888076055 16.681283223257054L 57.052523685074135 10.347526743236273L 61.52341061214763 19.247682364646682L 48.91485681514955 25.581438844667463L 61.73947925556017 51.111302911303554L 78.49429028984181 42.694723605818815L 82.9651772169153 51.59487922722922L 54.90645367150497 65.68984403748101ZM 106.44374920813175 46.11120479452501L 106.44374920813175 46.11120479452501Q 98.16095080975299 47.97543404325336  92.26737848974393 42.14730352748562Q 86.37380616973486 36.31917301171789  83.23162471516446 22.358413873814477L 83.23162471516446 22.358413873814477L 80.44516191582845 9.978118034541634Q 79.03985364823582 3.734312410322069  78.94367871817735-0.9283639008567626Q 78.84969958228703-5.581284265747753  79.66166317221182-8.941584122700466Q 80.48338270842447-12.304079773821293  82.01762132898885-14.504673297207358Q 83.55185994955325-16.70526682059342  85.39200822402951-18.093198493242344Q 87.23215649850577-19.481130165891273  89.17283904497454-20.194678520126295Q 91.1135215914433-20.90822687436132  92.78178840666446-21.283707677108723L 92.78178840666446-21.283707677108723Q 96.10856609081895-22.032473488435425  99.0790721058647-21.768287919985937Q 102.0376263804545-21.511662503656176  104.4394257022271-20.17646213744416Q 106.8412250239997-18.841261771232148  108.54432178697365-16.37503765004049Q 110.2593702904036-13.901253376729096  111.08498889761427-10.233017572500108L 111.08498889761427-10.233017572500108Q 111.59880473295281-7.950126141144835  111.75526312903145-6.253063746800855Q 111.90952573094197-4.565757298744721  111.8715877159418-2.958193705284785L 111.8715877159418-2.958193705284785L 102.24246872984068-0.790944861356774L 101.75061083618326-2.9762768298336155Q 100.63514739878161-7.932297544057896  98.84619265844785-10.461198676375506Q 97.04967776599433-12.978148068237154  94.38630442941316-12.37869626034217L 94.38630442941316-12.37869626034217Q 92.90340059366102-12.04493554678892  91.96444020119056-11.116090359811201Q 91.0276756028882-10.177489226545633  90.66170448775952-8.342342054547842Q 90.29573337263085-6.507194882550051  90.57690802668519-3.6184337615991726Q 90.84832673445167-0.7274768464801689  91.80349719758104 3.516359788731563L 91.80349719758104 3.516359788731563L 95.99526826450969 22.14046125222396Q 96.9592219043115 26.42332167258707  97.9184489504379 29.36447509836744Q 98.88743194285216 32.303432729979704  100.02120850214249 34.01628144297329Q 101.15718085560093 35.73888610225472  102.54063618951177 36.32952248707506Q 103.92409152342262 36.920158871895396  105.6899178015222 36.522720127466854L 105.6899178015222 36.522720127466854Q 106.5972208062916 36.3185112698323  107.35473754788858 35.676507853797546Q 108.10030254902958 35.02694428564304  108.5092450280391 33.83813561774834Q 108.91599171288048 32.639571003565806  108.93489009504569 30.810789209268975Q 108.94403253092304 28.98420320914025  108.36434287054108 26.40863338914968L 108.36434287054108 26.40863338914968L 107.90322609523726 24.359884668702637L 118.29330889179013 22.021363879661774L 118.86201958133152 24.548153968213132Q 120.96339460021613 33.88459456567894  117.7961913719241 39.07676402657836Q 114.63874408991992 44.26673769330968  106.44374920813175 46.11120479452501ZM 149.75099318527774 43.1541148862029L 149.75099318527774 43.1541148862029Q 147.60850327426056 42.97456828726676  145.4246512934141 42.45036362708812Q 143.24079931256765 41.92615896690949  141.25825573672358 40.67623058100914Q 139.28484212977293 39.437102364922545  137.62825453010353 37.291265109998115Q 135.97166693043414 35.14542785507369  134.88036537993042 31.762476344060246Q 133.7882287289665 28.38948990240037  133.4101313393485 23.56104891550159Q 133.03286905019067 18.722642859249245  133.58737575574227 12.10583680847986L 133.58737575574227 12.10583680847986L 134.46757164075942 1.6026537098188243Q 135.0145624421695-4.924466716768448  136.21088987424687-9.500545898257679Q 137.39725223697064-14.077460180207089  139.0479588234501-17.130273270678458Q 140.6978303094694-20.173121291796257  142.7083320957447-21.891225644675846Q 144.71883388202-23.609329997555427  146.86511328422546-24.432971137657468Q 149.0213577557845-25.25577717729935  151.23043115894131-25.391772395836732Q 153.44946963145176-25.52693251391394  155.5421341957011-25.351561417278646L 155.5421341957011-25.351561417278646Q 157.53514806641476-25.18454132524503  159.65258496362694-24.706042645701842Q 161.77085696129927-24.237509035512232  163.73436163506477-23.119631852588782Q 165.69786630883033-22.00175466966533  167.36447511402176-19.975498246983726Q 169.03108391921316-17.94924182430212  170.1506666130257-14.66427080590403Q 171.281049476652-11.38842975639933  171.6849227081983-6.628074054055192Q 172.09876100909815-1.8668832512508846  171.54759470538724 4.710062522104224L 171.54759470538724 4.710062522104224L 170.6673988203701 15.21324562076526Q 170.12040801896 21.740366047352527  168.89830474495434 26.384530513396406Q 167.6753663704885 31.03866004879385  165.98724867180684 34.17865346206683Q 164.29913097312513 37.318646875339816  162.2860677493009 39.1870623689831Q 160.26387455658323 41.04467769281264  158.1266689871027 41.99953493543141Q 155.9902985180824 42.944427108696615  153.84680509809968 43.13609337722301Q 151.69418170922359 43.316959475935676  149.75099318527774 43.1541148862029ZM 150.64565951689346 33.675719866207515L 150.64565951689346 33.675719866207515Q 152.2998610295858 33.81434654259541  153.51682754436044 33.06335220046142Q 154.72466409024167 32.30155768851371  155.5950286040778 30.417661297239817Q 156.46539311791392 28.53376490596592  157.05150748448193 25.37166592754943Q 157.62765678169632 22.20873184867277  158.023494399816 17.485288975081374L 158.023494399816 17.485288975081374L 159.40558566139416 0.9930991949257564Q 159.8014232795138-3.730343678665635  159.76140847772731-6.96498412477985Q 159.71142860658722-10.200459671354244  159.16925857359718-12.232835536032704Q 158.62708854060708-14.265211400711166  157.5645594747951-15.237338956284349Q 156.49123023916937-16.200336542964116  154.83702872647703-16.338963219352017L 154.83702872647703-16.338963219352017Q 153.08317652024897-16.4859409003416  151.81471445778618-15.719191921801325Q 150.55538236421674-14.941642773447306  149.61275706352512-13.033696877333886Q 148.6701317628335-11.125750981220467  148.0524519872845-7.946227165477337Q 147.44473728108906-4.765868249274046  147.0488996629694-0.042425375682654476L 147.0488996629694-0.042425375682654476L 145.66680840139125 16.449764404472965Q 145.27097078327157 21.17320727806436  145.34255099403913 24.390422886851944Q 145.4240962741602 27.6084735960997  146.03852709400576 29.61679995593864Q 146.65295791385134 31.62512631577757  147.76698252735153 32.581499234944445Q 148.8918073106654 33.52874218521793  150.64565951689346 33.675719866207515ZM 178.9209560322792 47.80511510616256L 207.07030591261514-36.43624350891694L 218.79315203378587-32.519040575783045L 190.64380215344994 51.722318039296454L 178.9209560322792 47.80511510616256ZM 217.14393461529025 65.28212985363407L 217.14393461529025 65.28212985363407Q 215.27723919705042 64.21538329726634  213.51846245317722 62.81870711245802Q 211.759685709304 61.42203092764968  210.48962050508925 59.452326793257164Q 209.22327599325533 57.49626657502562  208.62673668970024 54.85183074496394Q 208.03019738614515 52.20739491490224  208.46813040098124 48.67985828511136Q 208.90110180392728 45.161003959591326  210.59553255425783 40.62385679068286Q 212.29492491647846 36.0780273175035  215.58943521149322 30.312977281637217L 215.58943521149322 30.312977281637217L 220.81897414364016 21.16182858012661Q 224.0688299316442 15.47491928269828  227.08420771836415 11.830856055563515Q 230.09090320081322 8.181831216538669  232.87553607551217 6.110522511119356Q 235.65520733832105 4.047896109970921  238.2028989680408 3.3384827186002752Q 240.7505905977605 2.6290693272296153  243.04398877084157 2.787892561388418Q 245.34606924819343 2.9516774074372734  247.40626546399946 3.7604366746970754Q 249.47514398407634 4.574157553846973  251.29842788096175 5.616096050764298L 251.29842788096175 5.616096050764298Q 253.03488873513834 6.608418428780794  254.75273579667572 7.935634113275015Q 256.47554447010316 9.254167493498343  257.78406371607633 11.096116836699139Q 259.0925829620495 12.938066179899934  259.74866160828554 15.478314358711032Q 260.4047402545216 18.018562537522115  260.0337879671281 21.469199348384336Q 259.67647959589556 24.916115466865776  258.03414473733733 29.40240972965826Q 256.40049218305006 33.8936656043408  253.1258283355956 39.62398642312354L 253.1258283355956 39.62398642312354L 247.89628940344866 48.77513512463415Q 244.64643361544464 54.462044422062476  241.57895993695232 58.15696055531326Q 238.50652464656994 61.86055899283492  235.6511903520476 63.99512360102193Q 232.7958560575252 66.12968820920895  230.18242255372513 66.97429777653292Q 227.56526835754426 67.80526342769593  225.2247338384339 67.76923337283878Q 222.8891609312137 67.72452101371077  220.86493278585345 66.99390455103594Q 218.83698394811245 66.24964417220016  217.14393461529025 65.28212985363407ZM 221.9542121773576 57.06619230665435L 221.9542121773576 57.06619230665435Q 223.39547468632418 57.88981988040805  224.8156766881327 57.72240938474246Q 226.23215799756045 57.54135497291595  227.81611591935925 56.20058008428963Q 229.40007384115802 54.85980519566331  231.26562338265268 52.240239409463406Q 233.12249061987643 49.61571201137343  235.4742946557755 45.50029978697491L 235.4742946557755 45.50029978697491L 243.68576233386204 31.131086218663654Q 246.03756636976112 27.015673994265143  247.3660539659703 24.066162050448284Q 248.68585925790865 21.111688494741344  249.0518148089123 19.040317804910657Q 249.41777035991592 16.968947115079985  248.86460951936252 15.639280583772873Q 248.29780476264818 14.313334744846571  246.8565422536816 13.489707171092874L 246.8565422536816 13.489707171092874Q 245.3284567020062 12.616463478438362  243.85491995506308 12.776430523195287Q 242.38510390050075 12.950041484113171  240.72548501313557 14.28213200232156Q 239.06586612577036 15.61422252052995  237.16434644768287 18.23626807960136Q 235.2715090738663 20.863275250562864  232.91970503796722 24.978687474961376L 232.91970503796722 24.978687474961376L 224.70823735988068 39.34790104327263Q 222.3564333239816 43.463313267671154  221.06391586436519 46.41034543861648Q 219.78008070901973 49.36233922145192  219.48978612358252 51.44239428170054Q 219.19949153814528 53.522449341949134  219.80598712383326 54.85955932416488Q 220.4261266256822 56.19294861399984  221.9542121773576 57.06619230665435ZM 240.28187619698832 84.9377362063514L 246.87387386236097 90.67647881947859Q 244.01763468992354 93.95739298931508  244.05005797798088 96.37214944295415Q 244.0759151989751 98.79444822801811  246.6176808891703 101.00721282827426L 246.6176808891703 101.00721282827426Q 247.65098029438317 101.90676401591547  248.87708887057113 102.41731054601658Q 250.10417371112095 102.94196547460571  251.55050490485067 102.74265145592058Q 252.98929376715543 102.5367713701724  254.70713206709988 101.446848631973Q 256.43251269846917 100.36349196083667  258.45486135389615 98.04045388196393L 258.45486135389615 98.04045388196393L 265.4148924407552 90.04558257155774Q 262.7511610056589 90.57721669544334  259.7714381760435 90.02499223141724Q 256.7917153464281 89.47276776739115  253.88037541641228 86.93826588104439L 253.88037541641228 86.93826588104439Q 253.0356342968222 86.20286636998001  252.03365339562325 85.03889288504462Q 251.03921482584929 83.88148546717233  250.33705269735833 82.23604681887421Q 249.63489056886743 80.5906081705761  249.49474919818516 78.36050494511248Q 249.36215015892782 76.13696778671193  250.2016916979926 73.31456278314056Q 251.04779930412047 70.48461544814425  253.12070714224623 66.94603478711124Q 255.20115731179692 63.414020193141326  258.9503816048125 59.107348949516876L 258.9503816048125 59.107348949516876L 270.5526221052653 45.78004932169827Q 274.14426078876704 41.654394032271696  277.2313053978561 39.25059379483628Q 280.31932627130686 36.86090195588886  282.9401020744824 35.70849829853189Q 285.55431181059487 34.56363697259984  287.71875436542774 34.4989189161667Q 289.86908852177265 34.435177124095404  291.6050519722518 34.93879493414637Q 293.34101542273095 35.4424127441973  294.64237439921556 36.32341490896363Q 295.95029944276325 37.196874742305  296.87046387660246 37.997934924000106L 296.87046387660246 37.997934924000106Q 298.71079274428087 39.60005528739029  299.70852276012744 41.317185106442665Q 300.7128188430371 43.02677259407011  301.07176586947696 44.73140071545316Q 301.43825522734176 46.442594903899334  301.3031405232323 48.07509115710586Q 301.17556815054775 49.71415347737549  300.82172583511596 51.1562337857529L 300.82172583511596 51.1562337857529L 306.0404438830755 46.882548966314175L 313.2886243824155 53.19253941392884L 270.89809542320603 101.88583109315738Q 267.2145318008212 106.11707902253272  263.43964002584596 108.82364365084375Q 259.6713143179338 111.52266594772983  255.8354366300203 112.42601657919437Q 252.0071012735317 113.33593327772196  248.21431848132727 112.30128421105343Q 244.4215356891229 111.2666351443849  240.6956239652166 108.02299801522605L 240.6956239652166 108.02299801522605Q 238.19156993214597 105.8430637502853  236.36906478136834 103.47420854673467Q 234.53999356352756 101.11289567460895  233.86656697387008 98.55111960548382Q 233.18559805278767 95.9827774692956  233.9152011970341 93.21050777608288Q 234.6382382742174 90.44578041429506  237.23183476413186 87.46655950145502L 237.23183476413186 87.46655950145502Q 237.68489339148402 86.94613863313613  238.46776720329126 86.2753118337413Q 239.2496647507367 85.59037663585845  240.28187619698832 84.9377362063514L 240.28187619698832 84.9377362063514ZM 263.33188079423746 82.47800287389539L 263.33188079423746 82.47800287389539Q 264.25204522807667 83.2790630555905  265.24434153009236 83.58606150673627Q 266.230071765045 83.90060228930699  267.25634758069043 83.87920251778179Q 268.2760573292728 83.8653450776815  269.2762417906184 83.56931966782143Q 270.27642625196404 83.27329425796141  271.1812214144015 82.82793405090455L 271.1812214144015 82.82793405090455L 295.3180839382636 55.10232373292993Q 295.9626908636771 52.94550155395713  295.7466854813234 50.84823150105639Q 295.5382224303948 48.75752751521874  293.87890951691423 47.31299276134233L 293.87890951691423 47.31299276134233Q 292.8456101117014 46.41344157370112  291.6856977730837 46.04007397103254Q 290.51921936740297 45.67424869978882  289.0133528726833 46.13993754449176Q 287.5009203109006 46.613168720619626  285.5902728399811 48.09209611635917Q 283.6937337675496 49.57004724773681  281.22489255183353 52.405963863503544L 281.22489255183353 52.405963863503544L 266.70075220831257 69.08960097540775Q 264.23191099259657 71.92551759117447  263.00300214300455 74.03771621805467Q 261.78820169190055 76.148938580573  261.514664012527 77.72722155202105Q 261.2476924002165 79.29796219204422  261.77264876243964 80.4311527399052Q 262.29858138902455 81.57845168625418  263.33188079423746 82.47800287389539ZM 266.5877404625626 119.99446959824336L 266.5877404625626 119.99446959824336Q 268.1202650466855 122.34646203000388  270.08644265221517 123.75011641179229Q 272.0460499952078 125.14623211662811  274.3334263829726 125.38119862636063Q 276.61983435632186 125.63027407558266  279.2067619098798 124.70215456138057Q 281.7936894634377 123.77403504717847  284.5835510735657 121.54153147577387L 284.5835510735657 121.54153147577387L 325.107765345078 65.1052722298196L 333.3534448289582 74.56631180531647L 309.9537737645465 104.35164198776259L 301.62101637750067 114.33328786049488L 301.87725661644197 114.62729626164575L 312.48989510381165 107.26157129146124L 344.29293195299044 87.11820893137403L 352.2823711979293 96.28524010571999L 290.4116850552091 131.42491421105296Q 286.1594696711726 133.89725405981227  282.48435080901436 135.1901196170179Q 278.8167706238087 136.47641491168656  275.6155609117686 136.4409694671181Q 272.413382785313 136.41963296203915  269.5911933046269 134.9926618568289Q 266.76146514698826 133.57226101415566  264.1924924950383 130.62463832569406L 264.1924924950383 130.62463832569406Q 262.10971927082323 128.23487773172394  260.84811069676937 124.93046495395635L 260.84811069676937 124.93046495395635L 266.5877404625626 119.99446959824336Z" data-textpath="Ecology" data-text-anchor="middle" data-font-size="100" data-letterspacing="0" data-side="left" data-offset="0.5" data-dx="0" data-dy="0" data-xmlspace="preserve" data-href="" data-font="Fjalla One" data-font-src="/Content/clientfonts/fjallaone.woff" data-font-scale="contain" transform="translate(0,0)" data-x="0" data-y="0" fill="url('#linearGradientSkkfo5qhd14')"></path>
        </g>
      </svg>
    </g>
    <g transform="matrix(0.317,0,0,0.317,453.5666,146.2072)">
      <svg width="372" height="390" style="overflow: visible;">
        <defs>
          <linearGradient x1="0" y1="0.5" x2="1" y2="0.5" id="linearGradientSkkfo5qhd17">
            <stop offset="0%" stop-color="#000000"></stop>
            <stop offset="100%" stop-color="#000000"></stop>
          </linearGradient>
        </defs>
        <g>
          <path d="M 12.617879903744939 95.52949325388732L-0.7335908761907879 19.85833740165705L 14.235195809830817 17.217234384282985L 26.67046222295871 45.22252226415548Q 28.68276093076443 49.89393039346333  30.12910997248527 54.17778081679901Q 31.56734869600305 58.47321669388691  32.87584235133166 62.26351277123559L 32.87584235133166 62.26351277123559L 33.23036624652691 62.200960331350416Q 33.162706224381665 58.19173071440362  33.053932107846066 53.66172318774631Q 32.937047673107415 49.14330111484123  33.229154284070816 44.06530212627974L 33.229154284070816 44.06530212627974L 35.54602106545631 13.457137720074122L 50.21937117214854 10.868161735937706L 63.570841952084265 86.53931758816798L 52.846494122428 88.43152889469452L 48.429596839424796 63.39820273951892Q 47.413119691290696 57.63718944259614  46.58315983876717 52.30021776914693Q 45.754937554018234 46.97309398167538  45.14508129972741 42.48072541385925Q 44.536962613211166 37.99820473202077  44.1622655406895 34.550872124939794Q 43.77598301441561 31.09542919965576  43.60225627154641 29.07488001222872L 43.60225627154641 29.07488001222872L 42.76518596344652 29.22257327306872L 40.04743030073416 80.63688552323691L 32.779690449231566 81.919210540883L 12.551871784029231 34.55343120550532L 11.704953589951689 34.7028620341199Q 12.233204228016135 36.660858781661766  13.06264162328409 40.038111157089325Q 13.880493564799817 43.40725321431383  14.843136146511306 47.82722145626714Q 15.807516295997385 52.257037584198095  16.852392072254528 57.54593488062871Q 17.908853302263907 62.842942495262385  18.925330450398004 68.60395579218518L 18.925330450398004 68.60395579218518L 23.342227733401206 93.63728194736078L 12.617879903744939 95.52949325388732ZM 75.42849130414317 14.492422884373806L 75.42849130414317 14.492422884373806Q 72.29217669886131 14.785732783108493  70.30409787656876 13.073411961430534Q 68.31601905427621 11.361091139752581  67.97615202875824 7.726948819346634L 67.97615202875824 7.726948819346634Q 67.78806123655377 5.715724850245247  68.12845276138422 4.307913211628928Q 68.4688442862147 2.900101573012593  69.2668050918372 1.9818104684655156Q 70.06569703999537 1.073475918220927  71.28483946575281 0.577802895232737Q 72.50398189151025 0.0821298722445345  74.11694368851235-0.06871521853330531L 74.11694368851235-0.06871521853330531Q 77.4723024884488-0.3825102530526392  79.38388141928449 1.156179446394642Q 81.28550379581769 2.6958002883775753  81.63654453176365 6.449421260413323L 81.63654453176365 6.449421260413323Q 81.9633755617823 9.944171820584518  80.37361283293096 12.061399835219504Q 78.7938066583821 14.177696707318805  75.42849130414317 14.492422884373806ZM 76.1575011150299 85.54322685375638L 70.38907310658102 23.862372949879997L 81.7196319028056 22.802732744292456L 87.48805991125448 84.48358664816884L 76.1575011150299 85.54322685375638ZM 113.78445454102908 83.87370745091395L 113.78445454102908 83.87370745091395Q 105.95564533965532 84.010259596577  101.73413370309595 77.65291427778284Q 97.50262358735223 71.29574335508788  97.27276952862438 58.11774779006788L 97.27276952862438 58.11774779006788L 97.06872609257614 46.419527144336946Q 96.96600679015528 40.53042290473393  97.74245676307049 36.30623949967681Q 98.52890521517011 32.08188169852051  99.89898637108467 29.20755088488618Q 101.25889465171568 26.323395988166645  103.04949371470967 24.621909874322338Q 104.85026565298723 22.93024784356322  106.7646252788452 22.016723228194305Q 108.68915777998674 21.113022695910583  110.57451044335593 20.830099853554692Q 112.44986462754073 20.547351407297988  114.02962433867363 20.519796823626514L 114.02962433867363 20.519796823626514Q 117.17914528175503 20.464862052382756  119.8032232251121 21.249218442799062Q 122.42747556456837 22.043573312399754  124.34648667508056 23.69035695263025Q 126.26567218169191 25.34713907204513  127.34016093907536 27.888786945031587Q 128.4248225717424 30.440258901103242  128.48516362206092 33.89973269890059L 128.48516362206092 33.89973269890059Q 128.52283317948522 36.05940420272784  128.33989651198704 37.612830794390504Q 128.16713271977244 39.17608146913836  127.83230050741743 40.62214073126058L 127.83230050741743 40.62214073126058L 118.74368292881108 40.78066678542114L 118.70758293627947 38.710981594253354Q 118.62596556186017 34.03169333596098  117.48026667749171 31.42127688137813Q 116.33439339702407 28.800861947610894  113.81477664255895 28.844809764605902L 113.81477664255895 28.844809764605902Q 112.41498955674498 28.869225218492016  111.39665634329958 29.54708764287767Q 110.37814873375501 30.214951588078932  109.70563537842034 31.7969205469705Q 109.03329641918482 33.38888798504645  108.73956309320015 36.04441443628093Q 108.45600264249906 38.70976497060061  108.52576108217367 42.70915664435478L 108.52576108217367 42.70915664435478L 108.83252382064278 60.296481529688734Q 108.90315424081332 64.34586559936483  109.22246727486151 67.17072651386786Q 109.54195470500889 70.0055859075553  110.24289531601794 71.77363066373039Q 110.95366001011215 73.53150254462193  112.08761576279744 74.32184699544825Q 113.2215715154827 75.1121914462746  114.89131753927506 75.08306729771044L 114.89131753927506 75.08306729771044Q 115.74118826994783 75.06824362927958  116.54356605161803 74.6241829403169Q 117.34611822938741 74.1901207305386  117.93876024581544 73.18963312923407Q 118.53140226224349 72.18914552792953  118.88274351098356 70.54276788992122Q 119.23391036362442 68.88639177272854  119.1915321115221 66.4567613309229L 119.1915321115221 66.4567613309229L 119.1578736643791 64.5270548483365L 128.96638174426118 64.35597227503452L 129.00788801586756 66.73561032091824Q 129.1617053753501 75.55426896154619  125.34257860059635 79.65149615543707Q 121.5232774297434 83.73872487014357  113.78445454102908 83.87370745091395ZM 138.5294541966361 83.40270998285587L 144.52097300692407 21.743126767057475L 152.80196949369474 22.547798865549744L 153.17802145299783 28.914013197780818Q 155.39863232147195 25.60325990422137  158.00639885572068 24.098416489492692Q 160.61513254393395 22.583619953986638  163.1730845837177 22.83217852287187L 163.1730845837177 22.83217852287187Q 168.05011376462832 23.30608396549352  170.08706352924327 26.53824046795978Q 172.1249804478228 29.760443849648674  171.54178660720882 35.76217567840193L 171.54178660720882 35.76217567840193Q 171.46828290590423 36.51861285748194  171.2562802571126 37.56300496627314Q 171.0442776083209 38.60739707506434  170.72500652003933 39.72174261042914Q 170.41472139857055 40.84700842053585  170.01485819010543 41.963569844961754Q 169.61499498164034 43.08013126938765  169.20558264409837 43.98477569559522L 169.20558264409837 43.98477569559522L 161.32271098842244 43.218789755684305L 161.87979167199398 37.48579218792Q 162.06258377129092 35.604652360997335  161.9407345023427 34.37711305178692Q 161.80989926658162 33.13865346783461  161.47339070808502 32.36246921776344Q 161.14683527036578 31.58725212165681  160.63741421335936 31.246385305028284Q 160.12896031031752 30.89556536762239  159.50191370134326 30.834634667856747L 159.50191370134326 30.834634667856747Q 158.15824239639852 30.704068882644663  156.92852395812213 31.46872080513169Q 155.70875864062313 32.23433988158325  154.7905251683339 33.722508988361L 154.7905251683339 33.722508988361L 149.85610564128154 84.50333119449553L 138.5294541966361 83.40270998285587ZM 188.74928869525027 91.87510448770702L 188.74928869525027 91.87510448770702Q 186.8344415531765 91.37135810063116  184.93076717880393 90.55000319782894Q 183.03930792326548 89.72152152353686  181.43181547202946 88.28528755261871Q 179.83653813962755 86.84192681021068  178.67282053659005 84.62283660465783Q 177.51622970504238 82.41596151793908  177.06603106360612 79.17477019633387Q 176.6132882484977 75.94324981989064  177.03896078623075 71.49518249906242Q 177.4646333239638 67.04711517823422  179.02166761128916 61.12849673909716L 179.02166761128916 61.12849673909716L 181.49460442057062 51.72833804164418Q 183.02619697117498 45.90642905412702  184.83584159216525 41.936191486207306Q 186.64548621315555 37.96595391828761  188.63593685130536 35.470236334687854Q 190.6192607179653 32.96230363225402  192.7131343859387 31.724283817159133Q 194.80700805391209 30.48626400206423  196.88822255768517 30.08247421853243Q 198.96943706145825 29.678684435000633  201.00896413950497 29.905023335577322Q 203.03627609871754 30.13848900764391  204.90276851498135 30.629514526359262L 204.90276851498135 30.629514526359262Q 206.69189336994924 31.100186655697808  208.5380478228763 31.86504856214737Q 210.38420227580337 32.629910468596904  211.9881236282744 33.961802466878865Q 213.5920449807454 35.293694465160826  214.77662172268617 37.394189155097706Q 215.9708694097889 39.49722801870669  216.46585167827018 42.646798236036204Q 216.96796071824133 45.808583572199815  216.57943928653697 50.194042624238314Q 216.1909178548326 54.579501676276806  214.64660443586774 60.44976538960392L 214.64660443586774 60.44976538960392L 212.17366762658628 69.84992408705689Q 210.63953090230982 75.68150401973605  208.79527934896294 79.7046789112835Q 206.938812676782 83.73498057432082  204.9157935304213 86.31519249070637Q 202.88055926522648 88.90253117858181  200.75361133951577 90.26627328078254Q 198.62411924013296 91.63968632814527  196.5317165426187 92.16461580096515Q 194.4418580187765 92.67987432862301  192.46952180733732 92.5125725980711Q 190.4900588244082 92.33305574868507  188.74928869525027 91.87510448770702ZM 191.0675675121401 83.41658314369187L 191.0675675121401 83.41658314369187Q 192.54722212192436 83.8058417155232  193.7733320291911 83.31151945696874Q 194.98722681762374 82.82432396990414  196.083460459293 81.25146930310481Q 197.17002315580035 79.67607046263336  198.20101179876758 76.89692267633762Q 199.23200044173487 74.11777489004187  200.34126016277057 69.90124279941482L 200.34126016277057 69.90124279941482L 204.2211250127235 55.15305142738212Q 205.33038473375922 50.93651933675506  205.80554690467528 47.99046758715352Q 206.28070907559143 45.04441583755198  206.1151372483844 43.118932529383535Q 205.94243864968752 41.18123410238099  205.13306747511885 40.13074930868939Q 204.31402535538814 39.077720341325666  202.83437074560388 38.688461769494324L 202.83437074560388 38.688461769494324Q 201.2676776293617 38.276305634614076  199.99779559410285 38.77979308880414Q 198.72791355884397 39.283280542994184  197.56602172518643 40.86988300324689Q 196.406674065201 42.446814518337604  195.34158423940357 45.23767167394102Q 194.28616535876816 48.03107300321654  193.17690563773243 52.247605093843596L 193.17690563773243 52.247605093843596L 189.2970407877795 66.9957964658763Q 188.1877810667438 71.21232855650335  187.73704913349587 74.14412676312512Q 187.29598814540992 77.07846914341897  187.53434493609504 79.00241977696817Q 187.77270172678018 80.92637041051734  188.6380601481751 81.96056323708349Q 189.50087439589794 83.00442700881162  191.0675675121401 83.41658314369187ZM 215.0023417022228 99.07254372974927L 253.86463028216042 27.059548886251406L 263.8793911439349 32.464080769908875L 256.0385456782772 46.99340430487344L 251.8369301494058 54.02109431991724L 251.8571859885012 54.08884165183916Q 253.03891821075945 53.4993427503333  254.39791601701717 53.107775434809355Q 255.76571414037667 52.72095726856804  257.2673375227282 52.63362332571036Q 258.76421175579713 52.555089699954436  260.34197262428535 52.89519356918733Q 261.9197334927736 53.23529743842026  263.5477921565946 54.1138900557108L 263.5477921565946 54.1138900557108Q 264.37502196415767 54.56031008828003  265.4599794516007 55.35035265070391Q 266.5449369390438 56.1403952131278  267.4438429020375 57.44364809330659Q 268.35154918213294 58.75165012276804  268.9315641617255 60.666874032249225Q 269.5068299920353 62.590898258832084  269.3018250004112 65.28698300405233Q 269.09207085950453 67.99186806637428  267.9556569713276 71.57162552670013Q 266.8104427660488 75.14663383774331  264.3123902433741 79.77560063325595L 264.3123902433741 79.77560063325595L 255.40298618911982 96.28499551611088Q 252.90493366644512 100.91396231162352  250.545275701127 103.8335880216608Q 248.17681741870712 106.74846458241542  246.0038945826499 108.41663913819221Q 243.82217142949096 110.08006454468637  241.87104827013923 110.66343271063435Q 239.9199251107876 111.2468008765824  238.2755394313799 111.17754961407489Q 236.62710258415314 111.09474888518298  235.30412637207627 110.61942379403087Q 233.97709899218032 110.13054923649433  233.07066633070164 109.64138686038123L 233.07066633070164 109.64138686038123Q 231.16979783672684 108.6155706153285  229.90379703938987 107.31875066593608Q 228.62899592495114 106.01718156726103  227.90427580152607 104.5806646885914Q 227.17075536099927 103.13939866063912  226.83757379979423 101.6300974821883Q 226.50439223858922 100.1207963037375  226.4061640342391 98.68147312256166L 226.4061640342391 98.68147312256166L 222.84342423986874 103.30403574059179L 215.0023417022228 99.07254372974927ZM 248.83883536577744 60.33468503110376L 230.977284913725 93.43267765072925Q 230.89041864036207 94.35167397855218  230.9633540377575 95.31145542649061Q 231.03628943515295 96.27123687442902  231.33621257472745 97.12624921957251Q 231.636135714302 97.981261564716  232.24769658071736 98.7430970500206Q 232.85925744713276 99.50493253532517  233.85369327962883 100.04158640426479L 233.85369327962883 100.04158640426479Q 234.96253323444742 100.63997921387886  236.09217591221076 100.71552668621044Q 237.23061890707584 100.79582330782465  238.48833751785645 100.06551933269101Q 239.7548564457389 99.33996450684005  241.17808292329687 97.60810816361237Q 242.5972582330357 95.86270235400026  244.2404638848331 92.81779263679994L 244.2404638848331 92.81779263679994L 255.50069683399994 71.95224078858615Q 257.14390248579735 68.90733107138583  257.81435286042523 66.78059735623451Q 258.47125376866865 64.65791480890225  258.41842311275434 63.19763780716741Q 258.35679213973833 61.73261165614993  257.6640711959789 60.847435010458746Q 256.9625499351178 59.95750921548489  255.85370998029916 59.35911640587079L 255.85370998029916 59.35911640587079Q 253.99684307183307 58.357045907231324  252.2023051178466 58.79765177612322Q 250.4077671638601 59.2382576450151  248.83883536577744 60.33468503110376L 248.83883536577744 60.33468503110376ZM 304.03680380928756 72.82087376071644L 304.03680380928756 72.82087376071644Q 301.662233752042 70.75111120350525  301.5321174755158 68.13050635832487Q 301.4020011989896 65.50990151314446  303.80029749544065 62.75841557379654L 303.80029749544065 62.75841557379654Q 305.1275738019697 61.235675410102644  306.38205717666324 60.511747608027406Q 307.63654055135675 59.78781980595217  308.85184918578005 59.73282050508219Q 310.06058714541854 59.68535952185427  311.260100810139 60.22680847434087Q 312.45961447485956 60.7682574268275  313.6808219328715 61.832706741964685L 313.6808219328715 61.832706741964685Q 316.221234978242 64.04702414444135  316.4243934950423 66.49251522335611Q 316.62001369420057 68.93143562748605  314.142869300332 71.77338137853853L 314.142869300332 71.77338137853853Q 311.8365624508681 74.41933087089775  309.20688965276304 74.72726101704544Q 306.5847551723001 75.04176183797793  304.03680380928756 72.82087376071644ZM 253.0697865669705 122.3295735358202L 293.7751168587901 75.62969574332624L 302.353722335442 83.10712364842567L 261.6483920436224 129.80700144091963L 253.0697865669705 122.3295735358202ZM 279.12126522782734 150.92643534264334L 279.12126522782734 150.92643534264334Q 277.95925937520667 149.32326897620624  277.0071733023394 147.48149480170702Q 276.0690527457302 145.64194871061085  275.7357455750618 143.51222893327372Q 275.41640392065125 141.38473723933964  275.9224988130652 138.93066552892193Q 276.42636562207605 136.4905593347621  278.13214090103463 133.69801019505232Q 279.82981938016275 130.91132977176994  282.97796052263783 127.74025623950118Q 286.12610166511297 124.56918270723247  291.0813431613732 120.9775282536775L 291.0813431613732 120.9775282536775L 298.95143259660995 115.2731358862667Q 303.82570609456525 111.7401685969855  307.74161503730204 109.81578372066954Q 311.65752398003883 107.89139884435353  314.7788539496738 107.2222208256926Q 317.9024120027118 106.53907729077379  320.30670888246823 106.90834211985143Q 322.7110057622246 107.27760694892899  324.5768361842588 108.28417380523396Q 326.44266660629296 109.29074066153889  327.8769200359653 110.75832953430718Q 329.29720794937975 112.2236903236723  330.4298702198636 113.78637269095698L 330.4298702198636 113.78637269095698Q 331.5155827589284 115.28428065959774  332.4589750161259 117.045902369574Q 333.4023672733234 118.80752407955033  333.7990362930145 120.85426629312224Q 334.19570531270574 122.90100850669413  333.7809033018302 125.2765588201528Q 333.3719700073822 127.660205933442  331.7589001595833 130.410261508539Q 330.1436022283812 133.17428259989384  327.0638761175743 136.3204687168319Q 323.9841500067673 139.46665483377  319.0693925096596 143.02896570518806L 319.0693925096596 143.02896570518806L 311.19930307442286 148.7333580725989Q 306.3169327766371 152.27219407830745  302.34070560206254 154.21559765352674Q 298.35051291123017 156.15677314534287  295.15044302669344 156.8706728120197Q 291.9364076258989 157.5823443952934  289.4268523483461 157.2893728797717Q 286.90920027096286 157.00227008067742  284.9579456838175 156.082321421162Q 283.0147878965027 155.15650404521915  281.59509699892743 153.77716443680436Q 280.1776341847553 152.38385931213162  279.12126522782734 150.92643534264334ZM 286.2749771270139 145.85244223430783L 286.2749771270139 145.85244223430783Q 287.17289074040264 147.09125260837283  288.4346218683134 147.48588479264203Q 289.6823874799662 147.8782888935081  291.5271467336615 147.35630872539255Q 293.36603727092927 146.82623175744652  295.92478599731794 145.3297676064544Q 298.48353472370655 143.83330345546227  302.01373944980037 141.27454309312574L 302.01373944980037 141.27454309312574L 314.36135919129845 132.32475054137524Q 317.89156391739226 129.76599017903868  320.12612069065403 127.7881742050234Q 322.36067746391575 125.81035823100808  323.4528284652855 124.21595985224353Q 324.54720755005826 122.6075959572211  324.5868331114534 121.28206594440202Q 324.6205899564211 119.94843913175244  323.7226763430324 118.70962875768741L 323.7226763430324 118.70962875768741Q 322.77194428179723 117.39794718514794  321.47054468851604 116.98266523441156Q 320.16914509523474 116.56738328367518  318.26488314348387 117.05838880208991Q 316.3687179915634 117.5435256040773  313.7761695162317 119.0274367884327Q 311.1894897573273 120.51944477261856  307.6592850312335 123.0782051349551L 307.6592850312335 123.0782051349551L 295.3116652897354 132.02799768670562Q 291.7814605636416 134.58675804904215  289.5748348228956 136.5690301898637Q 287.374077798577 138.55939913051571  286.33920141185985 140.19873767523893Q 285.3043250251427 141.8380762199622  285.31833344537597 143.18648408265156Q 285.32424506577877 144.54076066176833  286.2749771270139 145.85244223430783ZM 293.6736190034919 173.94599280749955L 368.52750885094616 140.88477572909812L 373.1252926753652 151.2946164533317L 298.27140282791095 184.35583353173314L 293.6736190034919 173.94599280749955ZM 305.8182157367146 210.73561041339616L 305.8182157367146 210.73561041339616Q 305.3532115621075 208.81098808223663  305.1730976048928 206.74551986354712Q 305.00505246841436 204.6874234537291  305.5067301801773 202.59096943002135Q 306.02047671267655 200.5018872151851  307.4218374488176 198.42468041585042Q 308.8158263760871 196.35954243725195  311.4554496993684 194.42553398039615Q 314.0853527078458 192.49387402947275  318.20291910920764 190.75832024742627Q 322.3204855105695 189.02276646537973  328.2693181705172 187.58548083477604L 328.2693181705172 187.58548083477604L 337.7174641598458 185.30273306852308Q 343.5690936717552 183.888932497243  347.92261847639924 183.5983782418125Q 352.2761432810433 183.307823986382  355.41743246903775 183.87598086382803Q 358.5660934659037 184.4320689205379  360.6493024414007 185.68795122569574Q 362.7325114168977 186.9438335308536  364.07534501193123 188.58435111260923Q 365.4181786069647 190.22486869436494  366.18653475534865 192.12763742157284Q 366.9428220829964 194.0230343399094  367.3960837279417 195.89905509704968L 367.3960837279417 195.89905509704968Q 367.83055732542806 197.6973133357594  368.03311300033164 199.68534532709265Q 368.23566867523516 201.67337731842582  367.8241485937134 203.71718533839848Q 367.41262851219165 205.7609933583711  366.1255630477644 207.80029777171364Q 364.84084608926935 209.84932249986002  362.3031229258912 211.7792865269999Q 359.75802795364154 213.72131937487592  355.71320076777124 215.45987424500356Q 351.668373581901 217.19842911513126  345.7681424959724 218.62397221607318L 345.7681424959724 218.62397221607318L 336.3199965066438 220.90671998232608Q 330.4586466799306 222.32286905953856  326.0421029745989 222.6080737209555Q 321.61349044853085 222.88590657350102  318.3823699213695 222.32916593464236Q 315.139180573472 221.76505348691225  312.92960750552504 220.53970175887508Q 310.7103141227743 219.3166985367703  309.25553376195955 217.72380365581057Q 307.8104737159486 216.1285602689185  307.0220243558082 214.31294808387068Q 306.24094680453925 212.48526707808668  305.8182157367146 210.73561041339616ZM 314.36406837307004 208.76345354395184L 314.36406837307004 208.76345354395184Q 314.723389780721 210.2506617089388  315.7402362790541 211.09548310948907Q 316.74501395665095 211.93293270116789  318.6496720128772 212.15174241039642Q 320.551981563171 212.36083180482112  323.48758110234104 211.9499116840865Q 326.42318064151107 211.53899156335183  330.6612378959836 210.51504297684332L 330.6612378959836 210.51504297684332L 345.4847179718336 206.93357142999585Q 349.72277522630617 205.90962284348734  352.54160205100703 204.93022745226546Q 355.36042887570795 203.9508320610436  356.9768732844028 202.89158351910493Q 358.6006895019691 201.8202661564301  359.14144187818215 200.6094041215062Q 359.67984574846275 199.3888217717785  359.32052434081186 197.90161360679156L 359.32052434081186 197.90161360679156Q 358.9400663797697 196.3269226085701  357.8943852280995 195.44791696066926Q 356.84870407642927 194.56891131276834  354.90079404019747 194.29882523251388Q 352.9626043187695 194.02639064632697  350.0005186321946 194.41284683451482Q 347.0407814515522 194.80902333750657  342.80272419707967 195.83297192401508L 342.80272419707967 195.83297192401508L 327.97924412122967 199.41444347086255Q 323.7411868667571 200.43839205737106  320.9464976835286 201.43253106633586Q 318.1541570062325 202.4363903901045  316.57359276867186 203.55898412380537Q 314.9930285311112 204.6815778575061  314.49317962897146 205.93399594865213Q 313.98361041202793 207.18876254573038  314.36406837307004 208.76345354395184ZM 307.4584548231872 238.6245589069443L 307.74756211943674 246.67937218667058Q 303.7501361741631 246.82284975304754  302.1342975415709 248.36179923676116Q 300.5288111677578 249.91038359142203  300.6400062816999 253.00838869900906L 300.6400062816999 253.00838869900906Q 300.68520171510863 254.26757787177024  301.1069243680749 255.42319459195693Q 301.52864702104114 256.57881131214367  302.56956213682565 257.42201693459367Q 303.6201121235574 258.25487029826456  305.4383232703914 258.72995789600685Q 307.2565344172254 259.2050454937492  310.0847132735065 259.1035351155375L 310.0847132735065 259.1035351155375L 319.8384325799741 258.75344985357776Q 317.80482656792447 257.2954558248672  316.30964738238936 254.9475760998509Q 314.8041159380751 252.5900615038874  314.6767795979156 249.04234597745705L 314.6767795979156 249.04234597745705Q 314.63947543065757 248.00301523168594  314.7894882736053 246.60673583738443Q 314.939142422637 245.2004628782199  315.6055923932268 243.6955893165208Q 316.2716836699006 242.18072218995854  317.689085780893 240.6889208440165Q 319.0964943270221 239.19747819199043  321.5247311296431 237.98960153007607Q 323.96260280321115 236.77137260938258  327.64546548725247 235.94874119100825Q 331.3279694773777 235.11611620777072  336.5845845954125 234.92744320798505L 336.5845845954125 234.92744320798505L 352.86410175753923 234.34313081891491Q 357.90085844858396 234.16234908527994  361.4536954194039 234.7352796733752Q 365.0061736963078 235.29821669660726  367.4351681111104 236.3417616802368Q 369.85381026713367 237.37567179291912  371.255669529307 238.79630214915497Q 372.65717009756446 240.20693894052758  373.4105237253787 241.68086509588923Q 374.1542424822457 243.16514351002996  374.3857785736787 244.5977603598415Q 374.61731466511173 246.03037720965304  374.65784707761327 247.15965003919283L 374.65784707761327 247.15965003919283Q 374.7381945147843 249.39820856854604  374.2209804940936 251.15789310186474Q 373.6934142146238 252.90794276423617  372.7799448089988 254.22155368265416Q 371.8564818385105 255.5355232949882  370.67954294250006 256.47834609650374Q 369.4926104816265 257.42152759193533  368.3059868498855 258.0945241421449L 368.3059868498855 258.0945241421449L 374.449359148549 258.9146929052752L 374.7671619580739 267.76899137405627L 315.33543171671863 269.90214409216554Q 310.16875868245256 270.0875888467078  305.9659314368265 269.2478012882005Q 301.7730977560636 268.4076550357773  298.7593052700237 266.4044688609326Q 295.7351605252046 264.3916478151406  294.03924306022435 261.19041930846146Q 292.3533191601073 257.98883210786636  292.19011342835347 253.4417600951177L 292.19011342835347 253.4417600951177Q 292.0807117839911 250.39372281184657  292.5235169292985 247.67609082732602Q 292.96632207460607 244.95845884280544  294.262625595926 242.88062410909498Q 295.55928781116177 240.8127829402477  297.8857954955712 239.55852539317684Q 300.2023096151173 238.3046265400219  303.83996722531634 238.17406195461888L 303.83996722531634 238.17406195461888Q 304.4695618116969 238.15146423791452  305.4236134946066 238.24730465912137Q 306.3680303065691 238.35349733910738  307.4584548231872 238.6245589069443L 307.4584548231872 238.6245589069443ZM 323.62955965879763 252.5834939807849L 323.62955965879763 252.5834939807849Q 323.6700920712991 253.7127668103247  324.081412600703 254.57857014947905Q 324.492374436191 255.4343799237703  325.14707759668755 256.11133174748875Q 325.80178075718413 256.7882835712073  326.629911594731 257.2788947369016Q 327.45768373836194 257.7595123377326  328.3300432975698 258.0884329960362L 328.3300432975698 258.0884329960362L 362.178247489174 256.8735367027394Q 364.03654226546064 255.95629053925558  365.3147518562003 254.48949803786311Q 366.59296144693997 253.02270553647068  366.5205052759196 251.00400543410748L 366.5205052759196 251.00400543410748Q 366.4753098425109 249.7448162613463  365.9886539503255 248.73162030665583Q 365.5016393642242 247.70843078710206  364.2351765835778 246.9933979030769Q 362.9683551090155 246.2683714541886  360.7743341304558 245.91684343874715Q 358.5806718458121 245.57530898816884  355.11290483828725 245.69977577700087L 355.11290483828725 245.69977577700087L 334.74601964711826 246.43079397769142Q 331.2882462044566 246.55490207260746  329.10472707902574 247.05354445836852Q 326.9115730826475 247.5625391029087  325.6800033414139 248.37723903078256Q 324.4480749062643 249.18194539379334  324.01639891278455 250.2581218833401Q 323.5843642253889 251.32430480802373  323.62955965879763 252.5834939807849ZM 302.7195857189532 276.79631765634383L 302.7195857189532 276.79631765634383Q 301.67069553783017 279.1591611526304  301.57780193317035 281.37892933381806Q 301.47529245615044 283.59595251978635  302.43450381700103 285.48169204719073Q 303.3909701826322 287.3770474469552  305.40777649943203 288.909526575856Q 307.43419868859183 290.44475069997617  310.54977488963135 291.47973134497204L 310.54977488963135 291.47973134497204L 374.49318355219697 294.47731180463165L 371.31996907860105 305.59326025290005L 336.56427674994853 302.46258129202846L 324.67264064671525 301.0230359512071L 324.5738208188178 301.3692073561704L 335.5898034470709 305.87621597986174L 367.1091464120818 320.34400845328395L 364.032006771164 331.1234013689491L 305.84186149120404 300.9408386497704Q 301.78925200746835 298.88960575896164  298.9495058805145 296.70622719937785Q 296.1125047487799 294.5132327674339  294.5350318925565 292.0246228365934Q 292.9451981687537 289.5428837828935  292.62860091837416 286.64464877153705Q 292.31200366799476 283.74641376018064  293.3002019469693 280.2846997105469L 293.3002019469693 280.2846997105469Q 294.10448554624577 277.4672491090394  296.0214317877046 274.83223163142054L 296.0214317877046 274.83223163142054L 302.7195857189532 276.79631765634383Z" data-textpath="Microbiology" data-text-anchor="middle" data-font-size="100" data-letterspacing="0" data-side="left" data-offset="0.5" data-dx="0" data-dy="0" data-xmlspace="preserve" data-href="" data-font="Fjalla One" data-font-src="/Content/clientfonts/fjallaone.woff" data-font-scale="contain" transform="translate(0,0)" data-x="0" data-y="0" fill="url('#linearGradientSkkfo5qhd17')"></path>
        </g>
      </svg>
    </g>
  </g>
</svg>