<?xml version="1.0" encoding="UTF-8" standalone="no"?>
<!DOCTYPE svg PUBLIC "-//W3C//DTD SVG 1.1//EN"
 "http://www.w3.org/Graphics/SVG/1.1/DTD/svg11.dtd">
<!-- Generated by graphviz version 2.43.0 (0)
 -->
<!-- Title: snakemake_dag Pages: 1 -->
<svg width="688pt" height="764pt"
 viewBox="0.00 0.00 687.50 764.00" xmlns="http://www.w3.org/2000/svg" xmlns:xlink="http://www.w3.org/1999/xlink">
<g id="graph0" class="graph" transform="scale(1 1) rotate(0) translate(4 760)">
<title>snakemake_dag</title>
<polygon fill="white" stroke="transparent" points="-4,4 -4,-760 683.5,-760 683.5,4 -4,4"/>
<!-- 0 -->
<g id="node1" class="node">
<title>0</title>
<path fill="none" stroke="#5692d8" stroke-width="2" d="M324.5,-36C324.5,-36 294.5,-36 294.5,-36 288.5,-36 282.5,-30 282.5,-24 282.5,-24 282.5,-12 282.5,-12 282.5,-6 288.5,0 294.5,0 294.5,0 324.5,0 324.5,0 330.5,0 336.5,-6 336.5,-12 336.5,-12 336.5,-24 336.5,-24 336.5,-30 330.5,-36 324.5,-36"/>
<text text-anchor="middle" x="309.5" y="-15.5" font-family="sans" font-size="10.00">all</text>
</g>
<!-- 1 -->
<g id="node2" class="node">
<title>1</title>
<path fill="none" stroke="#d8b456" stroke-width="2" d="M87,-108C87,-108 12,-108 12,-108 6,-108 0,-102 0,-96 0,-96 0,-84 0,-84 0,-78 6,-72 12,-72 12,-72 87,-72 87,-72 93,-72 99,-78 99,-84 99,-84 99,-96 99,-96 99,-102 93,-108 87,-108"/>
<text text-anchor="middle" x="49.5" y="-87.5" font-family="sans" font-size="10.00">seqkit_stats_raw</text>
</g>
<!-- 1&#45;&gt;0 -->
<g id="edge8" class="edge">
<title>1&#45;&gt;0</title>
<path fill="none" stroke="grey" stroke-width="2" d="M99.02,-75.67C149.7,-62.02 227.29,-41.13 272.75,-28.89"/>
<polygon fill="grey" stroke="grey" stroke-width="2" points="273.74,-32.25 282.49,-26.27 271.92,-25.49 273.74,-32.25"/>
</g>
<!-- 2 -->
<g id="node3" class="node">
<title>2</title>
<path fill="none" stroke="#56a9d8" stroke-width="2" d="M179,-468C179,-468 90,-468 90,-468 84,-468 78,-462 78,-456 78,-456 78,-444 78,-444 78,-438 84,-432 90,-432 90,-432 179,-432 179,-432 185,-432 191,-438 191,-444 191,-444 191,-456 191,-456 191,-462 185,-468 179,-468"/>
<text text-anchor="middle" x="134.5" y="-447.5" font-family="sans" font-size="10.00">seqkit_stats_trimed</text>
</g>
<!-- 2&#45;&gt;0 -->
<g id="edge6" class="edge">
<title>2&#45;&gt;0</title>
<path fill="none" stroke="grey" stroke-width="2" d="M133.12,-431.96C131.08,-405.32 127.5,-352.17 127.5,-307 127.5,-307 127.5,-307 127.5,-161 127.5,-88.15 219.27,-47.16 272.48,-29.51"/>
<polygon fill="grey" stroke="grey" stroke-width="2" points="273.79,-32.77 282.25,-26.39 271.66,-26.1 273.79,-32.77"/>
</g>
<!-- 3 -->
<g id="node4" class="node">
<title>3</title>
<path fill="none" stroke="#d8cb56" stroke-width="2" d="M265,-756C265,-756 220,-756 220,-756 214,-756 208,-750 208,-744 208,-744 208,-732 208,-732 208,-726 214,-720 220,-720 220,-720 265,-720 265,-720 271,-720 277,-726 277,-732 277,-732 277,-744 277,-744 277,-750 271,-756 265,-756"/>
<text text-anchor="middle" x="242.5" y="-735.5" font-family="sans" font-size="10.00">seqkit_seq</text>
</g>
<!-- 3&#45;&gt;2 -->
<g id="edge10" class="edge">
<title>3&#45;&gt;2</title>
<path fill="none" stroke="grey" stroke-width="2" d="M236.07,-719.97C217.99,-672.09 166.62,-536.06 144.66,-477.9"/>
<polygon fill="grey" stroke="grey" stroke-width="2" points="147.84,-476.43 141.04,-468.31 141.29,-478.9 147.84,-476.43"/>
</g>
<!-- 6 -->
<g id="node7" class="node">
<title>6</title>
<path fill="none" stroke="#56d8c9" stroke-width="2" d="M371.5,-684C371.5,-684 329.5,-684 329.5,-684 323.5,-684 317.5,-678 317.5,-672 317.5,-672 317.5,-660 317.5,-660 317.5,-654 323.5,-648 329.5,-648 329.5,-648 371.5,-648 371.5,-648 377.5,-648 383.5,-654 383.5,-660 383.5,-660 383.5,-672 383.5,-672 383.5,-678 377.5,-684 371.5,-684"/>
<text text-anchor="middle" x="350.5" y="-663.5" font-family="sans" font-size="10.00">minimap2</text>
</g>
<!-- 3&#45;&gt;6 -->
<g id="edge13" class="edge">
<title>3&#45;&gt;6</title>
<path fill="none" stroke="grey" stroke-width="2" d="M268.92,-719.88C282.91,-710.81 300.28,-699.55 315.39,-689.76"/>
<polygon fill="grey" stroke="grey" stroke-width="2" points="317.49,-692.57 323.98,-684.19 313.68,-686.69 317.49,-692.57"/>
</g>
<!-- 4 -->
<g id="node5" class="node">
<title>4</title>
<path fill="none" stroke="#d88556" stroke-width="2" d="M667.5,-180C667.5,-180 613.5,-180 613.5,-180 607.5,-180 601.5,-174 601.5,-168 601.5,-168 601.5,-156 601.5,-156 601.5,-150 607.5,-144 613.5,-144 613.5,-144 667.5,-144 667.5,-144 673.5,-144 679.5,-150 679.5,-156 679.5,-156 679.5,-168 679.5,-168 679.5,-174 673.5,-180 667.5,-180"/>
<text text-anchor="middle" x="640.5" y="-159.5" font-family="sans" font-size="10.00">plot_flagstat</text>
</g>
<!-- 4&#45;&gt;0 -->
<g id="edge4" class="edge">
<title>4&#45;&gt;0</title>
<path fill="none" stroke="grey" stroke-width="2" d="M627.78,-143.67C611.83,-123.26 582.54,-89.87 549.5,-72 483.94,-36.54 396.1,-24.79 346.92,-20.91"/>
<polygon fill="grey" stroke="grey" stroke-width="2" points="346.96,-17.41 336.74,-20.18 346.46,-24.39 346.96,-17.41"/>
</g>
<!-- 5 -->
<g id="node6" class="node">
<title>5</title>
<path fill="none" stroke="#88d856" stroke-width="2" d="M576.5,-612C576.5,-612 496.5,-612 496.5,-612 490.5,-612 484.5,-606 484.5,-600 484.5,-600 484.5,-588 484.5,-588 484.5,-582 490.5,-576 496.5,-576 496.5,-576 576.5,-576 576.5,-576 582.5,-576 588.5,-582 588.5,-588 588.5,-588 588.5,-600 588.5,-600 588.5,-606 582.5,-612 576.5,-612"/>
<text text-anchor="middle" x="536.5" y="-591.5" font-family="sans" font-size="10.00">samtools_flagstat</text>
</g>
<!-- 5&#45;&gt;4 -->
<g id="edge11" class="edge">
<title>5&#45;&gt;4</title>
<path fill="none" stroke="grey" stroke-width="2" d="M551.91,-575.58C572.79,-550.1 607.5,-500.34 607.5,-451 607.5,-451 607.5,-451 607.5,-305 607.5,-263.97 620.73,-217.97 630.44,-189.74"/>
<polygon fill="grey" stroke="grey" stroke-width="2" points="633.78,-190.78 633.82,-180.19 627.18,-188.45 633.78,-190.78"/>
</g>
<!-- 6&#45;&gt;5 -->
<g id="edge12" class="edge">
<title>6&#45;&gt;5</title>
<path fill="none" stroke="grey" stroke-width="2" d="M383.75,-652.49C410.93,-642.26 449.91,-627.59 481.7,-615.63"/>
<polygon fill="grey" stroke="grey" stroke-width="2" points="483.18,-618.81 491.31,-612.01 480.71,-612.26 483.18,-618.81"/>
</g>
<!-- 9 -->
<g id="node10" class="node">
<title>9</title>
<path fill="none" stroke="#56d8a9" stroke-width="2" d="M383.5,-612C383.5,-612 317.5,-612 317.5,-612 311.5,-612 305.5,-606 305.5,-600 305.5,-600 305.5,-588 305.5,-588 305.5,-582 311.5,-576 317.5,-576 317.5,-576 383.5,-576 383.5,-576 389.5,-576 395.5,-582 395.5,-588 395.5,-588 395.5,-600 395.5,-600 395.5,-606 389.5,-612 383.5,-612"/>
<text text-anchor="middle" x="350.5" y="-591.5" font-family="sans" font-size="10.00">samtools_view</text>
</g>
<!-- 6&#45;&gt;9 -->
<g id="edge17" class="edge">
<title>6&#45;&gt;9</title>
<path fill="none" stroke="grey" stroke-width="2" d="M350.5,-647.7C350.5,-639.98 350.5,-630.71 350.5,-622.11"/>
<polygon fill="grey" stroke="grey" stroke-width="2" points="354,-622.1 350.5,-612.1 347,-622.1 354,-622.1"/>
</g>
<!-- 7 -->
<g id="node8" class="node">
<title>7</title>
<path fill="none" stroke="#56c9d8" stroke-width="2" d="M229,-396C229,-396 168,-396 168,-396 162,-396 156,-390 156,-384 156,-384 156,-372 156,-372 156,-366 162,-360 168,-360 168,-360 229,-360 229,-360 235,-360 241,-366 241,-372 241,-372 241,-384 241,-384 241,-390 235,-396 229,-396"/>
<text text-anchor="middle" x="198.5" y="-375.5" font-family="sans" font-size="10.00">bamCoverage</text>
</g>
<!-- 7&#45;&gt;0 -->
<g id="edge3" class="edge">
<title>7&#45;&gt;0</title>
<path fill="none" stroke="grey" stroke-width="2" d="M198.3,-359.95C198.01,-333.29 197.5,-280.12 197.5,-235 197.5,-235 197.5,-235 197.5,-161 197.5,-118.16 207.74,-105.45 234.5,-72 245.12,-58.72 259.91,-47.31 273.55,-38.51"/>
<polygon fill="grey" stroke="grey" stroke-width="2" points="275.62,-41.35 282.29,-33.12 271.94,-35.39 275.62,-41.35"/>
</g>
<!-- 8 -->
<g id="node9" class="node">
<title>8</title>
<path fill="none" stroke="#d87d56" stroke-width="2" d="M381.5,-540C381.5,-540 319.5,-540 319.5,-540 313.5,-540 307.5,-534 307.5,-528 307.5,-528 307.5,-516 307.5,-516 307.5,-510 313.5,-504 319.5,-504 319.5,-504 381.5,-504 381.5,-504 387.5,-504 393.5,-510 393.5,-516 393.5,-516 393.5,-528 393.5,-528 393.5,-534 387.5,-540 381.5,-540"/>
<text text-anchor="middle" x="350.5" y="-519.5" font-family="sans" font-size="10.00">samtools_sort</text>
</g>
<!-- 8&#45;&gt;7 -->
<g id="edge15" class="edge">
<title>8&#45;&gt;7</title>
<path fill="none" stroke="grey" stroke-width="2" d="M327.62,-503.77C314.64,-493.72 298.29,-480.58 284.5,-468 261.72,-447.22 237.46,-421.77 220.53,-403.42"/>
<polygon fill="grey" stroke="grey" stroke-width="2" points="223.09,-401.03 213.75,-396.02 217.93,-405.76 223.09,-401.03"/>
</g>
<!-- 10 -->
<g id="node11" class="node">
<title>10</title>
<path fill="none" stroke="#b6d856" stroke-width="2" d="M385.5,-468C385.5,-468 315.5,-468 315.5,-468 309.5,-468 303.5,-462 303.5,-456 303.5,-456 303.5,-444 303.5,-444 303.5,-438 309.5,-432 315.5,-432 315.5,-432 385.5,-432 385.5,-432 391.5,-432 397.5,-438 397.5,-444 397.5,-444 397.5,-456 397.5,-456 397.5,-462 391.5,-468 385.5,-468"/>
<text text-anchor="middle" x="350.5" y="-447.5" font-family="sans" font-size="10.00">samtools_index</text>
</g>
<!-- 8&#45;&gt;10 -->
<g id="edge18" class="edge">
<title>8&#45;&gt;10</title>
<path fill="none" stroke="grey" stroke-width="2" d="M350.5,-503.7C350.5,-495.98 350.5,-486.71 350.5,-478.11"/>
<polygon fill="grey" stroke="grey" stroke-width="2" points="354,-478.1 350.5,-468.1 347,-478.1 354,-478.1"/>
</g>
<!-- 11 -->
<g id="node12" class="node">
<title>11</title>
<path fill="none" stroke="#d85656" stroke-width="2" d="M329.5,-396C329.5,-396 271.5,-396 271.5,-396 265.5,-396 259.5,-390 259.5,-384 259.5,-384 259.5,-372 259.5,-372 259.5,-366 265.5,-360 271.5,-360 271.5,-360 329.5,-360 329.5,-360 335.5,-360 341.5,-366 341.5,-372 341.5,-372 341.5,-384 341.5,-384 341.5,-390 335.5,-396 329.5,-396"/>
<text text-anchor="middle" x="300.5" y="-375.5" font-family="sans" font-size="10.00">plotCoverage</text>
</g>
<!-- 8&#45;&gt;11 -->
<g id="edge20" class="edge">
<title>8&#45;&gt;11</title>
<path fill="none" stroke="grey" stroke-width="2" d="M324.38,-503.82C312.92,-494.69 300.69,-482.39 294.5,-468 286.11,-448.5 288.42,-424.36 292.39,-406.14"/>
<polygon fill="grey" stroke="grey" stroke-width="2" points="295.85,-406.73 294.84,-396.18 289.05,-405.05 295.85,-406.73"/>
</g>
<!-- 13 -->
<g id="node14" class="node">
<title>13</title>
<path fill="none" stroke="#566bd8" stroke-width="2" d="M401.5,-396C401.5,-396 371.5,-396 371.5,-396 365.5,-396 359.5,-390 359.5,-384 359.5,-384 359.5,-372 359.5,-372 359.5,-366 365.5,-360 371.5,-360 371.5,-360 401.5,-360 401.5,-360 407.5,-360 413.5,-366 413.5,-372 413.5,-372 413.5,-384 413.5,-384 413.5,-390 407.5,-396 401.5,-396"/>
<text text-anchor="middle" x="386.5" y="-375.5" font-family="sans" font-size="10.00">sniffles</text>
</g>
<!-- 8&#45;&gt;13 -->
<g id="edge23" class="edge">
<title>8&#45;&gt;13</title>
<path fill="none" stroke="grey" stroke-width="2" d="M376.62,-503.82C388.08,-494.69 400.31,-482.39 406.5,-468 415.11,-447.99 408.7,-423.8 400.92,-405.69"/>
<polygon fill="grey" stroke="grey" stroke-width="2" points="403.94,-403.89 396.54,-396.32 397.6,-406.86 403.94,-403.89"/>
</g>
<!-- 20 -->
<g id="node21" class="node">
<title>20</title>
<path fill="none" stroke="#5663d8" stroke-width="2" d="M533,-396C533,-396 444,-396 444,-396 438,-396 432,-390 432,-384 432,-384 432,-372 432,-372 432,-366 438,-360 444,-360 444,-360 533,-360 533,-360 539,-360 545,-366 545,-372 545,-372 545,-384 545,-384 545,-390 539,-396 533,-396"/>
<text text-anchor="middle" x="488.5" y="-375.5" font-family="sans" font-size="10.00">medaka_consensus</text>
</g>
<!-- 8&#45;&gt;20 -->
<g id="edge32" class="edge">
<title>8&#45;&gt;20</title>
<path fill="none" stroke="grey" stroke-width="2" d="M377.66,-503.86C391.83,-494.24 408.98,-481.48 422.5,-468 441.82,-448.75 459.99,-423.52 472.35,-404.84"/>
<polygon fill="grey" stroke="grey" stroke-width="2" points="475.42,-406.54 477.93,-396.25 469.55,-402.73 475.42,-406.54"/>
</g>
<!-- 9&#45;&gt;8 -->
<g id="edge16" class="edge">
<title>9&#45;&gt;8</title>
<path fill="none" stroke="grey" stroke-width="2" d="M350.5,-575.7C350.5,-567.98 350.5,-558.71 350.5,-550.11"/>
<polygon fill="grey" stroke="grey" stroke-width="2" points="354,-550.1 350.5,-540.1 347,-550.1 354,-550.1"/>
</g>
<!-- 10&#45;&gt;7 -->
<g id="edge14" class="edge">
<title>10&#45;&gt;7</title>
<path fill="none" stroke="grey" stroke-width="2" d="M313.32,-431.88C292.63,-422.35 266.7,-410.41 244.72,-400.28"/>
<polygon fill="grey" stroke="grey" stroke-width="2" points="246.11,-397.07 235.56,-396.07 243.18,-403.43 246.11,-397.07"/>
</g>
<!-- 10&#45;&gt;11 -->
<g id="edge19" class="edge">
<title>10&#45;&gt;11</title>
<path fill="none" stroke="grey" stroke-width="2" d="M338.14,-431.7C332.27,-423.47 325.13,-413.48 318.66,-404.42"/>
<polygon fill="grey" stroke="grey" stroke-width="2" points="321.38,-402.21 312.72,-396.1 315.68,-406.28 321.38,-402.21"/>
</g>
<!-- 10&#45;&gt;13 -->
<g id="edge22" class="edge">
<title>10&#45;&gt;13</title>
<path fill="none" stroke="grey" stroke-width="2" d="M359.4,-431.7C363.5,-423.73 368.45,-414.1 372.99,-405.26"/>
<polygon fill="grey" stroke="grey" stroke-width="2" points="376.24,-406.6 377.7,-396.1 370.02,-403.4 376.24,-406.6"/>
</g>
<!-- 10&#45;&gt;20 -->
<g id="edge31" class="edge">
<title>10&#45;&gt;20</title>
<path fill="none" stroke="grey" stroke-width="2" d="M384.26,-431.88C402.72,-422.51 425.78,-410.81 445.52,-400.8"/>
<polygon fill="grey" stroke="grey" stroke-width="2" points="447.28,-403.83 454.61,-396.19 444.11,-397.59 447.28,-403.83"/>
</g>
<!-- 11&#45;&gt;0 -->
<g id="edge1" class="edge">
<title>11&#45;&gt;0</title>
<path fill="none" stroke="grey" stroke-width="2" d="M285.02,-359.95C276.74,-350.06 266.95,-337.01 260.5,-324 242.25,-287.19 235.5,-276.09 235.5,-235 235.5,-235 235.5,-235 235.5,-161 235.5,-120.55 234.86,-107.36 254.5,-72 260.48,-61.24 269.35,-51.32 278.23,-43.04"/>
<polygon fill="grey" stroke="grey" stroke-width="2" points="280.79,-45.45 285.97,-36.2 276.16,-40.2 280.79,-45.45"/>
</g>
<!-- 12 -->
<g id="node13" class="node">
<title>12</title>
<path fill="none" stroke="#56c1d8" stroke-width="2" d="M425,-252C425,-252 348,-252 348,-252 342,-252 336,-246 336,-240 336,-240 336,-228 336,-228 336,-222 342,-216 348,-216 348,-216 425,-216 425,-216 431,-216 437,-222 437,-228 437,-228 437,-240 437,-240 437,-246 431,-252 425,-252"/>
<text text-anchor="middle" x="386.5" y="-231.5" font-family="sans" font-size="10.00">bcftools_stats_sv</text>
</g>
<!-- 12&#45;&gt;0 -->
<g id="edge5" class="edge">
<title>12&#45;&gt;0</title>
<path fill="none" stroke="grey" stroke-width="2" d="M387.71,-215.94C389.13,-185.33 388.77,-119.79 364.5,-72 358.97,-61.12 350.31,-51.21 341.48,-42.98"/>
<polygon fill="grey" stroke="grey" stroke-width="2" points="343.58,-40.17 333.76,-36.2 338.97,-45.43 343.58,-40.17"/>
</g>
<!-- 13&#45;&gt;12 -->
<g id="edge21" class="edge">
<title>13&#45;&gt;12</title>
<path fill="none" stroke="grey" stroke-width="2" d="M386.5,-359.87C386.5,-335.67 386.5,-291.21 386.5,-262.39"/>
<polygon fill="grey" stroke="grey" stroke-width="2" points="390,-262.19 386.5,-252.19 383,-262.19 390,-262.19"/>
</g>
<!-- 16 -->
<g id="node17" class="node">
<title>16</title>
<path fill="none" stroke="#56d8d8" stroke-width="2" d="M341.5,-324C341.5,-324 281.5,-324 281.5,-324 275.5,-324 269.5,-318 269.5,-312 269.5,-312 269.5,-300 269.5,-300 269.5,-294 275.5,-288 281.5,-288 281.5,-288 341.5,-288 341.5,-288 347.5,-288 353.5,-294 353.5,-300 353.5,-300 353.5,-312 353.5,-312 353.5,-318 347.5,-324 341.5,-324"/>
<text text-anchor="middle" x="311.5" y="-303.5" font-family="sans" font-size="10.00">bcftools_filter</text>
</g>
<!-- 13&#45;&gt;16 -->
<g id="edge27" class="edge">
<title>13&#45;&gt;16</title>
<path fill="none" stroke="grey" stroke-width="2" d="M367.96,-359.7C358.7,-351.05 347.34,-340.45 337.24,-331.03"/>
<polygon fill="grey" stroke="grey" stroke-width="2" points="339.52,-328.37 329.83,-324.1 334.75,-333.49 339.52,-328.37"/>
</g>
<!-- 14 -->
<g id="node15" class="node">
<title>14</title>
<path fill="none" stroke="#569ad8" stroke-width="2" d="M343.5,-108C343.5,-108 275.5,-108 275.5,-108 269.5,-108 263.5,-102 263.5,-96 263.5,-96 263.5,-84 263.5,-84 263.5,-78 269.5,-72 275.5,-72 275.5,-72 343.5,-72 343.5,-72 349.5,-72 355.5,-78 355.5,-84 355.5,-84 355.5,-96 355.5,-96 355.5,-102 349.5,-108 343.5,-108"/>
<text text-anchor="middle" x="309.5" y="-87.5" font-family="sans" font-size="10.00">bcftools_merge</text>
</g>
<!-- 14&#45;&gt;0 -->
<g id="edge7" class="edge">
<title>14&#45;&gt;0</title>
<path fill="none" stroke="grey" stroke-width="2" d="M309.5,-71.7C309.5,-63.98 309.5,-54.71 309.5,-46.11"/>
<polygon fill="grey" stroke="grey" stroke-width="2" points="313,-46.1 309.5,-36.1 306,-46.1 313,-46.1"/>
</g>
<!-- 15 -->
<g id="node16" class="node">
<title>15</title>
<path fill="none" stroke="#61d856" stroke-width="2" d="M305.5,-252C305.5,-252 275.5,-252 275.5,-252 269.5,-252 263.5,-246 263.5,-240 263.5,-240 263.5,-228 263.5,-228 263.5,-222 269.5,-216 275.5,-216 275.5,-216 305.5,-216 305.5,-216 311.5,-216 317.5,-222 317.5,-228 317.5,-228 317.5,-240 317.5,-240 317.5,-246 311.5,-252 305.5,-252"/>
<text text-anchor="middle" x="290.5" y="-231.5" font-family="sans" font-size="10.00">bgzip</text>
</g>
<!-- 15&#45;&gt;14 -->
<g id="edge24" class="edge">
<title>15&#45;&gt;14</title>
<path fill="none" stroke="grey" stroke-width="2" d="M289.43,-215.8C288.65,-197.77 288.35,-168.69 292.5,-144 293.96,-135.33 296.53,-126.12 299.23,-117.86"/>
<polygon fill="grey" stroke="grey" stroke-width="2" points="302.56,-118.95 302.54,-108.35 295.95,-116.65 302.56,-118.95"/>
</g>
<!-- 17 -->
<g id="node18" class="node">
<title>17</title>
<path fill="none" stroke="#d8ac56" stroke-width="2" d="M343.5,-180C343.5,-180 313.5,-180 313.5,-180 307.5,-180 301.5,-174 301.5,-168 301.5,-168 301.5,-156 301.5,-156 301.5,-150 307.5,-144 313.5,-144 313.5,-144 343.5,-144 343.5,-144 349.5,-144 355.5,-150 355.5,-156 355.5,-156 355.5,-168 355.5,-168 355.5,-174 349.5,-180 343.5,-180"/>
<text text-anchor="middle" x="328.5" y="-159.5" font-family="sans" font-size="10.00">tabix</text>
</g>
<!-- 15&#45;&gt;17 -->
<g id="edge28" class="edge">
<title>15&#45;&gt;17</title>
<path fill="none" stroke="grey" stroke-width="2" d="M299.89,-215.7C304.26,-207.64 309.56,-197.89 314.4,-188.98"/>
<polygon fill="grey" stroke="grey" stroke-width="2" points="317.52,-190.56 319.21,-180.1 311.37,-187.22 317.52,-190.56"/>
</g>
<!-- 16&#45;&gt;15 -->
<g id="edge26" class="edge">
<title>16&#45;&gt;15</title>
<path fill="none" stroke="grey" stroke-width="2" d="M306.31,-287.7C303.97,-279.9 301.15,-270.51 298.55,-261.83"/>
<polygon fill="grey" stroke="grey" stroke-width="2" points="301.86,-260.68 295.63,-252.1 295.15,-262.69 301.86,-260.68"/>
</g>
<!-- 17&#45;&gt;14 -->
<g id="edge25" class="edge">
<title>17&#45;&gt;14</title>
<path fill="none" stroke="grey" stroke-width="2" d="M323.8,-143.7C321.69,-135.9 319.14,-126.51 316.78,-117.83"/>
<polygon fill="grey" stroke="grey" stroke-width="2" points="320.14,-116.84 314.14,-108.1 313.38,-118.67 320.14,-116.84"/>
</g>
<!-- 18 -->
<g id="node19" class="node">
<title>18</title>
<path fill="none" stroke="#70d856" stroke-width="2" d="M507,-108C507,-108 424,-108 424,-108 418,-108 412,-102 412,-96 412,-96 412,-84 412,-84 412,-78 418,-72 424,-72 424,-72 507,-72 507,-72 513,-72 519,-78 519,-84 519,-84 519,-96 519,-96 519,-102 513,-108 507,-108"/>
<text text-anchor="middle" x="465.5" y="-87.5" font-family="sans" font-size="10.00">bcftools_stats_snp</text>
</g>
<!-- 18&#45;&gt;0 -->
<g id="edge9" class="edge">
<title>18&#45;&gt;0</title>
<path fill="none" stroke="grey" stroke-width="2" d="M427.34,-71.88C402.49,-60.73 370.28,-46.27 345.81,-35.29"/>
<polygon fill="grey" stroke="grey" stroke-width="2" points="347.07,-32.02 336.51,-31.12 344.2,-38.41 347.07,-32.02"/>
</g>
<!-- 19 -->
<g id="node20" class="node">
<title>19</title>
<path fill="none" stroke="#9fd856" stroke-width="2" d="M495,-324C495,-324 440,-324 440,-324 434,-324 428,-318 428,-312 428,-312 428,-300 428,-300 428,-294 434,-288 440,-288 440,-288 495,-288 495,-288 501,-288 507,-294 507,-300 507,-300 507,-312 507,-312 507,-318 501,-324 495,-324"/>
<text text-anchor="middle" x="467.5" y="-303.5" font-family="sans" font-size="10.00">medaka_snp</text>
</g>
<!-- 19&#45;&gt;18 -->
<g id="edge29" class="edge">
<title>19&#45;&gt;18</title>
<path fill="none" stroke="grey" stroke-width="2" d="M467.34,-287.85C466.99,-250.83 466.17,-163.18 465.76,-118.39"/>
<polygon fill="grey" stroke="grey" stroke-width="2" points="469.25,-118.2 465.66,-108.23 462.25,-118.26 469.25,-118.2"/>
</g>
<!-- 20&#45;&gt;19 -->
<g id="edge30" class="edge">
<title>20&#45;&gt;19</title>
<path fill="none" stroke="grey" stroke-width="2" d="M483.31,-359.7C480.97,-351.9 478.15,-342.51 475.55,-333.83"/>
<polygon fill="grey" stroke="grey" stroke-width="2" points="478.86,-332.68 472.63,-324.1 472.15,-334.69 478.86,-332.68"/>
</g>
<!-- 21 -->
<g id="node22" class="node">
<title>21</title>
<path fill="none" stroke="#56d863" stroke-width="2" d="M571,-180C571,-180 506,-180 506,-180 500,-180 494,-174 494,-168 494,-168 494,-156 494,-156 494,-150 500,-144 506,-144 506,-144 571,-144 571,-144 577,-144 583,-150 583,-156 583,-156 583,-168 583,-168 583,-174 577,-180 571,-180"/>
<text text-anchor="middle" x="538.5" y="-159.5" font-family="sans" font-size="10.00">medaka_stitch</text>
</g>
<!-- 20&#45;&gt;21 -->
<g id="edge33" class="edge">
<title>20&#45;&gt;21</title>
<path fill="none" stroke="grey" stroke-width="2" d="M499.72,-359.54C505.64,-349.52 512.49,-336.48 516.5,-324 531.08,-278.63 536,-223.05 537.66,-190.47"/>
<polygon fill="grey" stroke="grey" stroke-width="2" points="541.16,-190.5 538.1,-180.36 534.16,-190.19 541.16,-190.5"/>
</g>
<!-- 21&#45;&gt;0 -->
<g id="edge2" class="edge">
<title>21&#45;&gt;0</title>
<path fill="none" stroke="grey" stroke-width="2" d="M541.84,-143.98C544.67,-124.18 545.88,-91.71 528.5,-72 504.8,-45.12 402.88,-29.57 346.82,-22.9"/>
<polygon fill="grey" stroke="grey" stroke-width="2" points="346.92,-19.39 336.58,-21.72 346.11,-26.34 346.92,-19.39"/>
</g>
</g>
</svg>
