<?xml version="1.0" encoding="UTF-8"?><svg xmlns="http://www.w3.org/2000/svg" xmlns:xlink="http://www.w3.org/1999/xlink" fill-opacity="1" color-rendering="auto" color-interpolation="auto" text-rendering="auto" stroke="black" stroke-linecap="square" width="556" stroke-miterlimit="10" shape-rendering="auto" stroke-opacity="1" fill="black" stroke-dasharray="none" font-weight="normal" stroke-width="1" height="121" font-family="'Dialog'" font-style="normal" stroke-linejoin="miter" font-size="12px" stroke-dashoffset="0" image-rendering="auto">
  <!--Generated by ySVG 2.6-->
  <defs id="genericDefs"/>
  <g>
    <defs id="defs1">
      <clipPath clipPathUnits="userSpaceOnUse" id="clipPath1">
        <path d="M0 0 L556 0 L556 121 L0 121 L0 0 Z"/>
      </clipPath>
      <clipPath clipPathUnits="userSpaceOnUse" id="clipPath2">
        <path d="M630 355 L1186 355 L1186 476 L630 476 L630 355 Z"/>
      </clipPath>
    </defs>
    <g fill="white" text-rendering="geometricPrecision" shape-rendering="geometricPrecision" transform="translate(-630,-355)" stroke="white">
      <rect x="630" width="556" height="121" y="355" clip-path="url(#clipPath2)" stroke="none"/>
    </g>
    <g text-rendering="geometricPrecision" stroke-miterlimit="1.45" stroke-dasharray="6,2" shape-rendering="geometricPrecision" transform="matrix(1,0,0,1,-630,-355)" stroke-linecap="butt">
      <rect x="948.3452" y="370.632" clip-path="url(#clipPath2)" fill="none" width="181.2148" rx="4" ry="4" height="30"/>
      <text x="955.3452" y="389.7863" clip-path="url(#clipPath2)" font-family="sans-serif" stroke-dasharray="none" stroke="none" xml:space="preserve">sample.trimed.snp.vcf.stats</text>
    </g>
    <g fill="rgb(0,204,255)" text-rendering="geometricPrecision" shape-rendering="geometricPrecision" transform="matrix(1,0,0,1,-630,-355)" stroke="rgb(0,204,255)">
      <rect x="823.8491" y="370.632" clip-path="url(#clipPath2)" width="94.4961" rx="4" ry="4" height="30" stroke="none"/>
    </g>
    <g text-rendering="geometricPrecision" stroke-miterlimit="1.45" shape-rendering="geometricPrecision" transform="matrix(1,0,0,1,-630,-355)" stroke-linecap="butt">
      <rect x="823.8491" y="370.632" clip-path="url(#clipPath2)" fill="none" width="94.4961" rx="4" ry="4" height="30"/>
      <text x="830.8491" xml:space="preserve" y="389.7863" clip-path="url(#clipPath2)" font-family="sans-serif" stroke="none">bcftools stats</text>
      <rect x="968.9468" y="430.632" clip-path="url(#clipPath2)" fill="none" width="201.8164" stroke-dasharray="6,2" rx="4" ry="4" height="30"/>
      <text x="975.9468" xml:space="preserve" y="449.7863" clip-path="url(#clipPath2)" font-family="sans-serif" stroke="none">sample.trimed.sv_tool.vcf.stats</text>
    </g>
    <g fill="rgb(0,204,255)" text-rendering="geometricPrecision" shape-rendering="geometricPrecision" transform="matrix(1,0,0,1,-630,-355)" stroke="rgb(0,204,255)">
      <rect x="844.4507" y="430.632" clip-path="url(#clipPath2)" width="94.4961" rx="4" ry="4" height="30" stroke="none"/>
    </g>
    <g text-rendering="geometricPrecision" stroke-miterlimit="1.45" shape-rendering="geometricPrecision" transform="matrix(1,0,0,1,-630,-355)" stroke-linecap="butt">
      <rect x="844.4507" y="430.632" clip-path="url(#clipPath2)" fill="none" width="94.4961" rx="4" ry="4" height="30"/>
      <text x="851.4507" xml:space="preserve" y="449.7863" clip-path="url(#clipPath2)" font-family="sans-serif" stroke="none">bcftools stats</text>
      <rect x="645.7163" y="370.632" clip-path="url(#clipPath2)" fill="none" width="148.1328" stroke-dasharray="6,2" rx="4" ry="4" height="30"/>
      <text x="652.7163" xml:space="preserve" y="389.7863" clip-path="url(#clipPath2)" font-family="sans-serif" stroke="none">sample.trimed.snp.vcf</text>
      <rect x="645.7163" y="430.632" clip-path="url(#clipPath2)" fill="none" width="168.7344" stroke-dasharray="6,2" rx="4" ry="4" height="30"/>
      <text x="652.7163" xml:space="preserve" y="449.7863" clip-path="url(#clipPath2)" font-family="sans-serif" stroke="none">sample.trimed.sv_tool.vcf</text>
      <path fill="none" d="M918.3475 385.632 L940.3516 385.632" clip-path="url(#clipPath2)"/>
      <path d="M948.3516 385.632 L936.3516 380.632 L939.3516 385.632 L936.3516 390.632 Z" clip-path="url(#clipPath2)" stroke="none"/>
      <path fill="none" d="M938.978 445.632 L960.9174 445.632" clip-path="url(#clipPath2)"/>
      <path d="M968.9174 445.632 L956.9174 440.632 L959.9174 445.632 L956.9174 450.632 Z" clip-path="url(#clipPath2)" stroke="none"/>
      <path fill="none" d="M793.8514 385.632 L815.837 385.632" clip-path="url(#clipPath2)"/>
      <path d="M823.837 385.632 L811.837 380.632 L814.837 385.632 L811.837 390.632 Z" clip-path="url(#clipPath2)" stroke="none"/>
      <path fill="none" d="M814.4817 445.632 L836.4561 445.632" clip-path="url(#clipPath2)"/>
      <path d="M844.4561 445.632 L832.4561 440.632 L835.4561 445.632 L832.4561 450.632 Z" clip-path="url(#clipPath2)" stroke="none"/>
    </g>
  </g>
</svg>
