<?xml version="1.0" encoding="UTF-8"?><svg xmlns="http://www.w3.org/2000/svg" xmlns:xlink="http://www.w3.org/1999/xlink" fill-opacity="1" color-rendering="auto" color-interpolation="auto" text-rendering="auto" stroke="black" stroke-linecap="square" width="631" stroke-miterlimit="10" shape-rendering="auto" stroke-opacity="1" fill="black" stroke-dasharray="none" font-weight="normal" stroke-width="1" height="120" font-family="'Dialog'" font-style="normal" stroke-linejoin="miter" font-size="12px" stroke-dashoffset="0" image-rendering="auto">
  <!--Generated by ySVG 2.6-->
  <defs id="genericDefs"/>
  <g>
    <defs id="defs1">
      <clipPath clipPathUnits="userSpaceOnUse" id="clipPath1">
        <path d="M0 0 L631 0 L631 120 L0 120 L0 0 Z"/>
      </clipPath>
      <clipPath clipPathUnits="userSpaceOnUse" id="clipPath2">
        <path d="M-15 207 L616 207 L616 327 L-15 327 L-15 207 Z"/>
      </clipPath>
    </defs>
    <g fill="white" text-rendering="geometricPrecision" shape-rendering="geometricPrecision" transform="translate(15,-207)" stroke="white">
      <rect x="-15" width="631" height="120" y="207" clip-path="url(#clipPath2)" stroke="none"/>
    </g>
    <g text-rendering="geometricPrecision" stroke-miterlimit="1.45" stroke-dasharray="6,2" shape-rendering="geometricPrecision" transform="matrix(1,0,0,1,15,-207)" stroke-linecap="butt">
      <rect x="22.6582" y="222" clip-path="url(#clipPath2)" fill="none" width="226.7188" rx="4" ry="4" height="30"/>
      <text x="29.6582" y="241.1543" clip-path="url(#clipPath2)" font-family="sans-serif" stroke-dasharray="none" stroke="none" xml:space="preserve">sample.trimed.mapped.sorted.bam</text>
      <rect x="0.5391" y="282" clip-path="url(#clipPath2)" fill="none" width="248.8379" rx="4" ry="4" height="30"/>
      <text x="7.5391" y="301.1543" clip-path="url(#clipPath2)" font-family="sans-serif" stroke-dasharray="none" stroke="none" xml:space="preserve">sample.trimed.mapped.sorted.bam.bai</text>
    </g>
    <g fill="rgb(0,204,255)" text-rendering="geometricPrecision" shape-rendering="geometricPrecision" transform="matrix(1,0,0,1,15,-207)" stroke="rgb(0,204,255)">
      <rect x="309.377" y="222" clip-path="url(#clipPath2)" width="98.1523" rx="4" ry="4" height="30" stroke="none"/>
    </g>
    <g text-rendering="geometricPrecision" stroke-miterlimit="1.45" shape-rendering="geometricPrecision" transform="matrix(1,0,0,1,15,-207)" stroke-linecap="butt">
      <rect x="309.377" y="222" clip-path="url(#clipPath2)" fill="none" width="98.1523" rx="4" ry="4" height="30"/>
      <text x="316.377" xml:space="preserve" y="241.1543" clip-path="url(#clipPath2)" font-family="sans-serif" stroke="none">bamCoverage</text>
    </g>
    <g fill="rgb(0,204,255)" text-rendering="geometricPrecision" shape-rendering="geometricPrecision" transform="matrix(1,0,0,1,15,-207)" stroke="rgb(0,204,255)">
      <rect x="309.377" y="282" clip-path="url(#clipPath2)" width="94.4902" rx="4" ry="4" height="30" stroke="none"/>
    </g>
    <g text-rendering="geometricPrecision" stroke-miterlimit="1.45" shape-rendering="geometricPrecision" transform="matrix(1,0,0,1,15,-207)" stroke-linecap="butt">
      <rect x="309.377" y="282" clip-path="url(#clipPath2)" fill="none" width="94.4902" rx="4" ry="4" height="30"/>
      <text x="316.377" xml:space="preserve" y="301.1543" clip-path="url(#clipPath2)" font-family="sans-serif" stroke="none">plotCoverage</text>
      <rect x="437.5293" y="222" clip-path="url(#clipPath2)" fill="none" width="162.6641" stroke-dasharray="6,2" rx="4" ry="4" height="30"/>
      <text x="444.5293" xml:space="preserve" y="241.1543" clip-path="url(#clipPath2)" font-family="sans-serif" stroke="none">sample.trimed.bedgraph</text>
      <rect x="433.8672" y="282" clip-path="url(#clipPath2)" fill="none" width="124.3789" stroke-dasharray="6,2" rx="4" ry="4" height="30"/>
      <text x="440.8672" xml:space="preserve" y="301.1543" clip-path="url(#clipPath2)" font-family="sans-serif" stroke="none">sample.trimed.pdf</text>
      <path fill="none" d="M249.3822 237 L279.3771 237 L279.3771 297 L249.4057 297" clip-path="url(#clipPath2)"/>
      <path fill="none" d="M279.3959 264.5537 L307.8574 254.6341" clip-path="url(#clipPath2)"/>
      <path d="M315.4117 252.0012 L302.4346 251.2291 L306.9131 254.9632 L305.7258 260.672 Z" clip-path="url(#clipPath2)" stroke="none"/>
      <path fill="none" d="M279.4111 269.5049 L306.974 279.3201" clip-path="url(#clipPath2)"/>
      <path d="M314.5104 282.0039 L304.8831 273.268 L306.032 278.9846 L301.5284 282.6885 Z" clip-path="url(#clipPath2)" stroke="none"/>
      <path fill="none" d="M407.5233 237 L429.5052 237" clip-path="url(#clipPath2)"/>
      <path d="M437.5052 237 L425.5052 232 L428.5052 237 L425.5052 242 Z" clip-path="url(#clipPath2)" stroke="none"/>
      <path fill="none" d="M403.8378 297 L425.872 297" clip-path="url(#clipPath2)"/>
      <path d="M433.872 297 L421.872 292 L424.872 297 L421.872 302 Z" clip-path="url(#clipPath2)" stroke="none"/>
    </g>
  </g>
</svg>
