<?xml version="1.0" encoding="UTF-8"?><svg xmlns="http://www.w3.org/2000/svg" xmlns:xlink="http://www.w3.org/1999/xlink" fill-opacity="1" color-rendering="auto" color-interpolation="auto" text-rendering="auto" stroke="black" stroke-linecap="square" width="489" stroke-miterlimit="10" shape-rendering="auto" stroke-opacity="1" fill="black" stroke-dasharray="none" font-weight="normal" stroke-width="1" height="60" font-family="'Dialog'" font-style="normal" stroke-linejoin="miter" font-size="12px" stroke-dashoffset="0" image-rendering="auto">
  <!--Generated by ySVG 2.6-->
  <defs id="genericDefs"/>
  <g>
    <defs id="defs1">
      <clipPath clipPathUnits="userSpaceOnUse" id="clipPath1">
        <path d="M0 0 L489 0 L489 60 L0 60 L0 0 Z"/>
      </clipPath>
      <clipPath clipPathUnits="userSpaceOnUse" id="clipPath2">
        <path d="M124 207 L613 207 L613 267 L124 267 L124 207 Z"/>
      </clipPath>
    </defs>
    <g fill="white" text-rendering="geometricPrecision" shape-rendering="geometricPrecision" transform="translate(-124,-207)" stroke="white">
      <rect x="124" width="489" height="60" y="207" clip-path="url(#clipPath2)" stroke="none"/>
    </g>
    <g fill="rgb(0,204,255)" text-rendering="geometricPrecision" shape-rendering="geometricPrecision" transform="matrix(1,0,0,1,-124,-207)" stroke="rgb(0,204,255)">
      <rect x="299.6387" y="222" clip-path="url(#clipPath2)" width="117.6289" rx="4" ry="4" height="30" stroke="none"/>
    </g>
    <g text-rendering="geometricPrecision" stroke-miterlimit="1.45" shape-rendering="geometricPrecision" transform="matrix(1,0,0,1,-124,-207)" stroke-linecap="butt">
      <rect x="299.6387" y="222" clip-path="url(#clipPath2)" fill="none" width="117.6289" rx="4" ry="4" height="30"/>
      <text x="306.6387" xml:space="preserve" y="241.1543" clip-path="url(#clipPath2)" font-family="sans-serif" stroke="none">samtools flagstat</text>
      <rect x="447.2676" y="222" clip-path="url(#clipPath2)" fill="none" width="150.4648" stroke-dasharray="6,2" rx="4" ry="4" height="30"/>
      <text x="454.2676" xml:space="preserve" y="241.1543" clip-path="url(#clipPath2)" font-family="sans-serif" stroke="none">sample.trimed.flagstat</text>
      <rect x="139.4238" y="222" clip-path="url(#clipPath2)" fill="none" width="130.2148" stroke-dasharray="6,2" rx="4" ry="4" height="30"/>
      <text x="146.4238" xml:space="preserve" y="241.1543" clip-path="url(#clipPath2)" font-family="sans-serif" stroke="none">sample.trimed.sam</text>
      <path fill="none" d="M417.2873 237 L439.2637 237" clip-path="url(#clipPath2)"/>
      <path d="M447.2637 237 L435.2637 232 L438.2637 237 L435.2637 242 Z" clip-path="url(#clipPath2)" stroke="none"/>
      <path fill="none" d="M269.6549 237 L291.6157 237" clip-path="url(#clipPath2)"/>
      <path d="M299.6157 237 L287.6157 232 L290.6157 237 L287.6157 242 Z" clip-path="url(#clipPath2)" stroke="none"/>
    </g>
  </g>
</svg>
