<?xml version="1.0" encoding="UTF-8"?><svg xmlns="http://www.w3.org/2000/svg" xmlns:xlink="http://www.w3.org/1999/xlink" fill-opacity="1" color-rendering="auto" color-interpolation="auto" text-rendering="auto" stroke="black" stroke-linecap="square" width="1179" stroke-miterlimit="10" shape-rendering="auto" stroke-opacity="1" fill="black" stroke-dasharray="none" font-weight="normal" stroke-width="1" height="60" font-family="'Dialog'" font-style="normal" stroke-linejoin="miter" font-size="12px" stroke-dashoffset="0" image-rendering="auto">
  <!--Generated by ySVG 2.6-->
  <defs id="genericDefs"/>
  <g>
    <defs id="defs1">
      <clipPath clipPathUnits="userSpaceOnUse" id="clipPath1">
        <path d="M0 0 L1179 0 L1179 60 L0 60 L0 0 Z"/>
      </clipPath>
      <clipPath clipPathUnits="userSpaceOnUse" id="clipPath2">
        <path d="M241 356 L1420 356 L1420 416 L241 416 L241 356 Z"/>
      </clipPath>
    </defs>
    <g fill="white" text-rendering="geometricPrecision" shape-rendering="geometricPrecision" transform="translate(-241,-356)" stroke="white">
      <rect x="241" width="1179" height="60" y="356" clip-path="url(#clipPath2)" stroke="none"/>
    </g>
    <g fill="rgb(255,102,0)" text-rendering="geometricPrecision" shape-rendering="geometricPrecision" transform="matrix(1,0,0,1,-241,-356)" stroke="rgb(255,102,0)">
      <rect x="443.3193" y="371" clip-path="url(#clipPath2)" width="74.2578" rx="4" ry="4" height="30" stroke="none"/>
    </g>
    <g text-rendering="geometricPrecision" stroke-miterlimit="1.45" shape-rendering="geometricPrecision" transform="matrix(1,0,0,1,-241,-356)" stroke-linecap="butt">
      <rect x="443.3193" y="371" clip-path="url(#clipPath2)" fill="none" width="74.2578" rx="4" ry="4" height="30"/>
      <text x="450.3193" xml:space="preserve" y="390.1543" clip-path="url(#clipPath2)" font-family="sans-serif" stroke="none">minimap2</text>
    </g>
    <g fill="rgb(255,102,0)" text-rendering="geometricPrecision" shape-rendering="geometricPrecision" transform="matrix(1,0,0,1,-241,-356)" stroke="rgb(255,102,0)">
      <rect x="707.792" y="371" clip-path="url(#clipPath2)" width="99.7168" rx="4" ry="4" height="30" stroke="none"/>
    </g>
    <g text-rendering="geometricPrecision" stroke-miterlimit="1.45" shape-rendering="geometricPrecision" transform="matrix(1,0,0,1,-241,-356)" stroke-linecap="butt">
      <rect x="707.792" y="371" clip-path="url(#clipPath2)" fill="none" width="99.7168" rx="4" ry="4" height="30"/>
      <text x="714.792" xml:space="preserve" y="390.1543" clip-path="url(#clipPath2)" font-family="sans-serif" stroke="none">samtools view</text>
    </g>
    <g fill="rgb(255,102,0)" text-rendering="geometricPrecision" shape-rendering="geometricPrecision" transform="matrix(1,0,0,1,-241,-356)" stroke="rgb(255,102,0)">
      <rect x="1052.1807" y="371" clip-path="url(#clipPath2)" width="95.3164" rx="4" ry="4" height="30" stroke="none"/>
    </g>
    <g text-rendering="geometricPrecision" stroke-miterlimit="1.45" shape-rendering="geometricPrecision" transform="matrix(1,0,0,1,-241,-356)" stroke-linecap="butt">
      <rect x="1052.1807" y="371" clip-path="url(#clipPath2)" fill="none" width="95.3164" rx="4" ry="4" height="30"/>
      <text x="1059.1807" xml:space="preserve" y="390.1543" clip-path="url(#clipPath2)" font-family="sans-serif" stroke="none">samtools sort</text>
      <rect x="256.4736" y="371" clip-path="url(#clipPath2)" fill="none" width="156.8457" stroke-dasharray="6,2" rx="4" ry="4" height="30"/>
      <text x="263.4736" xml:space="preserve" y="390.1543" clip-path="url(#clipPath2)" font-family="sans-serif" stroke="none">sample.trimed.fastq/.gz</text>
      <rect x="547.5771" y="371" clip-path="url(#clipPath2)" fill="none" width="130.2148" stroke-dasharray="6,2" rx="4" ry="4" height="30"/>
      <text x="554.5771" xml:space="preserve" y="390.1543" clip-path="url(#clipPath2)" font-family="sans-serif" stroke="none">sample.trimed.sam</text>
      <rect x="837.5088" y="371" clip-path="url(#clipPath2)" fill="none" width="184.6719" stroke-dasharray="6,2" rx="4" ry="4" height="30"/>
      <text x="844.5088" xml:space="preserve" y="390.1543" clip-path="url(#clipPath2)" font-family="sans-serif" stroke="none">sample.trimed.mapped.bam</text>
      <rect x="1177.4971" y="371" clip-path="url(#clipPath2)" fill="none" width="226.7188" stroke-dasharray="6,2" rx="4" ry="4" height="30"/>
      <text x="1184.4971" xml:space="preserve" y="390.1543" clip-path="url(#clipPath2)" font-family="sans-serif" stroke="none">sample.trimed.mapped.sorted.bam</text>
      <path fill="none" d="M413.3224 386 L435.3127 386" clip-path="url(#clipPath2)"/>
      <path d="M443.3127 386 L431.3127 381 L434.3127 386 L431.3127 391 Z" clip-path="url(#clipPath2)" stroke="none"/>
      <path fill="none" d="M517.6074 386 L539.5511 386" clip-path="url(#clipPath2)"/>
      <path d="M547.5511 386 L535.5511 381 L538.5511 386 L535.5511 391 Z" clip-path="url(#clipPath2)" stroke="none"/>
      <path fill="none" d="M677.7706 386 L699.7645 386" clip-path="url(#clipPath2)"/>
      <path d="M707.7645 386 L695.7645 381 L698.7645 386 L695.7645 391 Z" clip-path="url(#clipPath2)" stroke="none"/>
      <path fill="none" d="M807.4673 386 L829.494 386" clip-path="url(#clipPath2)"/>
      <path d="M837.494 386 L825.494 381 L828.494 386 L825.494 391 Z" clip-path="url(#clipPath2)" stroke="none"/>
      <path fill="none" d="M1022.1877 386 L1044.179 386" clip-path="url(#clipPath2)"/>
      <path d="M1052.179 386 L1040.179 381 L1043.179 386 L1040.179 391 Z" clip-path="url(#clipPath2)" stroke="none"/>
      <path fill="none" d="M1147.4534 386 L1169.5273 386" clip-path="url(#clipPath2)"/>
      <path d="M1177.5273 386 L1165.5273 381 L1168.5273 386 L1165.5273 391 Z" clip-path="url(#clipPath2)" stroke="none"/>
    </g>
  </g>
</svg>
