<?xml version="1.0" encoding="UTF-8"?><svg xmlns="http://www.w3.org/2000/svg" xmlns:xlink="http://www.w3.org/1999/xlink" fill-opacity="1" color-rendering="auto" color-interpolation="auto" text-rendering="auto" stroke="black" stroke-linecap="square" width="645" stroke-miterlimit="10" shape-rendering="auto" stroke-opacity="1" fill="black" stroke-dasharray="none" font-weight="normal" stroke-width="1" height="241" font-family="'Dialog'" font-style="normal" stroke-linejoin="miter" font-size="12px" stroke-dashoffset="0" image-rendering="auto">
  <!--Generated by ySVG 2.6-->
  <defs id="genericDefs"/>
  <g>
    <defs id="defs1">
      <clipPath clipPathUnits="userSpaceOnUse" id="clipPath1">
        <path d="M0 0 L645 0 L645 241 L0 241 L0 0 Z"/>
      </clipPath>
      <clipPath clipPathUnits="userSpaceOnUse" id="clipPath2">
        <path d="M606 252 L1251 252 L1251 493 L606 493 L606 252 Z"/>
      </clipPath>
    </defs>
    <g fill="white" text-rendering="geometricPrecision" shape-rendering="geometricPrecision" transform="translate(-606,-252)" stroke="white">
      <rect x="606" width="645" height="241" y="252" clip-path="url(#clipPath2)" stroke="none"/>
    </g>
    <g text-rendering="geometricPrecision" stroke-miterlimit="1.45" stroke-dasharray="6,2" shape-rendering="geometricPrecision" transform="matrix(1,0,0,1,-606,-252)" stroke-linecap="butt">
      <rect x="644.0635" y="297.72" clip-path="url(#clipPath2)" fill="none" width="226.7188" rx="4" ry="4" height="30"/>
      <text x="651.0635" y="316.8743" clip-path="url(#clipPath2)" font-family="sans-serif" stroke-dasharray="none" stroke="none" xml:space="preserve">sample.trimed.mapped.sorted.bam</text>
      <rect x="621.9443" y="357.72" clip-path="url(#clipPath2)" fill="none" width="248.8379" rx="4" ry="4" height="30"/>
      <text x="628.9443" y="376.8743" clip-path="url(#clipPath2)" font-family="sans-serif" stroke-dasharray="none" stroke="none" xml:space="preserve">sample.trimed.mapped.sorted.bam.bai</text>
    </g>
    <g fill="rgb(153,204,0)" text-rendering="geometricPrecision" shape-rendering="geometricPrecision" transform="matrix(1,0,0,1,-606,-252)" stroke="rgb(153,204,0)">
      <rect x="944.29" y="267.72" clip-path="url(#clipPath2)" width="56.6094" rx="4" ry="4" height="30" stroke="none"/>
    </g>
    <g text-rendering="geometricPrecision" stroke-miterlimit="1.45" shape-rendering="geometricPrecision" transform="matrix(1,0,0,1,-606,-252)" stroke-linecap="butt">
      <rect x="944.29" y="267.72" clip-path="url(#clipPath2)" fill="none" width="56.6094" rx="4" ry="4" height="30"/>
      <text x="951.29" xml:space="preserve" y="286.8743" clip-path="url(#clipPath2)" font-family="sans-serif" stroke="none">sniffles</text>
      <rect x="1031.3916" y="267.72" clip-path="url(#clipPath2)" fill="none" width="188.6211" stroke-dasharray="6,2" rx="4" ry="4" height="30"/>
      <text x="1038.3916" xml:space="preserve" y="286.8743" clip-path="url(#clipPath2)" font-family="sans-serif" stroke="none">sample.trimed.sv_sniffles.vcf</text>
    </g>
    <g fill="rgb(153,204,0)" text-rendering="geometricPrecision" shape-rendering="geometricPrecision" transform="matrix(1,0,0,1,-606,-252)" stroke="rgb(153,204,0)">
      <rect x="944.7822" y="327.72" clip-path="url(#clipPath2)" width="56.1172" rx="4" ry="4" height="30" stroke="none"/>
    </g>
    <g text-rendering="geometricPrecision" stroke-miterlimit="1.45" shape-rendering="geometricPrecision" transform="matrix(1,0,0,1,-606,-252)" stroke-linecap="butt">
      <rect x="944.7822" y="327.72" clip-path="url(#clipPath2)" fill="none" width="56.1172" rx="4" ry="4" height="30"/>
      <text x="951.7822" xml:space="preserve" y="346.8743" clip-path="url(#clipPath2)" font-family="sans-serif" stroke="none">cuteSV</text>
      <rect x="1030.8994" y="327.72" clip-path="url(#clipPath2)" fill="none" width="185.6562" stroke-dasharray="6,2" rx="4" ry="4" height="30"/>
      <text x="1037.8994" xml:space="preserve" y="346.8743" clip-path="url(#clipPath2)" font-family="sans-serif" stroke="none">sample.trimed.sv_cutesv.vcf</text>
    </g>
    <g fill="rgb(153,204,0)" text-rendering="geometricPrecision" shape-rendering="geometricPrecision" transform="matrix(1,0,0,1,-606,-252)" stroke="rgb(153,204,0)">
      <rect x="944.7822" y="387.72" clip-path="url(#clipPath2)" width="42.377" rx="4" ry="4" height="30" stroke="none"/>
    </g>
    <g text-rendering="geometricPrecision" stroke-miterlimit="1.45" shape-rendering="geometricPrecision" transform="matrix(1,0,0,1,-606,-252)" stroke-linecap="butt">
      <rect x="944.7822" y="387.72" clip-path="url(#clipPath2)" fill="none" width="42.377" rx="4" ry="4" height="30"/>
      <text x="951.7822" xml:space="preserve" y="406.8743" clip-path="url(#clipPath2)" font-family="sans-serif" stroke="none">svim</text>
    </g>
    <g fill="rgb(153,204,0)" text-rendering="geometricPrecision" shape-rendering="geometricPrecision" transform="matrix(1,0,0,1,-606,-252)" stroke="rgb(153,204,0)">
      <rect x="944.7822" y="447.72" clip-path="url(#clipPath2)" width="65.7734" rx="4" ry="4" height="30" stroke="none"/>
    </g>
    <g text-rendering="geometricPrecision" stroke-miterlimit="1.45" shape-rendering="geometricPrecision" transform="matrix(1,0,0,1,-606,-252)" stroke-linecap="butt">
      <rect x="944.7822" y="447.72" clip-path="url(#clipPath2)" fill="none" width="65.7734" rx="4" ry="4" height="30"/>
      <text x="951.7822" xml:space="preserve" y="466.8743" clip-path="url(#clipPath2)" font-family="sans-serif" stroke="none">NanoVar</text>
      <rect x="1017.1592" y="387.72" clip-path="url(#clipPath2)" fill="none" width="174.3887" stroke-dasharray="6,2" rx="4" ry="4" height="30"/>
      <text x="1024.1592" xml:space="preserve" y="406.8743" clip-path="url(#clipPath2)" font-family="sans-serif" stroke="none">sample.trimed.sv_svim.vcf</text>
      <rect x="1040.5557" y="447.72" clip-path="url(#clipPath2)" fill="none" width="195.3066" stroke-dasharray="6,2" rx="4" ry="4" height="30"/>
      <text x="1047.5557" xml:space="preserve" y="466.8743" clip-path="url(#clipPath2)" font-family="sans-serif" stroke="none">sample.trimed.sv_nanovar.vcf</text>
      <rect x="765.2529" y="417.72" clip-path="url(#clipPath2)" fill="none" width="105.5293" stroke-dasharray="6,2" rx="4" ry="4" height="30"/>
      <text x="772.2529" xml:space="preserve" y="436.8743" clip-path="url(#clipPath2)" font-family="sans-serif" stroke="none">reference.fasta</text>
      <path fill="none" d="M1000.8912 282.72 L1023.3931 282.72" clip-path="url(#clipPath2)"/>
      <path d="M1031.3931 282.72 L1019.3931 277.72 L1022.3931 282.72 L1019.3931 287.72 Z" clip-path="url(#clipPath2)" stroke="none"/>
      <path fill="none" d="M900.7668 364.7439 L954.1898 303.7375" clip-path="url(#clipPath2)"/>
      <path d="M959.4602 297.719 L947.793 303.4528 L953.531 304.4899 L955.3162 310.0408 Z" clip-path="url(#clipPath2)" stroke="none"/>
      <path fill="none" d="M900.7693 370.0686 L937.3139 356.2012" clip-path="url(#clipPath2)"/>
      <path d="M944.7935 353.363 L931.8002 352.9456 L936.379 356.556 L935.348 362.2951 Z" clip-path="url(#clipPath2)" stroke="none"/>
      <path fill="none" d="M1000.8742 342.72 L1022.8977 342.72" clip-path="url(#clipPath2)"/>
      <path d="M1030.8977 342.72 L1018.8977 337.72 L1021.8977 342.72 L1018.8977 347.72 Z" clip-path="url(#clipPath2)" stroke="none"/>
      <path fill="none" d="M900.7966 375.635 L937.4208 390.8553" clip-path="url(#clipPath2)"/>
      <path d="M944.8082 393.9253 L935.6458 384.703 L936.4973 390.4715 L931.8082 393.9374 Z" clip-path="url(#clipPath2)" stroke="none"/>
      <path fill="none" d="M900.7659 380.2127 L958.2269 441.8611" clip-path="url(#clipPath2)"/>
      <path d="M963.6815 447.7132 L959.1571 435.5258 L957.545 441.1295 L951.842 442.3441 Z" clip-path="url(#clipPath2)" stroke="none"/>
      <path fill="none" d="M987.1538 402.72 L1009.1691 402.72" clip-path="url(#clipPath2)"/>
      <path d="M1017.1691 402.72 L1005.1691 397.72 L1008.1691 402.72 L1005.1691 407.72 Z" clip-path="url(#clipPath2)" stroke="none"/>
      <path fill="none" d="M1010.553 462.72 L1032.5659 462.72" clip-path="url(#clipPath2)"/>
      <path d="M1040.5659 462.72 L1028.5659 457.72 L1031.5659 462.72 L1028.5659 467.72 Z" clip-path="url(#clipPath2)" stroke="none"/>
      <path fill="none" d="M870.7764 432.72 L900.8145 432.72 L900.8145 312.72 L870.8129 312.72" clip-path="url(#clipPath2)"/>
      <path fill="none" d="M870.7772 372.72 L900.8077 372.72" clip-path="url(#clipPath2)"/>
    </g>
  </g>
</svg>
