<?xml version="1.0" encoding="UTF-8"?><svg xmlns="http://www.w3.org/2000/svg" xmlns:xlink="http://www.w3.org/1999/xlink" fill-opacity="1" color-rendering="auto" color-interpolation="auto" text-rendering="auto" stroke="black" stroke-linecap="square" width="672" stroke-miterlimit="10" shape-rendering="auto" stroke-opacity="1" fill="black" stroke-dasharray="none" font-weight="normal" stroke-width="1" height="60" font-family="'Dialog'" font-style="normal" stroke-linejoin="miter" font-size="12px" stroke-dashoffset="0" image-rendering="auto">
  <!--Generated by ySVG 2.6-->
  <defs id="genericDefs"/>
  <g>
    <defs id="defs1">
      <clipPath clipPathUnits="userSpaceOnUse" id="clipPath1">
        <path d="M0 0 L672 0 L672 60 L0 60 L0 0 Z"/>
      </clipPath>
      <clipPath clipPathUnits="userSpaceOnUse" id="clipPath2">
        <path d="M320 258 L992 258 L992 318 L320 318 L320 258 Z"/>
      </clipPath>
    </defs>
    <g fill="white" text-rendering="geometricPrecision" shape-rendering="geometricPrecision" transform="translate(-320,-258)" stroke="white">
      <rect x="320" width="672" height="60" y="258" clip-path="url(#clipPath2)" stroke="none"/>
    </g>
    <g fill="rgb(255,102,0)" text-rendering="geometricPrecision" shape-rendering="geometricPrecision" transform="matrix(1,0,0,1,-320,-258)" stroke="rgb(255,102,0)">
      <rect x="592.4375" y="273" clip-path="url(#clipPath2)" width="105.125" rx="4" ry="4" height="30" stroke="none"/>
    </g>
    <g text-rendering="geometricPrecision" stroke-miterlimit="1.45" shape-rendering="geometricPrecision" transform="matrix(1,0,0,1,-320,-258)" stroke-linecap="butt">
      <rect x="592.4375" y="273" clip-path="url(#clipPath2)" fill="none" width="105.125" rx="4" ry="4" height="30"/>
      <text x="599.4375" xml:space="preserve" y="292.1543" clip-path="url(#clipPath2)" font-family="sans-serif" stroke="none">samtools index</text>
      <rect x="335.7188" y="273" clip-path="url(#clipPath2)" fill="none" width="226.7188" stroke-dasharray="6,2" rx="4" ry="4" height="30"/>
      <text x="342.7188" xml:space="preserve" y="292.1543" clip-path="url(#clipPath2)" font-family="sans-serif" stroke="none">sample.trimed.mapped.sorted.bam</text>
      <rect x="727.5625" y="273" clip-path="url(#clipPath2)" fill="none" width="248.8379" stroke-dasharray="6,2" rx="4" ry="4" height="30"/>
      <text x="734.5625" xml:space="preserve" y="292.1543" clip-path="url(#clipPath2)" font-family="sans-serif" stroke="none">sample.trimed.mapped.sorted.bam.bai</text>
      <path fill="none" d="M562.3933 288 L584.4431 288" clip-path="url(#clipPath2)"/>
      <path d="M592.4431 288 L580.4431 283 L583.4431 288 L580.4431 293 Z" clip-path="url(#clipPath2)" stroke="none"/>
      <path fill="none" d="M697.5792 288 L719.5474 288" clip-path="url(#clipPath2)"/>
      <path d="M727.5474 288 L715.5474 283 L718.5474 288 L715.5474 293 Z" clip-path="url(#clipPath2)" stroke="none"/>
    </g>
  </g>
</svg>
