<?xml version="1.0" encoding="UTF-8"?><svg xmlns="http://www.w3.org/2000/svg" xmlns:xlink="http://www.w3.org/1999/xlink" fill-opacity="1" color-rendering="auto" color-interpolation="auto" text-rendering="auto" stroke="black" stroke-linecap="square" width="1184" stroke-miterlimit="10" shape-rendering="auto" stroke-opacity="1" fill="black" stroke-dasharray="none" font-weight="normal" stroke-width="1" height="120" font-family="'Dialog'" font-style="normal" stroke-linejoin="miter" font-size="12px" stroke-dashoffset="0" image-rendering="auto">
  <!--Generated by ySVG 2.6-->
  <defs id="genericDefs"/>
  <g>
    <defs id="defs1">
      <clipPath clipPathUnits="userSpaceOnUse" id="clipPath1">
        <path d="M0 0 L1184 0 L1184 120 L0 120 L0 0 Z"/>
      </clipPath>
      <clipPath clipPathUnits="userSpaceOnUse" id="clipPath2">
        <path d="M114 177 L1298 177 L1298 297 L114 297 L114 177 Z"/>
      </clipPath>
    </defs>
    <g fill="white" text-rendering="geometricPrecision" shape-rendering="geometricPrecision" transform="translate(-114,-177)" stroke="white">
      <rect x="114" width="1184" height="120" y="177" clip-path="url(#clipPath2)" stroke="none"/>
    </g>
    <g fill="rgb(255,102,0)" text-rendering="geometricPrecision" shape-rendering="geometricPrecision" transform="matrix(1,0,0,1,-114,-177)" stroke="rgb(255,102,0)">
      <rect x="321.3242" y="222" clip-path="url(#clipPath2)" width="74.2578" rx="4" ry="4" height="30" stroke="none"/>
    </g>
    <g text-rendering="geometricPrecision" stroke-miterlimit="1.45" shape-rendering="geometricPrecision" transform="matrix(1,0,0,1,-114,-177)" stroke-linecap="butt">
      <rect x="321.3242" y="222" clip-path="url(#clipPath2)" fill="none" width="74.2578" rx="4" ry="4" height="30"/>
      <text x="328.3242" xml:space="preserve" y="241.1543" clip-path="url(#clipPath2)" font-family="sans-serif" stroke="none">minimap2</text>
      <rect x="425.582" y="222" clip-path="url(#clipPath2)" fill="none" width="130.2148" stroke-dasharray="6,2" rx="4" ry="4" height="30"/>
      <text x="432.582" xml:space="preserve" y="241.1543" clip-path="url(#clipPath2)" font-family="sans-serif" stroke="none">sample.trimed.sam</text>
      <rect x="129.1582" y="192" clip-path="url(#clipPath2)" fill="none" width="162.166" stroke-dasharray="6,2" rx="4" ry="4" height="30"/>
      <text x="136.1582" xml:space="preserve" y="211.1543" clip-path="url(#clipPath2)" font-family="sans-serif" stroke="none">sample.trimed.fastq[.gz]</text>
    </g>
    <g fill="rgb(255,102,0)" text-rendering="geometricPrecision" shape-rendering="geometricPrecision" transform="matrix(1,0,0,1,-114,-177)" stroke="rgb(255,102,0)">
      <rect x="585.7969" y="222" clip-path="url(#clipPath2)" width="99.7168" rx="4" ry="4" height="30" stroke="none"/>
    </g>
    <g text-rendering="geometricPrecision" stroke-miterlimit="1.45" shape-rendering="geometricPrecision" transform="matrix(1,0,0,1,-114,-177)" stroke-linecap="butt">
      <rect x="585.7969" y="222" clip-path="url(#clipPath2)" fill="none" width="99.7168" rx="4" ry="4" height="30"/>
      <text x="592.7969" xml:space="preserve" y="241.1543" clip-path="url(#clipPath2)" font-family="sans-serif" stroke="none">samtools view</text>
    </g>
    <g fill="rgb(255,102,0)" text-rendering="geometricPrecision" shape-rendering="geometricPrecision" transform="matrix(1,0,0,1,-114,-177)" stroke="rgb(255,102,0)">
      <rect x="930.1855" y="222" clip-path="url(#clipPath2)" width="95.3164" rx="4" ry="4" height="30" stroke="none"/>
    </g>
    <g text-rendering="geometricPrecision" stroke-miterlimit="1.45" shape-rendering="geometricPrecision" transform="matrix(1,0,0,1,-114,-177)" stroke-linecap="butt">
      <rect x="930.1855" y="222" clip-path="url(#clipPath2)" fill="none" width="95.3164" rx="4" ry="4" height="30"/>
      <text x="937.1855" xml:space="preserve" y="241.1543" clip-path="url(#clipPath2)" font-family="sans-serif" stroke="none">samtools sort</text>
      <rect x="715.5137" y="222" clip-path="url(#clipPath2)" fill="none" width="184.6719" stroke-dasharray="6,2" rx="4" ry="4" height="30"/>
      <text x="722.5137" xml:space="preserve" y="241.1543" clip-path="url(#clipPath2)" font-family="sans-serif" stroke="none">sample.trimed.mapped.bam</text>
      <rect x="1055.502" y="222" clip-path="url(#clipPath2)" fill="none" width="226.7188" stroke-dasharray="6,2" rx="4" ry="4" height="30"/>
      <text x="1062.502" xml:space="preserve" y="241.1543" clip-path="url(#clipPath2)" font-family="sans-serif" stroke="none">sample.trimed.mapped.sorted.bam</text>
      <rect x="185.7949" y="252" clip-path="url(#clipPath2)" fill="none" width="105.5293" stroke-dasharray="6,2" rx="4" ry="4" height="30"/>
      <text x="192.7949" xml:space="preserve" y="271.1543" clip-path="url(#clipPath2)" font-family="sans-serif" stroke="none">reference.fasta</text>
      <path fill="none" d="M395.6123 237 L417.556 237" clip-path="url(#clipPath2)"/>
      <path d="M425.556 237 L413.556 232 L416.556 237 L413.556 242 Z" clip-path="url(#clipPath2)" stroke="none"/>
      <path fill="none" d="M284.311 221.9927 L313.5049 227.9019" clip-path="url(#clipPath2)"/>
      <path d="M321.3458 229.489 L310.5763 222.2077 L312.5247 227.7035 L308.5924 232.0089 Z" clip-path="url(#clipPath2)" stroke="none"/>
      <path fill="none" d="M555.7755 237 L577.7693 237" clip-path="url(#clipPath2)"/>
      <path d="M585.7693 237 L573.7693 232 L576.7693 237 L573.7693 242 Z" clip-path="url(#clipPath2)" stroke="none"/>
      <path fill="none" d="M685.4722 237 L707.4989 237" clip-path="url(#clipPath2)"/>
      <path d="M715.4989 237 L703.4989 232 L706.4989 237 L703.4989 242 Z" clip-path="url(#clipPath2)" stroke="none"/>
      <path fill="none" d="M900.1926 237 L922.1838 237" clip-path="url(#clipPath2)"/>
      <path d="M930.1838 237 L918.1838 232 L921.1838 237 L918.1838 242 Z" clip-path="url(#clipPath2)" stroke="none"/>
      <path fill="none" d="M1025.4583 237 L1047.5322 237" clip-path="url(#clipPath2)"/>
      <path d="M1055.5322 237 L1043.5322 232 L1046.5322 237 L1043.5322 242 Z" clip-path="url(#clipPath2)" stroke="none"/>
      <path fill="none" d="M290.7496 253.9409 L313.5678 248.2313" clip-path="url(#clipPath2)"/>
      <path d="M321.3286 246.2894 L308.4738 244.3518 L312.5977 248.474 L310.9012 254.0527 Z" clip-path="url(#clipPath2)" stroke="none"/>
    </g>
  </g>
</svg>
