<?xml version="1.0" encoding="UTF-8"?><svg xmlns="http://www.w3.org/2000/svg" xmlns:xlink="http://www.w3.org/1999/xlink" fill-opacity="1" color-rendering="auto" color-interpolation="auto" text-rendering="auto" stroke="black" stroke-linecap="square" width="1429" stroke-miterlimit="10" shape-rendering="auto" stroke-opacity="1" fill="black" stroke-dasharray="none" font-weight="normal" stroke-width="1" height="1471" font-family="'Dialog'" font-style="normal" stroke-linejoin="miter" font-size="12px" stroke-dashoffset="0" image-rendering="auto">
  <!--Generated by ySVG 2.6-->
  <defs id="genericDefs"/>
  <g>
    <defs id="defs1">
      <clipPath clipPathUnits="userSpaceOnUse" id="clipPath1">
        <path d="M0 0 L1429 0 L1429 1471 L0 1471 L0 0 Z"/>
      </clipPath>
      <clipPath clipPathUnits="userSpaceOnUse" id="clipPath2">
        <path d="M346 240 L1775 240 L1775 1711 L346 1711 L346 240 Z"/>
      </clipPath>
    </defs>
    <g fill="white" text-rendering="geometricPrecision" shape-rendering="geometricPrecision" transform="translate(-346,-240)" stroke="white">
      <rect x="346" width="1429" height="1471" y="240" clip-path="url(#clipPath2)" stroke="none"/>
    </g>
    <g text-rendering="geometricPrecision" stroke-miterlimit="1.45" shape-rendering="geometricPrecision" transform="matrix(1,0,0,1,-346,-240)" stroke-linecap="butt">
      <rect fill="none" x="496.8969" width="1263.0898" height="1050" y="645.2688" clip-path="url(#clipPath2)"/>
    </g>
    <g fill="rgb(0,204,255)" text-rendering="geometricPrecision" shape-rendering="geometricPrecision" transform="matrix(1,0,0,1,-346,-240)" stroke="rgb(0,204,255)">
      <rect x="969.9086" y="315.2688" clip-path="url(#clipPath2)" width="60.4824" rx="4" ry="4" height="30" stroke="none"/>
    </g>
    <g text-rendering="geometricPrecision" stroke-miterlimit="1.45" shape-rendering="geometricPrecision" transform="matrix(1,0,0,1,-346,-240)" stroke-linecap="butt">
      <rect x="969.9086" y="315.2688" clip-path="url(#clipPath2)" fill="none" width="60.4824" rx="4" ry="4" height="30"/>
      <text x="976.9086" xml:space="preserve" y="334.4232" clip-path="url(#clipPath2)" font-family="sans-serif" stroke="none">pycoQC</text>
      <rect x="917.1742" y="255.2688" clip-path="url(#clipPath2)" fill="none" width="165.9512" stroke-dasharray="6,2" rx="4" ry="4" height="30"/>
      <text x="924.1742" xml:space="preserve" y="274.4232" clip-path="url(#clipPath2)" font-family="sans-serif" stroke="none">sequencing_summary.txt</text>
      <rect x="911.7631" y="375.2688" clip-path="url(#clipPath2)" fill="none" width="176.7734" stroke-dasharray="6,2" rx="4" ry="4" height="30"/>
      <text x="918.7631" xml:space="preserve" y="394.4232" clip-path="url(#clipPath2)" font-family="sans-serif" stroke="none">sequencing_summary.html</text>
      <rect x="825.1039" y="465.2688" clip-path="url(#clipPath2)" fill="none" width="132.3242" stroke-dasharray="6,2" rx="4" ry="4" height="30"/>
      <text x="832.1039" xml:space="preserve" y="484.4232" clip-path="url(#clipPath2)" font-family="sans-serif" stroke="none">sample_1.fastq[.gz]</text>
      <rect x="1042.8715" y="465.2688" clip-path="url(#clipPath2)" fill="none" width="133.666" stroke-dasharray="6,2" rx="4" ry="4" height="30"/>
      <text x="1049.8715" xml:space="preserve" y="484.4232" clip-path="url(#clipPath2)" font-family="sans-serif" stroke="none">sample_N.fastq[.gz]</text>
      <rect x="987.4281" y="465.2688" clip-path="url(#clipPath2)" fill="none" width="25.4434" stroke-dasharray="6,2" rx="4" ry="4" height="30"/>
      <text x="994.4281" xml:space="preserve" y="484.4232" clip-path="url(#clipPath2)" font-family="sans-serif" stroke="none">...</text>
    </g>
    <g fill="rgb(255,204,0)" text-rendering="geometricPrecision" shape-rendering="geometricPrecision" transform="matrix(1,0,0,1,-346,-240)" stroke="rgb(255,204,0)">
      <rect x="983.8217" y="525.2688" clip-path="url(#clipPath2)" width="32.6562" rx="4" ry="4" height="30" stroke="none"/>
    </g>
    <g text-rendering="geometricPrecision" stroke-miterlimit="1.45" shape-rendering="geometricPrecision" transform="matrix(1,0,0,1,-346,-240)" stroke-linecap="butt">
      <rect x="983.8217" y="525.2688" clip-path="url(#clipPath2)" fill="none" width="32.6562" rx="4" ry="4" height="30"/>
      <text x="990.8217" xml:space="preserve" y="544.4232" clip-path="url(#clipPath2)" font-family="sans-serif" stroke="none">cat</text>
      <rect x="940.8051" y="585.2688" clip-path="url(#clipPath2)" fill="none" width="118.6895" stroke-dasharray="6,2" rx="4" ry="4" height="30"/>
      <text x="947.8051" xml:space="preserve" y="604.4232" clip-path="url(#clipPath2)" font-family="sans-serif" stroke="none">sample.fastq[.gz]</text>
    </g>
    <g fill="rgb(255,204,0)" text-rendering="geometricPrecision" shape-rendering="geometricPrecision" transform="matrix(1,0,0,1,-346,-240)" stroke="rgb(255,204,0)">
      <rect x="962.4965" y="675.2688" clip-path="url(#clipPath2)" width="75.3066" rx="4" ry="4" height="30" stroke="none"/>
    </g>
    <g text-rendering="geometricPrecision" stroke-miterlimit="1.45" shape-rendering="geometricPrecision" transform="matrix(1,0,0,1,-346,-240)" stroke-linecap="butt">
      <rect x="962.4965" y="675.2688" clip-path="url(#clipPath2)" fill="none" width="75.3066" rx="4" ry="4" height="30"/>
      <text x="969.4965" xml:space="preserve" y="694.4232" clip-path="url(#clipPath2)" font-family="sans-serif" stroke="none">seqkit seq</text>
      <rect x="914.9564" y="735.2688" clip-path="url(#clipPath2)" fill="none" width="170.3867" stroke-dasharray="6,2" rx="4" ry="4" height="30"/>
      <text x="921.9564" xml:space="preserve" y="754.4232" clip-path="url(#clipPath2)" font-family="sans-serif" stroke="none">sample.trimedX.fastq[.gz]</text>
    </g>
    <g fill="rgb(255,102,0)" text-rendering="geometricPrecision" shape-rendering="geometricPrecision" transform="matrix(1,0,0,1,-346,-240)" stroke="rgb(255,102,0)">
      <rect x="963.0209" y="795.2688" clip-path="url(#clipPath2)" width="74.2578" rx="4" ry="4" height="30" stroke="none"/>
    </g>
    <g text-rendering="geometricPrecision" stroke-miterlimit="1.45" shape-rendering="geometricPrecision" transform="matrix(1,0,0,1,-346,-240)" stroke-linecap="butt">
      <rect x="963.0209" y="795.2688" clip-path="url(#clipPath2)" fill="none" width="74.2578" rx="4" ry="4" height="30"/>
      <text x="970.0209" xml:space="preserve" y="814.4232" clip-path="url(#clipPath2)" font-family="sans-serif" stroke="none">minimap2</text>
      <rect x="930.932" y="855.2688" clip-path="url(#clipPath2)" fill="none" width="138.4355" stroke-dasharray="6,2" rx="4" ry="4" height="30"/>
      <text x="937.932" xml:space="preserve" y="874.4232" clip-path="url(#clipPath2)" font-family="sans-serif" stroke="none">sample.trimedX.sam</text>
    </g>
    <g fill="rgb(255,102,0)" text-rendering="geometricPrecision" shape-rendering="geometricPrecision" transform="matrix(1,0,0,1,-346,-240)" stroke="rgb(255,102,0)">
      <rect x="950.2914" y="915.2688" clip-path="url(#clipPath2)" width="99.7168" rx="4" ry="4" height="30" stroke="none"/>
    </g>
    <g text-rendering="geometricPrecision" stroke-miterlimit="1.45" shape-rendering="geometricPrecision" transform="matrix(1,0,0,1,-346,-240)" stroke-linecap="butt">
      <rect x="950.2914" y="915.2688" clip-path="url(#clipPath2)" fill="none" width="99.7168" rx="4" ry="4" height="30"/>
      <text x="957.2914" xml:space="preserve" y="934.4232" clip-path="url(#clipPath2)" font-family="sans-serif" stroke="none">samtools view</text>
    </g>
    <g fill="rgb(255,102,0)" text-rendering="geometricPrecision" shape-rendering="geometricPrecision" transform="matrix(1,0,0,1,-346,-240)" stroke="rgb(255,102,0)">
      <rect x="952.4916" y="1035.2688" clip-path="url(#clipPath2)" width="95.3164" rx="4" ry="4" height="30" stroke="none"/>
    </g>
    <g text-rendering="geometricPrecision" stroke-miterlimit="1.45" shape-rendering="geometricPrecision" transform="matrix(1,0,0,1,-346,-240)" stroke-linecap="butt">
      <rect x="952.4916" y="1035.2688" clip-path="url(#clipPath2)" fill="none" width="95.3164" rx="4" ry="4" height="30"/>
      <text x="959.4916" xml:space="preserve" y="1054.4231" clip-path="url(#clipPath2)" font-family="sans-serif" stroke="none">samtools sort</text>
      <rect x="903.7035" y="975.2688" clip-path="url(#clipPath2)" fill="none" width="192.8926" stroke-dasharray="6,2" rx="4" ry="4" height="30"/>
      <text x="910.7035" xml:space="preserve" y="994.4232" clip-path="url(#clipPath2)" font-family="sans-serif" stroke="none">sample.trimedX.mapped.bam</text>
      <rect x="882.6801" y="1095.2688" clip-path="url(#clipPath2)" fill="none" width="234.9395" stroke-dasharray="6,2" rx="4" ry="4" height="30"/>
      <text x="889.6801" xml:space="preserve" y="1114.4231" clip-path="url(#clipPath2)" font-family="sans-serif" stroke="none">sample.trimedX.mapped.sorted.bam</text>
      <rect x="1147.6195" y="1095.2688" clip-path="url(#clipPath2)" fill="none" width="226.584" stroke-dasharray="6,2" rx="4" ry="4" height="30"/>
      <text x="1154.6195" xml:space="preserve" y="1114.4231" clip-path="url(#clipPath2)" font-family="sans-serif" stroke="none">sample.trimedX.mapped.sorted.bai</text>
    </g>
    <g fill="rgb(255,102,0)" text-rendering="geometricPrecision" shape-rendering="geometricPrecision" transform="matrix(1,0,0,1,-346,-240)" stroke="rgb(255,102,0)">
      <rect x="1208.349" y="1035.2688" clip-path="url(#clipPath2)" width="105.125" rx="4" ry="4" height="30" stroke="none"/>
    </g>
    <g text-rendering="geometricPrecision" stroke-miterlimit="1.45" shape-rendering="geometricPrecision" transform="matrix(1,0,0,1,-346,-240)" stroke-linecap="butt">
      <rect x="1208.349" y="1035.2688" clip-path="url(#clipPath2)" fill="none" width="105.125" rx="4" ry="4" height="30"/>
      <text x="1215.349" xml:space="preserve" y="1054.4231" clip-path="url(#clipPath2)" font-family="sans-serif" stroke="none">samtools index</text>
    </g>
    <g fill="rgb(0,204,255)" text-rendering="geometricPrecision" shape-rendering="geometricPrecision" transform="matrix(1,0,0,1,-346,-240)" stroke="rgb(0,204,255)">
      <rect x="801.6342" y="735.2688" clip-path="url(#clipPath2)" width="83.3223" rx="4" ry="4" height="30" stroke="none"/>
    </g>
    <g text-rendering="geometricPrecision" stroke-miterlimit="1.45" shape-rendering="geometricPrecision" transform="matrix(1,0,0,1,-346,-240)" stroke-linecap="butt">
      <rect x="801.6342" y="735.2688" clip-path="url(#clipPath2)" fill="none" width="83.3223" rx="4" ry="4" height="30"/>
      <text x="808.6342" xml:space="preserve" y="754.4232" clip-path="url(#clipPath2)" font-family="sans-serif" stroke="none">seqkit stats</text>
      <rect x="607.974" y="735.2688" clip-path="url(#clipPath2)" fill="none" width="163.6602" stroke-dasharray="6,2" rx="4" ry="4" height="30"/>
      <text x="614.974" xml:space="preserve" y="754.4232" clip-path="url(#clipPath2)" font-family="sans-serif" stroke="none">sample.trimedX.seqstats</text>
      <rect x="1246.9965" y="855.2688" clip-path="url(#clipPath2)" fill="none" width="158.6855" stroke-dasharray="6,2" rx="4" ry="4" height="30"/>
      <text x="1253.9965" xml:space="preserve" y="874.4232" clip-path="url(#clipPath2)" font-family="sans-serif" stroke="none">sample.trimedX.flagstat</text>
    </g>
    <g fill="rgb(0,204,255)" text-rendering="geometricPrecision" shape-rendering="geometricPrecision" transform="matrix(1,0,0,1,-346,-240)" stroke="rgb(0,204,255)">
      <rect x="1099.3676" y="855.2688" clip-path="url(#clipPath2)" width="117.6289" rx="4" ry="4" height="30" stroke="none"/>
    </g>
    <g text-rendering="geometricPrecision" stroke-miterlimit="1.45" shape-rendering="geometricPrecision" transform="matrix(1,0,0,1,-346,-240)" stroke-linecap="butt">
      <rect x="1099.3676" y="855.2688" clip-path="url(#clipPath2)" fill="none" width="117.6289" rx="4" ry="4" height="30"/>
      <text x="1106.3676" xml:space="preserve" y="874.4232" clip-path="url(#clipPath2)" font-family="sans-serif" stroke="none">samtools flagstat</text>
      <rect x="1202.8168" y="585.2688" clip-path="url(#clipPath2)" fill="none" width="111.9629" stroke-dasharray="6,2" rx="4" ry="4" height="30"/>
      <text x="1209.8168" xml:space="preserve" y="604.4232" clip-path="url(#clipPath2)" font-family="sans-serif" stroke="none">sample.seqstats</text>
    </g>
    <g fill="rgb(0,204,255)" text-rendering="geometricPrecision" shape-rendering="geometricPrecision" transform="matrix(1,0,0,1,-346,-240)" stroke="rgb(0,204,255)">
      <rect x="1089.4945" y="585.2688" clip-path="url(#clipPath2)" width="83.3223" rx="4" ry="4" height="30" stroke="none"/>
    </g>
    <g text-rendering="geometricPrecision" stroke-miterlimit="1.45" shape-rendering="geometricPrecision" transform="matrix(1,0,0,1,-346,-240)" stroke-linecap="butt">
      <rect x="1089.4945" y="585.2688" clip-path="url(#clipPath2)" fill="none" width="83.3223" rx="4" ry="4" height="30"/>
      <text x="1096.4945" xml:space="preserve" y="604.4232" clip-path="url(#clipPath2)" font-family="sans-serif" stroke="none">seqkit stats</text>
    </g>
    <g fill="rgb(153,204,0)" text-rendering="geometricPrecision" shape-rendering="geometricPrecision" transform="matrix(1,0,0,1,-346,-240)" stroke="rgb(153,204,0)">
      <rect x="556.3568" y="1335.2688" clip-path="url(#clipPath2)" width="129.0547" rx="4" ry="4" height="30" stroke="none"/>
    </g>
    <g text-rendering="geometricPrecision" stroke-miterlimit="1.45" shape-rendering="geometricPrecision" transform="matrix(1,0,0,1,-346,-240)" stroke-linecap="butt">
      <rect x="556.3568" y="1335.2688" clip-path="url(#clipPath2)" fill="none" width="129.0547" rx="4" ry="4" height="30"/>
      <text x="563.3568" xml:space="preserve" y="1354.4231" clip-path="url(#clipPath2)" font-family="sans-serif" stroke="none">medaka consensus</text>
      <rect x="554.5902" y="1395.2688" clip-path="url(#clipPath2)" fill="none" width="132.5879" stroke-dasharray="6,2" rx="4" ry="4" height="30"/>
      <text x="561.5902" xml:space="preserve" y="1414.4231" clip-path="url(#clipPath2)" font-family="sans-serif" stroke="none">sample.trimedX.hdf</text>
    </g>
    <g fill="rgb(153,204,0)" text-rendering="geometricPrecision" shape-rendering="geometricPrecision" transform="matrix(1,0,0,1,-346,-240)" stroke="rgb(153,204,0)">
      <rect x="577.0668" y="1455.2688" clip-path="url(#clipPath2)" width="87.6348" rx="4" ry="4" height="30" stroke="none"/>
    </g>
    <g text-rendering="geometricPrecision" stroke-miterlimit="1.45" shape-rendering="geometricPrecision" transform="matrix(1,0,0,1,-346,-240)" stroke-linecap="butt">
      <rect x="577.0668" y="1455.2688" clip-path="url(#clipPath2)" fill="none" width="87.6348" rx="4" ry="4" height="30"/>
      <text x="584.0668" xml:space="preserve" y="1474.4231" clip-path="url(#clipPath2)" font-family="sans-serif" stroke="none">medaka snp</text>
      <rect x="542.7074" y="1515.2688" clip-path="url(#clipPath2)" fill="none" width="156.3535" stroke-dasharray="6,2" rx="4" ry="4" height="30"/>
      <text x="549.7074" xml:space="preserve" y="1534.4231" clip-path="url(#clipPath2)" font-family="sans-serif" stroke="none">sample.trimedX.snp.vcf</text>
    </g>
    <g fill="rgb(153,204,0)" text-rendering="geometricPrecision" shape-rendering="geometricPrecision" transform="matrix(1,0,0,1,-346,-240)" stroke="rgb(153,204,0)">
      <rect x="815.7182" y="1335.2688" clip-path="url(#clipPath2)" width="56.6094" rx="4" ry="4" height="30" stroke="none"/>
    </g>
    <g text-rendering="geometricPrecision" stroke-miterlimit="1.45" shape-rendering="geometricPrecision" transform="matrix(1,0,0,1,-346,-240)" stroke-linecap="butt">
      <rect x="815.7182" y="1335.2688" clip-path="url(#clipPath2)" fill="none" width="56.6094" rx="4" ry="4" height="30"/>
      <text x="822.7181" xml:space="preserve" y="1354.4231" clip-path="url(#clipPath2)" font-family="sans-serif" stroke="none">sniffles</text>
      <rect x="745.6019" y="1395.2688" clip-path="url(#clipPath2)" fill="none" width="196.8418" stroke-dasharray="6,2" rx="4" ry="4" height="30"/>
      <text x="752.6019" xml:space="preserve" y="1414.4231" clip-path="url(#clipPath2)" font-family="sans-serif" stroke="none">sample.trimedX.sv_sniffles.vcf</text>
    </g>
    <g fill="rgb(153,204,0)" text-rendering="geometricPrecision" shape-rendering="geometricPrecision" transform="matrix(1,0,0,1,-346,-240)" stroke="rgb(153,204,0)">
      <rect x="1075.642" y="1335.2688" clip-path="url(#clipPath2)" width="56.1172" rx="4" ry="4" height="30" stroke="none"/>
    </g>
    <g text-rendering="geometricPrecision" stroke-miterlimit="1.45" shape-rendering="geometricPrecision" transform="matrix(1,0,0,1,-346,-240)" stroke-linecap="butt">
      <rect x="1075.642" y="1335.2688" clip-path="url(#clipPath2)" fill="none" width="56.1172" rx="4" ry="4" height="30"/>
      <text x="1082.642" xml:space="preserve" y="1354.4231" clip-path="url(#clipPath2)" font-family="sans-serif" stroke="none">cuteSV</text>
      <rect x="1005.5258" y="1395.2688" clip-path="url(#clipPath2)" fill="none" width="196.3496" stroke-dasharray="6,2" rx="4" ry="4" height="30"/>
      <text x="1012.5258" xml:space="preserve" y="1414.4231" clip-path="url(#clipPath2)" font-family="sans-serif" stroke="none">sample.trimedX.sv_cuteSV.vcf</text>
    </g>
    <g fill="rgb(153,204,0)" text-rendering="geometricPrecision" shape-rendering="geometricPrecision" transform="matrix(1,0,0,1,-346,-240)" stroke="rgb(153,204,0)">
      <rect x="1335.0736" y="1335.2688" clip-path="url(#clipPath2)" width="42.377" rx="4" ry="4" height="30" stroke="none"/>
    </g>
    <g text-rendering="geometricPrecision" stroke-miterlimit="1.45" shape-rendering="geometricPrecision" transform="matrix(1,0,0,1,-346,-240)" stroke-linecap="butt">
      <rect x="1335.0736" y="1335.2688" clip-path="url(#clipPath2)" fill="none" width="42.377" rx="4" ry="4" height="30"/>
      <text x="1342.0736" xml:space="preserve" y="1354.4231" clip-path="url(#clipPath2)" font-family="sans-serif" stroke="none">svim</text>
      <rect x="1264.9574" y="1395.2688" clip-path="url(#clipPath2)" fill="none" width="182.6094" stroke-dasharray="6,2" rx="4" ry="4" height="30"/>
      <text x="1271.9574" xml:space="preserve" y="1414.4231" clip-path="url(#clipPath2)" font-family="sans-serif" stroke="none">sample.trimedX.sv_svim.vcf</text>
      <rect x="1510.6488" y="1395.2688" clip-path="url(#clipPath2)" fill="none" width="203.5273" stroke-dasharray="6,2" rx="4" ry="4" height="30"/>
      <text x="1517.6488" xml:space="preserve" y="1414.4231" clip-path="url(#clipPath2)" font-family="sans-serif" stroke="none">sample.trimedX.sv_nanovar.vcf</text>
    </g>
    <g fill="rgb(153,204,0)" text-rendering="geometricPrecision" shape-rendering="geometricPrecision" transform="matrix(1,0,0,1,-346,-240)" stroke="rgb(153,204,0)">
      <rect x="1579.5258" y="1335.2688" clip-path="url(#clipPath2)" width="65.7734" rx="4" ry="4" height="30" stroke="none"/>
    </g>
    <g text-rendering="geometricPrecision" stroke-miterlimit="1.45" shape-rendering="geometricPrecision" transform="matrix(1,0,0,1,-346,-240)" stroke-linecap="butt">
      <rect x="1579.5258" y="1335.2688" clip-path="url(#clipPath2)" fill="none" width="65.7734" rx="4" ry="4" height="30"/>
      <text x="1586.5258" xml:space="preserve" y="1354.4231" clip-path="url(#clipPath2)" font-family="sans-serif" stroke="none">NanoVar</text>
    </g>
    <g fill="rgb(0,204,255)" text-rendering="geometricPrecision" shape-rendering="geometricPrecision" transform="matrix(1,0,0,1,-346,-240)" stroke="rgb(0,204,255)">
      <rect x="573.6361" y="1575.2688" clip-path="url(#clipPath2)" width="94.4961" rx="4" ry="4" height="30" stroke="none"/>
    </g>
    <g text-rendering="geometricPrecision" stroke-miterlimit="1.45" shape-rendering="geometricPrecision" transform="matrix(1,0,0,1,-346,-240)" stroke-linecap="butt">
      <rect x="573.6361" y="1575.2688" clip-path="url(#clipPath2)" fill="none" width="94.4961" rx="4" ry="4" height="30"/>
      <text x="580.6361" xml:space="preserve" y="1594.4231" clip-path="url(#clipPath2)" font-family="sans-serif" stroke="none">bcftools stats</text>
    </g>
    <g fill="rgb(0,204,255)" text-rendering="geometricPrecision" shape-rendering="geometricPrecision" transform="matrix(1,0,0,1,-346,-240)" stroke="rgb(0,204,255)">
      <rect x="796.7748" y="1455.2688" clip-path="url(#clipPath2)" width="94.4961" rx="4" ry="4" height="30" stroke="none"/>
    </g>
    <g text-rendering="geometricPrecision" stroke-miterlimit="1.45" shape-rendering="geometricPrecision" transform="matrix(1,0,0,1,-346,-240)" stroke-linecap="butt">
      <rect x="796.7748" y="1455.2688" clip-path="url(#clipPath2)" fill="none" width="94.4961" rx="4" ry="4" height="30"/>
      <text x="803.7748" xml:space="preserve" y="1474.4231" clip-path="url(#clipPath2)" font-family="sans-serif" stroke="none">bcftools stats</text>
    </g>
    <g fill="rgb(0,204,255)" text-rendering="geometricPrecision" shape-rendering="geometricPrecision" transform="matrix(1,0,0,1,-346,-240)" stroke="rgb(0,204,255)">
      <rect x="1565.1644" y="1455.2688" clip-path="url(#clipPath2)" width="94.4961" rx="4" ry="4" height="30" stroke="none"/>
    </g>
    <g text-rendering="geometricPrecision" stroke-miterlimit="1.45" shape-rendering="geometricPrecision" transform="matrix(1,0,0,1,-346,-240)" stroke-linecap="butt">
      <rect x="1565.1644" y="1455.2688" clip-path="url(#clipPath2)" fill="none" width="94.4961" rx="4" ry="4" height="30"/>
      <text x="1572.1644" xml:space="preserve" y="1474.4231" clip-path="url(#clipPath2)" font-family="sans-serif" stroke="none">bcftools stats</text>
    </g>
    <g fill="rgb(0,204,255)" text-rendering="geometricPrecision" shape-rendering="geometricPrecision" transform="matrix(1,0,0,1,-346,-240)" stroke="rgb(0,204,255)">
      <rect x="1309.014" y="1455.2688" clip-path="url(#clipPath2)" width="94.4961" rx="4" ry="4" height="30" stroke="none"/>
    </g>
    <g text-rendering="geometricPrecision" stroke-miterlimit="1.45" shape-rendering="geometricPrecision" transform="matrix(1,0,0,1,-346,-240)" stroke-linecap="butt">
      <rect x="1309.014" y="1455.2688" clip-path="url(#clipPath2)" fill="none" width="94.4961" rx="4" ry="4" height="30"/>
      <text x="1316.014" xml:space="preserve" y="1474.4231" clip-path="url(#clipPath2)" font-family="sans-serif" stroke="none">bcftools stats</text>
    </g>
    <g fill="rgb(0,204,255)" text-rendering="geometricPrecision" shape-rendering="geometricPrecision" transform="matrix(1,0,0,1,-346,-240)" stroke="rgb(0,204,255)">
      <rect x="1056.4525" y="1455.2688" clip-path="url(#clipPath2)" width="94.4961" rx="4" ry="4" height="30" stroke="none"/>
    </g>
    <g text-rendering="geometricPrecision" stroke-miterlimit="1.45" shape-rendering="geometricPrecision" transform="matrix(1,0,0,1,-346,-240)" stroke-linecap="butt">
      <rect x="1056.4525" y="1455.2688" clip-path="url(#clipPath2)" fill="none" width="94.4961" rx="4" ry="4" height="30"/>
      <text x="1063.4525" xml:space="preserve" y="1474.4231" clip-path="url(#clipPath2)" font-family="sans-serif" stroke="none">bcftools stats</text>
      <rect x="526.1664" y="1635.2688" clip-path="url(#clipPath2)" fill="none" width="189.4355" stroke-dasharray="6,2" rx="4" ry="4" height="30"/>
      <text x="533.1664" xml:space="preserve" y="1654.4231" clip-path="url(#clipPath2)" font-family="sans-serif" stroke="none">sample.trimedX.snp.vcf.stats</text>
      <rect x="729.0609" y="1515.2688" clip-path="url(#clipPath2)" fill="none" width="229.9238" stroke-dasharray="6,2" rx="4" ry="4" height="30"/>
      <text x="736.0609" xml:space="preserve" y="1534.4231" clip-path="url(#clipPath2)" font-family="sans-serif" stroke="none">sample.trimedX.sv_sniffles.vcf.stats</text>
      <rect x="988.9848" y="1515.2688" clip-path="url(#clipPath2)" fill="none" width="229.4316" stroke-dasharray="6,2" rx="4" ry="4" height="30"/>
      <text x="995.9847" xml:space="preserve" y="1534.4231" clip-path="url(#clipPath2)" font-family="sans-serif" stroke="none">sample.trimedX.sv_cuteSV.vcf.stats</text>
      <rect x="1248.4164" y="1515.2688" clip-path="url(#clipPath2)" fill="none" width="215.6914" stroke-dasharray="6,2" rx="4" ry="4" height="30"/>
      <text x="1255.4164" xml:space="preserve" y="1534.4231" clip-path="url(#clipPath2)" font-family="sans-serif" stroke="none">sample.trimedX.sv_svim.vcf.stats</text>
      <rect x="1494.1078" y="1515.2688" clip-path="url(#clipPath2)" fill="none" width="236.6094" stroke-dasharray="6,2" rx="4" ry="4" height="30"/>
      <text x="1501.1078" xml:space="preserve" y="1534.4231" clip-path="url(#clipPath2)" font-family="sans-serif" stroke="none">sample.trimedX.sv_nanovar.vcf.stats</text>
    </g>
    <g fill="rgb(0,204,255)" text-rendering="geometricPrecision" shape-rendering="geometricPrecision" transform="matrix(1,0,0,1,-346,-240)" stroke="rgb(0,204,255)">
      <rect x="985.6547" y="1185.2688" clip-path="url(#clipPath2)" width="98.1523" rx="4" ry="4" height="30" stroke="none"/>
    </g>
    <g text-rendering="geometricPrecision" stroke-miterlimit="1.45" shape-rendering="geometricPrecision" transform="matrix(1,0,0,1,-346,-240)" stroke-linecap="butt">
      <rect x="985.6547" y="1185.2688" clip-path="url(#clipPath2)" fill="none" width="98.1523" rx="4" ry="4" height="30"/>
      <text x="992.6547" xml:space="preserve" y="1204.4231" clip-path="url(#clipPath2)" font-family="sans-serif" stroke="none">bamCoverage</text>
    </g>
    <g fill="rgb(0,204,255)" text-rendering="geometricPrecision" shape-rendering="geometricPrecision" transform="matrix(1,0,0,1,-346,-240)" stroke="rgb(0,204,255)">
      <rect x="1173.0765" y="1185.2688" clip-path="url(#clipPath2)" width="94.4902" rx="4" ry="4" height="30" stroke="none"/>
    </g>
    <g text-rendering="geometricPrecision" stroke-miterlimit="1.45" shape-rendering="geometricPrecision" transform="matrix(1,0,0,1,-346,-240)" stroke-linecap="butt">
      <rect x="1173.0765" y="1185.2688" clip-path="url(#clipPath2)" fill="none" width="94.4902" rx="4" ry="4" height="30"/>
      <text x="1180.0765" xml:space="preserve" y="1204.4231" clip-path="url(#clipPath2)" font-family="sans-serif" stroke="none">plotCoverage</text>
      <rect x="784.7699" y="1185.2688" clip-path="url(#clipPath2)" fill="none" width="170.8848" stroke-dasharray="6,2" rx="4" ry="4" height="30"/>
      <text x="791.7699" xml:space="preserve" y="1204.4231" clip-path="url(#clipPath2)" font-family="sans-serif" stroke="none">sample.trimedX.bedgraph</text>
      <rect x="1297.5668" y="1185.2688" clip-path="url(#clipPath2)" fill="none" width="132.5996" stroke-dasharray="6,2" rx="4" ry="4" height="30"/>
      <text x="1304.5668" xml:space="preserve" y="1204.4231" clip-path="url(#clipPath2)" font-family="sans-serif" stroke="none">sample.trimedX.pdf</text>
      <rect x="361.3676" y="1012.7688" clip-path="url(#clipPath2)" fill="none" width="105.5293" stroke-dasharray="6,2" rx="4" ry="4" height="30"/>
      <text x="368.3676" xml:space="preserve" y="1031.9231" clip-path="url(#clipPath2)" font-family="sans-serif" stroke="none">reference.fasta</text>
      <rect x="1675.7035" y="645.2688" clip-path="url(#clipPath2)" fill="none" width="84.2832" stroke-dasharray="6,2" height="30"/>
      <text x="1682.7035" xml:space="preserve" y="664.4232" clip-path="url(#clipPath2)" font-family="sans-serif" stroke="none">Snakemake</text>
      <path fill="none" d="M1000.1498 285.2396 L1000.1498 307.2737" clip-path="url(#clipPath2)"/>
      <path d="M1000.1498 315.2737 L1005.1498 303.2737 L1000.1498 306.2737 L995.1498 303.2737 Z" clip-path="url(#clipPath2)" stroke="none"/>
      <path fill="none" d="M1000.1498 345.2396 L1000.1498 367.2737" clip-path="url(#clipPath2)"/>
      <path d="M1000.1498 375.2737 L1005.1498 363.2737 L1000.1498 366.2737 L995.1498 363.2737 Z" clip-path="url(#clipPath2)" stroke="none"/>
      <path fill="none" d="M1082.3425 495.2542 L1023.5006 527.4803" clip-path="url(#clipPath2)"/>
      <path d="M1016.484 531.3231 L1029.4106 529.9443 L1024.3777 526.9999 L1024.6072 521.1735 Z" clip-path="url(#clipPath2)" stroke="none"/>
      <path fill="none" d="M1000.1498 495.2396 L1000.1498 517.2737" clip-path="url(#clipPath2)"/>
      <path d="M1000.1498 525.2737 L1005.1498 513.2737 L1000.1498 516.2737 L995.1498 513.2737 Z" clip-path="url(#clipPath2)" stroke="none"/>
      <path fill="none" d="M918.4604 495.2542 L976.8292 527.4182" clip-path="url(#clipPath2)"/>
      <path d="M983.8359 531.2791 L975.7391 521.1085 L975.9534 526.9355 L970.9128 529.8668 Z" clip-path="url(#clipPath2)" stroke="none"/>
      <path fill="none" d="M1000.1498 555.2396 L1000.1498 577.2737" clip-path="url(#clipPath2)"/>
      <path d="M1000.1498 585.2737 L1005.1498 573.2737 L1000.1498 576.2737 L995.1498 573.2737 Z" clip-path="url(#clipPath2)" stroke="none"/>
      <path fill="none" d="M1000.1498 615.2542 L1000.1498 667.2879" clip-path="url(#clipPath2)"/>
      <path d="M1000.1498 675.2879 L1005.1498 663.2879 L1000.1498 666.2879 L995.1498 663.2879 Z" clip-path="url(#clipPath2)" stroke="none"/>
      <path fill="none" d="M1000.1498 705.2396 L1000.1498 727.2737" clip-path="url(#clipPath2)"/>
      <path d="M1000.1498 735.2737 L1005.1498 723.2737 L1000.1498 726.2737 L995.1498 723.2737 Z" clip-path="url(#clipPath2)" stroke="none"/>
      <path fill="none" d="M1000.1498 765.2396 L1000.1498 787.2737" clip-path="url(#clipPath2)"/>
      <path d="M1000.1498 795.2737 L1005.1498 783.2737 L1000.1498 786.2737 L995.1498 783.2737 Z" clip-path="url(#clipPath2)" stroke="none"/>
      <path fill="none" d="M1000.1498 825.2396 L1000.1498 847.2737" clip-path="url(#clipPath2)"/>
      <path d="M1000.1498 855.2737 L1005.1498 843.2737 L1000.1498 846.2737 L995.1498 843.2737 Z" clip-path="url(#clipPath2)" stroke="none"/>
      <path fill="none" d="M1000.1498 885.2396 L1000.1498 907.2737" clip-path="url(#clipPath2)"/>
      <path d="M1000.1498 915.2737 L1005.1498 903.2737 L1000.1498 906.2737 L995.1498 903.2737 Z" clip-path="url(#clipPath2)" stroke="none"/>
      <path fill="none" d="M1000.1498 945.2396 L1000.1498 967.2737" clip-path="url(#clipPath2)"/>
      <path d="M1000.1498 975.2737 L1005.1498 963.2737 L1000.1498 966.2737 L995.1498 963.2737 Z" clip-path="url(#clipPath2)" stroke="none"/>
      <path fill="none" d="M1000.1498 1005.2396 L1000.1498 1027.2737" clip-path="url(#clipPath2)"/>
      <path d="M1000.1498 1035.2737 L1005.1498 1023.2737 L1000.1498 1026.2737 L995.1498 1023.2737 Z" clip-path="url(#clipPath2)" stroke="none"/>
      <path fill="none" d="M1000.1498 1065.2395 L1000.1498 1087.2737" clip-path="url(#clipPath2)"/>
      <path d="M1000.1498 1095.2737 L1005.1498 1083.2737 L1000.1498 1086.2737 L995.1498 1083.2737 Z" clip-path="url(#clipPath2)" stroke="none"/>
      <path fill="none" d="M1000.1498 1125.2681 L1000.1498 1155.3104 L1260.9115 1155.3104 L1260.9115 1125.2681" clip-path="url(#clipPath2)"/>
      <path fill="none" d="M1102.9847 1095.2395 L1102.9847 1050.2688 L1132.6195 1050.2688 L1200.3231 1050.2688" clip-path="url(#clipPath2)"/>
      <path d="M1208.3231 1050.2688 L1196.3231 1045.2688 L1199.3231 1050.2688 L1196.3231 1055.2688 Z" clip-path="url(#clipPath2)" stroke="none"/>
      <path fill="none" d="M1260.9115 1065.2395 L1260.9115 1087.2737" clip-path="url(#clipPath2)"/>
      <path d="M1260.9115 1095.2737 L1265.9115 1083.2737 L1260.9115 1086.2737 L1255.9115 1083.2737 Z" clip-path="url(#clipPath2)" stroke="none"/>
      <path fill="none" d="M914.9444 750.2689 L892.9623 750.2689" clip-path="url(#clipPath2)"/>
      <path d="M884.9623 750.2689 L896.9623 755.2689 L893.9623 750.2689 L896.9623 745.2689 Z" clip-path="url(#clipPath2)" stroke="none"/>
      <path fill="none" d="M801.6623 750.2689 L779.6496 750.2689" clip-path="url(#clipPath2)"/>
      <path d="M771.6496 750.2689 L783.6496 755.2689 L780.6496 750.2689 L783.6496 745.2689 Z" clip-path="url(#clipPath2)" stroke="none"/>
      <path fill="none" d="M1069.4047 870.2689 L1091.3583 870.2689" clip-path="url(#clipPath2)"/>
      <path d="M1099.3583 870.2689 L1087.3583 865.2689 L1090.3583 870.2689 L1087.3583 875.2689 Z" clip-path="url(#clipPath2)" stroke="none"/>
      <path fill="none" d="M1217.0125 870.2689 L1238.9866 870.2689" clip-path="url(#clipPath2)"/>
      <path d="M1246.9866 870.2689 L1234.9866 865.2689 L1237.9866 870.2689 L1234.9866 875.2689 Z" clip-path="url(#clipPath2)" stroke="none"/>
      <path fill="none" d="M1059.4799 600.2689 L1081.4731 600.2689" clip-path="url(#clipPath2)"/>
      <path d="M1089.4731 600.2689 L1077.4731 595.2689 L1080.4731 600.2689 L1077.4731 605.2689 Z" clip-path="url(#clipPath2)" stroke="none"/>
      <path fill="none" d="M1172.8202 600.2689 L1194.8369 600.2689" clip-path="url(#clipPath2)"/>
      <path d="M1202.8369 600.2689 L1190.8369 595.2689 L1193.8369 600.2689 L1190.8369 605.2689 Z" clip-path="url(#clipPath2)" stroke="none"/>
      <path fill="none" d="M620.8842 1365.2395 L620.8842 1387.2737" clip-path="url(#clipPath2)"/>
      <path d="M620.8842 1395.2737 L625.8842 1383.2737 L620.8842 1386.2737 L615.8842 1383.2737 Z" clip-path="url(#clipPath2)" stroke="none"/>
      <path fill="none" d="M620.8842 1425.2395 L620.8842 1447.2737" clip-path="url(#clipPath2)"/>
      <path d="M620.8842 1455.2737 L625.8842 1443.2737 L620.8842 1446.2737 L615.8842 1443.2737 Z" clip-path="url(#clipPath2)" stroke="none"/>
      <path fill="none" d="M620.8842 1485.2395 L620.8842 1507.2737" clip-path="url(#clipPath2)"/>
      <path d="M620.8842 1515.2737 L625.8842 1503.2737 L620.8842 1506.2737 L615.8842 1503.2737 Z" clip-path="url(#clipPath2)" stroke="none"/>
      <path fill="none" d="M844.0228 1365.2395 L844.0228 1387.2737" clip-path="url(#clipPath2)"/>
      <path d="M844.0228 1395.2737 L849.0228 1383.2737 L844.0228 1386.2737 L839.0228 1383.2737 Z" clip-path="url(#clipPath2)" stroke="none"/>
      <path fill="none" d="M1103.7006 1365.2395 L1103.7006 1387.2737" clip-path="url(#clipPath2)"/>
      <path d="M1103.7006 1395.2737 L1108.7006 1383.2737 L1103.7006 1386.2737 L1098.7006 1383.2737 Z" clip-path="url(#clipPath2)" stroke="none"/>
      <path fill="none" d="M1356.2621 1365.2395 L1356.2621 1387.2737" clip-path="url(#clipPath2)"/>
      <path d="M1356.2621 1395.2737 L1361.2621 1383.2737 L1356.2621 1386.2737 L1351.2621 1383.2737 Z" clip-path="url(#clipPath2)" stroke="none"/>
      <path fill="none" d="M1612.4125 1365.2395 L1612.4125 1387.2737" clip-path="url(#clipPath2)"/>
      <path d="M1612.4125 1395.2737 L1617.4125 1383.2737 L1612.4125 1386.2737 L1607.4125 1383.2737 Z" clip-path="url(#clipPath2)" stroke="none"/>
      <path fill="none" d="M620.8842 1545.2395 L620.8842 1567.2737" clip-path="url(#clipPath2)"/>
      <path d="M620.8842 1575.2737 L625.8842 1563.2737 L620.8842 1566.2737 L615.8842 1563.2737 Z" clip-path="url(#clipPath2)" stroke="none"/>
      <path fill="none" d="M844.0228 1425.2395 L844.0228 1447.2737" clip-path="url(#clipPath2)"/>
      <path d="M844.0228 1455.2737 L849.0228 1443.2737 L844.0228 1446.2737 L839.0228 1443.2737 Z" clip-path="url(#clipPath2)" stroke="none"/>
      <path fill="none" d="M1612.4125 1425.2395 L1612.4125 1447.2737" clip-path="url(#clipPath2)"/>
      <path d="M1612.4125 1455.2737 L1617.4125 1443.2737 L1612.4125 1446.2737 L1607.4125 1443.2737 Z" clip-path="url(#clipPath2)" stroke="none"/>
      <path fill="none" d="M1356.2621 1425.2395 L1356.2621 1447.2737" clip-path="url(#clipPath2)"/>
      <path d="M1356.2621 1455.2737 L1361.2621 1443.2737 L1356.2621 1446.2737 L1351.2621 1443.2737 Z" clip-path="url(#clipPath2)" stroke="none"/>
      <path fill="none" d="M1103.7006 1425.2395 L1103.7006 1447.2737" clip-path="url(#clipPath2)"/>
      <path d="M1103.7006 1455.2737 L1108.7006 1443.2737 L1103.7006 1446.2737 L1098.7006 1443.2737 Z" clip-path="url(#clipPath2)" stroke="none"/>
      <path fill="none" d="M620.8842 1605.2395 L620.8842 1627.2737" clip-path="url(#clipPath2)"/>
      <path d="M620.8842 1635.2737 L625.8842 1623.2737 L620.8842 1626.2737 L615.8842 1623.2737 Z" clip-path="url(#clipPath2)" stroke="none"/>
      <path fill="none" d="M844.0228 1485.2395 L844.0228 1507.2737" clip-path="url(#clipPath2)"/>
      <path d="M844.0228 1515.2737 L849.0228 1503.2737 L844.0228 1506.2737 L839.0228 1503.2737 Z" clip-path="url(#clipPath2)" stroke="none"/>
      <path fill="none" d="M1103.7006 1485.2395 L1103.7006 1507.2737" clip-path="url(#clipPath2)"/>
      <path d="M1103.7006 1515.2737 L1108.7006 1503.2737 L1103.7006 1506.2737 L1098.7006 1503.2737 Z" clip-path="url(#clipPath2)" stroke="none"/>
      <path fill="none" d="M1356.2621 1485.2395 L1356.2621 1507.2737" clip-path="url(#clipPath2)"/>
      <path d="M1356.2621 1515.2737 L1361.2621 1503.2737 L1356.2621 1506.2737 L1351.2621 1503.2737 Z" clip-path="url(#clipPath2)" stroke="none"/>
      <path fill="none" d="M1612.4125 1485.2395 L1612.4125 1507.2737" clip-path="url(#clipPath2)"/>
      <path d="M1612.4125 1515.2737 L1617.4125 1503.2737 L1612.4125 1506.2737 L1607.4125 1503.2737 Z" clip-path="url(#clipPath2)" stroke="none"/>
      <path fill="none" d="M985.6886 1200.2688 L963.6636 1200.2688" clip-path="url(#clipPath2)"/>
      <path d="M955.6636 1200.2688 L967.6636 1205.2688 L964.6636 1200.2688 L967.6636 1195.2688 Z" clip-path="url(#clipPath2)" stroke="none"/>
      <path fill="none" d="M1267.5975 1200.2688 L1289.5406 1200.2688" clip-path="url(#clipPath2)"/>
      <path d="M1297.5406 1200.2688 L1285.5406 1195.2688 L1288.5406 1200.2688 L1285.5406 1205.2688 Z" clip-path="url(#clipPath2)" stroke="none"/>
      <path fill="none" d="M466.8791 1027.7688 L578.931 1027.7688 L578.931 1245.2688 L1128.4418 1245.2688 L1128.4418 1305.2688 L1103.7006 1305.2688 L1103.7006 1327.2834" clip-path="url(#clipPath2)"/>
      <path d="M1103.7006 1335.2834 L1108.7006 1323.2834 L1103.7006 1326.2834 L1098.7006 1323.2834 Z" clip-path="url(#clipPath2)" stroke="none"/>
      <path fill="none" d="M466.8791 1027.7688 L578.931 1027.7688 L578.931 810.2689 L955.0001 810.2689" clip-path="url(#clipPath2)"/>
      <path d="M963.0001 810.2689 L951.0001 805.2689 L954.0001 810.2689 L951.0001 815.2689 Z" clip-path="url(#clipPath2)" stroke="none"/>
      <path fill="none" d="M1128.4418 1155.2542 L1128.4418 1185.2688 L1128.4418 1200.2688 L1091.8284 1200.2688" clip-path="url(#clipPath2)"/>
      <path d="M1083.8284 1200.2688 L1095.8284 1205.2688 L1092.8284 1200.2688 L1095.8284 1195.2688 Z" clip-path="url(#clipPath2)" stroke="none"/>
      <path fill="none" d="M1128.4418 1155.2542 L1128.4418 1185.2688 L1128.4418 1200.2688 L1165.0807 1200.2688" clip-path="url(#clipPath2)"/>
      <path d="M1173.0807 1200.2688 L1161.0807 1195.2688 L1164.0807 1200.2688 L1161.0807 1205.2688 Z" clip-path="url(#clipPath2)" stroke="none"/>
      <path fill="none" d="M1128.4418 1155.2944 L1128.4418 1305.2688 L1356.2621 1305.2688 L1356.2621 1327.2834" clip-path="url(#clipPath2)"/>
      <path d="M1356.2621 1335.2834 L1361.2621 1323.2834 L1356.2621 1326.2834 L1351.2621 1323.2834 Z" clip-path="url(#clipPath2)" stroke="none"/>
      <path fill="none" d="M1128.4418 1155.2944 L1128.4418 1305.2688 L1612.4125 1305.2688 L1612.4125 1327.2834" clip-path="url(#clipPath2)"/>
      <path d="M1612.4125 1335.2834 L1617.4125 1323.2834 L1612.4125 1326.2834 L1607.4125 1323.2834 Z" clip-path="url(#clipPath2)" stroke="none"/>
      <path fill="none" d="M1128.4418 1155.2944 L1128.4418 1305.2688 L844.0228 1305.2688 L844.0228 1327.2834" clip-path="url(#clipPath2)"/>
      <path d="M844.0228 1335.2834 L849.0228 1323.2834 L844.0228 1326.2834 L839.0228 1323.2834 Z" clip-path="url(#clipPath2)" stroke="none"/>
      <path fill="none" d="M1128.4418 1155.2944 L1128.4418 1305.2688 L620.8842 1305.2688 L620.8842 1327.2834" clip-path="url(#clipPath2)"/>
      <path d="M620.8842 1335.2834 L625.8842 1323.2834 L620.8842 1326.2834 L615.8842 1323.2834 Z" clip-path="url(#clipPath2)" stroke="none"/>
    </g>
  </g>
</svg>
