<?xml version="1.0" encoding="UTF-8"?><svg xmlns="http://www.w3.org/2000/svg" xmlns:xlink="http://www.w3.org/1999/xlink" fill-opacity="1" color-rendering="auto" color-interpolation="auto" text-rendering="auto" stroke="black" stroke-linecap="square" width="889" stroke-miterlimit="10" shape-rendering="auto" stroke-opacity="1" fill="black" stroke-dasharray="none" font-weight="normal" stroke-width="1" height="151" font-family="'Dialog'" font-style="normal" stroke-linejoin="miter" font-size="12px" stroke-dashoffset="0" image-rendering="auto">
  <!--Generated by ySVG 2.6-->
  <defs id="genericDefs"/>
  <g>
    <defs id="defs1">
      <clipPath clipPathUnits="userSpaceOnUse" id="clipPath1">
        <path d="M0 0 L889 0 L889 151 L0 151 L0 0 Z"/>
      </clipPath>
      <clipPath clipPathUnits="userSpaceOnUse" id="clipPath2">
        <path d="M606 282 L1495 282 L1495 433 L606 433 L606 282 Z"/>
      </clipPath>
    </defs>
    <g fill="white" text-rendering="geometricPrecision" shape-rendering="geometricPrecision" transform="translate(-606,-282)" stroke="white">
      <rect x="606" width="889" height="151" y="282" clip-path="url(#clipPath2)" stroke="none"/>
    </g>
    <g fill="rgb(153,204,0)" text-rendering="geometricPrecision" shape-rendering="geometricPrecision" transform="matrix(1,0,0,1,-606,-282)" stroke="rgb(153,204,0)">
      <rect x="900.7822" y="327.72" clip-path="url(#clipPath2)" width="129.0547" rx="4" ry="4" height="30" stroke="none"/>
    </g>
    <g text-rendering="geometricPrecision" stroke-miterlimit="1.45" shape-rendering="geometricPrecision" transform="matrix(1,0,0,1,-606,-282)" stroke-linecap="butt">
      <rect x="900.7822" y="327.72" clip-path="url(#clipPath2)" fill="none" width="129.0547" rx="4" ry="4" height="30"/>
      <text x="907.7822" xml:space="preserve" y="346.8743" clip-path="url(#clipPath2)" font-family="sans-serif" stroke="none">medaka consensus</text>
      <rect x="644.0635" y="297.72" clip-path="url(#clipPath2)" fill="none" width="226.7188" stroke-dasharray="6,2" rx="4" ry="4" height="30"/>
      <text x="651.0635" xml:space="preserve" y="316.8743" clip-path="url(#clipPath2)" font-family="sans-serif" stroke="none">sample.trimed.mapped.sorted.bam</text>
      <rect x="621.9443" y="357.72" clip-path="url(#clipPath2)" fill="none" width="248.8379" stroke-dasharray="6,2" rx="4" ry="4" height="30"/>
      <text x="628.9443" xml:space="preserve" y="376.8743" clip-path="url(#clipPath2)" font-family="sans-serif" stroke="none">sample.trimed.mapped.sorted.bam.bai</text>
    </g>
    <g fill="rgb(153,204,0)" text-rendering="geometricPrecision" shape-rendering="geometricPrecision" transform="matrix(1,0,0,1,-606,-282)" stroke="rgb(153,204,0)">
      <rect x="1214.2041" y="357.72" clip-path="url(#clipPath2)" width="87.6348" rx="4" ry="4" height="30" stroke="none"/>
    </g>
    <g text-rendering="geometricPrecision" stroke-miterlimit="1.45" shape-rendering="geometricPrecision" transform="matrix(1,0,0,1,-606,-282)" stroke-linecap="butt">
      <rect x="1214.2041" y="357.72" clip-path="url(#clipPath2)" fill="none" width="87.6348" rx="4" ry="4" height="30"/>
      <text x="1221.2041" xml:space="preserve" y="376.8743" clip-path="url(#clipPath2)" font-family="sans-serif" stroke="none">medaka snp</text>
      <rect x="1059.8369" y="327.72" clip-path="url(#clipPath2)" fill="none" width="124.3672" stroke-dasharray="6,2" rx="4" ry="4" height="30"/>
      <text x="1066.8369" xml:space="preserve" y="346.8743" clip-path="url(#clipPath2)" font-family="sans-serif" stroke="none">sample.trimed.hdf</text>
      <rect x="1078.6748" y="387.72" clip-path="url(#clipPath2)" fill="none" width="105.5293" stroke-dasharray="6,2" rx="4" ry="4" height="30"/>
      <text x="1085.6748" xml:space="preserve" y="406.8743" clip-path="url(#clipPath2)" font-family="sans-serif" stroke="none">reference.fasta</text>
      <rect x="1331.8389" y="357.72" clip-path="url(#clipPath2)" fill="none" width="148.1328" stroke-dasharray="6,2" rx="4" ry="4" height="30"/>
      <text x="1338.8389" xml:space="preserve" y="376.8743" clip-path="url(#clipPath2)" font-family="sans-serif" stroke="none">sample.trimed.snp.vcf</text>
      <path fill="none" d="M861.3408 327.7163 L892.8427 332.2623" clip-path="url(#clipPath2)"/>
      <path d="M900.7606 333.405 L889.5978 326.7423 L891.8529 332.1195 L888.1695 336.6397 Z" clip-path="url(#clipPath2)" stroke="none"/>
      <path fill="none" d="M855.8632 357.7163 L892.8541 352.6479" clip-path="url(#clipPath2)"/>
      <path d="M900.78 351.5618 L888.2123 348.2372 L891.8633 352.7836 L889.5699 358.1446 Z" clip-path="url(#clipPath2)" stroke="none"/>
      <path fill="none" d="M1029.8534 342.72 L1051.8707 342.72" clip-path="url(#clipPath2)"/>
      <path d="M1059.8707 342.72 L1047.8707 337.72 L1050.8707 342.72 L1047.8707 347.72 Z" clip-path="url(#clipPath2)" stroke="none"/>
      <path fill="none" d="M1183.2808 356.2332 L1206.3794 361.3284" clip-path="url(#clipPath2)"/>
      <path d="M1214.1915 363.0517 L1203.5503 355.5842 L1205.4028 361.113 L1201.3962 365.3494 Z" clip-path="url(#clipPath2)" stroke="none"/>
      <path fill="none" d="M1183.9451 390.2762 L1206.4351 384.946" clip-path="url(#clipPath2)"/>
      <path d="M1214.2195 383.1011 L1201.3899 381.0032 L1205.462 385.1766 L1203.696 390.7337 Z" clip-path="url(#clipPath2)" stroke="none"/>
      <path fill="none" d="M1301.8162 372.72 L1323.8282 372.72" clip-path="url(#clipPath2)"/>
      <path d="M1331.8282 372.72 L1319.8282 367.72 L1322.8282 372.72 L1319.8282 377.72 Z" clip-path="url(#clipPath2)" stroke="none"/>
    </g>
  </g>
</svg>
